SplineFontDB: 3.2
FontName: Samaano-Wide-Bold-Slanted
FullName: Samaano Wide Bold Slanted
FamilyName: Samaano
Weight: Bold
Copyright: Copyright 2024 The Samaano Project Authors (https://github.com/mitradranirban/samaano-fonts)
UComments: "2024-8-27: Created with FontForge (http://fontforge.org)"
Version: 1.101
ItalicAngle: -20
UnderlinePosition: 0
UnderlineWidth: 102
Ascent: 1638
Descent: 410
InvalidEm: 0
UFOAscent: 1638
UFODescent: -410
LayerCount: 2
Layer: 0 0 "Back" 1
Layer: 1 0 "public.default" 0 "glyphs"
StyleMap: 0x0021
FSType: 0
OS2Version: 0
OS2_WeightWidthSlopeOnly: 0
OS2_UseTypoMetrics: 0
CreationTime: 1729163604
ModificationTime: 1729413408
PfmFamily: 49
TTFWeight: 700
TTFWidth: 9
LineGap: 0
VLineGap: 0
Panose: 2 7 8 9 0 0 0 0 0 0
OS2TypoAscent: 2457
OS2TypoAOffset: 0
OS2TypoDescent: -615
OS2TypoDOffset: 0
OS2TypoLinegap: 0
OS2WinAscent: 2476
OS2WinAOffset: 0
OS2WinDescent: 958
OS2WinDOffset: 0
HheadAscent: 2457
HheadAOffset: 0
HheadDescent: -615
HheadDOffset: 0
OS2CapHeight: 1548
OS2XHeight: 1023
OS2FamilyClass: 1031
OS2Vendor: 'anir'
Lookup: 4 0 0 "nuktNuktaFormsinDevanagarilookup0" { "nuktNuktaFormsinDevanagarilookup0 subtable"  } ['nukt' ('DFLT' <'dflt' > 'dev2' <'dflt' > ) ]
Lookup: 4 0 0 "akhnAkhandinDevanagarilookup0" { "akhnAkhandinDevanagarilookup0 subtable"  } ['akhn' ('DFLT' <'dflt' > 'dev2' <'dflt' > ) ]
Lookup: 4 0 0 "rphfRephForminDevanagarilookup0" { "rphfRephForminDevanagarilookup0 subtable"  } ['rphf' ('DFLT' <'dflt' > 'dev2' <'dflt' > ) ]
Lookup: 4 0 0 "blwfBelowBaseFormsinDevanagarilookup0" { "blwfBelowBaseFormsinDevanagarilookup0 subtable"  } ['blwf' ('deva' <'dflt' > 'DFLT' <'dflt' > ) ]
Lookup: 4 0 0 "halfHalfFormsinDevanagarilookup0" { "halfHalfFormsinDevanagarilookup0 subtable"  } ['half' ('deva' <'dflt' > 'DFLT' <'dflt' > ) ]
Lookup: 4 0 0 "halnHalantFormsinDevanagarilookup0" { "halnHalantFormsinDevanagarilookup0 subtable"  } ['haln' ('deva' <'dflt' > 'DFLT' <'dflt' > ) ]

StartChar: .notdef
Encoding: 0 0 0
GlifName: _notdef
Width: 2048
VWidth: 0
Flags: W
LayerCount: 2
Fore
SplineSet
519.176757812 -16 m 257
 1517.17675781 -16 l 257
 2114.08789062 1624 l 257
 1116.08789062 1624 l 257
 519.176757812 -16 l 257
622.293945312 64 m 257
 1162.42578125 1548 l 257
 1293.00292969 827 l 257
 622.293945312 64 l 257
714.293945312 64 m 257
 1302.97753906 750 l 257
 1394.29394531 64 l 257
 714.293945312 64 l 257
1286.06542969 1558 m 257
 1917.06542969 1558 l 257
 1362.84863281 909 l 257
 1286.06542969 1558 l 257
1372.82324219 832 m 257
 2013.4296875 1559 l 257
 1469.29394531 64 l 257
 1372.82324219 832 l 257
EndSplineSet
EndChar

StartChar: A
Encoding: 65 65 1
GlifName: A_
Width: 2048
VWidth: 0
GlyphClass: 2
Flags: W
AnchorPoint: "base" 857 -59 basechar 0
AnchorPoint: "top" 533 1641 basechar 0
AnchorPoint: "base" 1829 -7 basechar 0
AnchorPoint: "top" 1641 1645 basechar 0
LayerCount: 2
Fore
SplineSet
121 0 m 257
 320 0 l 257
 883.42578125 1548 l 257
 684.42578125 1548 l 257
 121 0 l 257
666.80859375 1332 m 257
 2334.80859375 1332 l 257
 2413.42578125 1548 l 257
 745.42578125 1548 l 257
 666.80859375 1332 l 257
572.341796875 1023 m 257
 509.010742188 849 l 257
 2147.01074219 849 l 257
 2210.34179688 1023 l 257
 572.341796875 1023 l 257
1725 0 m 257
 1925 0 l 257
 2488.42578125 1548 l 257
 2288.42578125 1548 l 257
 1725 0 l 257
EndSplineSet
EndChar

StartChar: AE
Encoding: 198 198 2
GlifName: A_E_
Width: 2048
VWidth: 0
GlyphClass: 2
Flags: HW
LayerCount: 2
Fore
SplineSet
1225.33496094 185 m 257
 1158 0 l 257
 2020 0 l 257
 2087.33496094 185 l 257
 1225.33496094 185 l 257
125 0 m 257
 324 0 l 257
 887.42578125 1548 l 257
 688.42578125 1548 l 257
 125 0 l 257
670.80859375 1332 m 257
 2482.80859375 1332 l 257
 2561.42578125 1548 l 257
 749.42578125 1548 l 257
 670.80859375 1332 l 257
576.341796875 1023 m 257
 513.010742188 849 l 257
 2255.01074219 849 l 257
 2318.34179688 1023 l 257
 576.341796875 1023 l 257
1063 0 m 257
 1263 0 l 257
 1826.42578125 1548 l 257
 1626.42578125 1548 l 257
 1063 0 l 257
EndSplineSet
EndChar

StartChar: B
Encoding: 66 66 12
GlifName: B_
Width: 2048
VWidth: 0
GlyphClass: 2
Flags: W
LayerCount: 2
Fore
SplineSet
90 0 m 257
 298 0 l 257
 857.421875 1537 l 257
 649.421875 1537 l 257
 90 0 l 257
1922.44433594 1331 m 257
 2311.96679688 989 l 257
 2394.22363281 1215 l 257
 1997.421875 1537 l 257
 1922.44433594 1331 l 257
1736.45605469 820 m 257
 2312.69433594 991 l 257
 2394.22363281 1215 l 257
 1810.34179688 1023 l 257
 1736.45605469 820 l 257
1453.15820312 201 m 257
 1380 0 l 257
 2066.48535156 364 l 257
 2148.01464844 588 l 257
 1453.15820312 201 l 257
1652.37109375 567 m 257
 2066.48535156 364 l 257
 2147.28613281 586 l 257
 1724.80078125 766 l 257
 1652.37109375 567 l 257
624.341796875 1023 m 257
 550.456054688 820 l 257
 1736.45605469 820 l 257
 1810.34179688 1023 l 257
 624.341796875 1023 l 257
528.80078125 766 m 257
 456.37109375 567 l 257
 1652.37109375 567 l 257
 1724.80078125 766 l 257
 528.80078125 766 l 257
260.793945312 200 m 257
 188 0 l 257
 1380 0 l 257
 1452.79394531 200 l 257
 260.793945312 200 l 257
809.421875 1537 m 257
 734.444335938 1331 l 257
 1922.44433594 1331 l 257
 1997.421875 1537 l 257
 809.421875 1537 l 257
EndSplineSet
EndChar

StartChar: C
Encoding: 67 67 13
GlifName: C_
Width: 2048
VWidth: 0
GlyphClass: 2
Flags: W
AnchorPoint: "top" 470 1637 basechar 0
AnchorPoint: "top" 1570 1645 basechar 0
LayerCount: 2
Fore
SplineSet
630.421875 1537 m 257
 71 0 l 257
 271 0 l 257
 830.421875 1537 l 257
 630.421875 1537 l 257
729.421875 1537 m 257
 656.9921875 1338 l 257
 2463.9921875 1338 l 257
 2536.421875 1537 l 257
 729.421875 1537 l 257
228.4296875 199 m 257
 156 0 l 257
 1975 0 l 257
 2047.4296875 199 l 257
 228.4296875 199 l 257
EndSplineSet
EndChar

StartChar: D
Encoding: 68 68 19
GlifName: D_
Width: 2048
VWidth: 0
GlyphClass: 2
Flags: W
AnchorPoint: "top" 294 1641 basechar 0
AnchorPoint: "top" 1410 1645 basechar 0
LayerCount: 2
Fore
SplineSet
681.42578125 1548 m 257
 118 0 l 257
 320 0 l 257
 883.42578125 1548 l 257
 681.42578125 1548 l 257
2007.42578125 1548 m 257
 1935.359375 1350 l 257
 2207.16503906 767 l 257
 2300.34179688 1023 l 257
 2007.42578125 1548 l 257
1525.15820312 201 m 257
 1452 0 l 257
 2203.89355469 769 l 257
 2296.34179688 1023 l 257
 1525.15820312 201 l 257
845.42578125 1548 m 257
 772.99609375 1349 l 257
 1934.99609375 1349 l 257
 2007.42578125 1548 l 257
 845.42578125 1548 l 257
362.793945312 200 m 257
 290 0 l 257
 1452 0 l 257
 1524.79394531 200 l 257
 362.793945312 200 l 257
EndSplineSet
EndChar

StartChar: Dcroat
Encoding: 272 272 21
GlifName: D_croat
Width: 2048
VWidth: 0
GlyphClass: 2
Flags: HW
LayerCount: 2
Fore
SplineSet
340.3125 935 m 257
 265.698242188 730 l 257
 865.698242188 730 l 257
 940.3125 935 l 257
 340.3125 935 l 257
670.42578125 1548 m 257
 107 0 l 257
 309 0 l 257
 872.42578125 1548 l 257
 670.42578125 1548 l 257
2020.42578125 1548 m 257
 1948.359375 1350 l 257
 2219.16503906 767 l 257
 2312.34179688 1023 l 257
 2020.42578125 1548 l 257
1538.15820312 201 m 257
 1465 0 l 257
 2216.89355469 769 l 257
 2309.34179688 1023 l 257
 1538.15820312 201 l 257
834.42578125 1548 m 257
 761.99609375 1349 l 257
 1947.99609375 1349 l 257
 2020.42578125 1548 l 257
 834.42578125 1548 l 257
351.793945312 200 m 257
 279 0 l 257
 1465 0 l 257
 1537.79394531 200 l 257
 351.793945312 200 l 257
EndSplineSet
EndChar

StartChar: E
Encoding: 69 69 22
GlifName: E_
Width: 2048
VWidth: 0
GlyphClass: 2
Flags: W
AnchorPoint: "base" 784 -54 basechar 0
AnchorPoint: "top" 470 1641 basechar 0
AnchorPoint: "base" 1190 -48 basechar 0
AnchorPoint: "top" 1538 1633 basechar 0
LayerCount: 2
Fore
SplineSet
675.421875 1537 m 257
 116 0 l 257
 316 0 l 257
 875.421875 1537 l 257
 675.421875 1537 l 257
753.421875 1537 m 257
 679.171875 1333 l 257
 2397.171875 1333 l 257
 2471.421875 1537 l 257
 753.421875 1537 l 257
255.885742188 203 m 257
 182 0 l 257
 1928 0 l 257
 2001.88574219 203 l 257
 255.885742188 203 l 257
505.206054688 888 m 257
 432.411132812 688 l 257
 1932.41113281 688 l 257
 2005.20605469 888 l 257
 505.206054688 888 l 257
EndSplineSet
EndChar

StartChar: Eng
Encoding: 330 330 31
GlifName: E_ng
Width: 2048
VWidth: 0
GlyphClass: 2
Flags: HW
LayerCount: 2
Fore
SplineSet
1471.20214844 -211 m 257
 1399.5 -408 l 257
 1786.5 -408 l 257
 1858.20214844 -211 l 257
 1471.20214844 -211 l 257
675.061523438 1547 m 257
 112 0 l 257
 313 0 l 257
 876.061523438 1547 l 257
 675.061523438 1547 l 257
2272.21972656 1476 m 257
 1586.5 -408 l 257
 1787.5 -408 l 257
 2473.21972656 1476 l 257
 2272.21972656 1476 l 257
649.583984375 1477 m 257
 577.881835938 1280 l 257
 2400.88183594 1280 l 257
 2472.58398438 1477 l 257
 649.583984375 1477 l 257
EndSplineSet
EndChar

StartChar: Eth
Encoding: 208 208 33
AltUni2: 000189.ffffffff.0
GlifName: E_th
Width: 2048
VWidth: 0
GlyphClass: 2
Flags: HW
LayerCount: 2
Fore
SplineSet
680.625 935 m 257
 531.396484375 730 l 257
 1007.39648438 730 l 257
 1156.625 935 l 257
 680.625 935 l 257
1233.8515625 1548 m 257
 107 0 l 257
 309 0 l 257
 1435.8515625 1548 l 257
 1233.8515625 1548 l 257
2583.8515625 1548 m 257
 2439.71875 1350 l 257
 2498.33007812 767 l 257
 2684.68359375 1023 l 257
 2583.8515625 1548 l 257
1611.31640625 201 m 257
 1465 0 l 257
 2496.78710938 769 l 257
 2681.68359375 1023 l 257
 1611.31640625 201 l 257
1397.8515625 1548 m 257
 1252.9921875 1349 l 257
 2438.9921875 1349 l 257
 2583.8515625 1548 l 257
 1397.8515625 1548 l 257
424.587890625 200 m 257
 279 0 l 257
 1465 0 l 257
 1610.58789062 200 l 257
 424.587890625 200 l 257
EndSplineSet
EndChar

StartChar: Euro
Encoding: 8364 8364 34
GlifName: E_uro
Width: 2048
VWidth: 0
GlyphClass: 2
Flags: W
LayerCount: 2
Fore
SplineSet
815.264648438 520 m 257
 761.396484375 372 l 257
 1557.39648438 372 l 257
 1611.26464844 520 l 257
 815.264648438 520 l 257
978.3125 935 m 257
 924.80859375 788 l 257
 1704.80859375 788 l 257
 1758.3125 935 l 257
 978.3125 935 l 257
1266.34179688 1023 m 257
 959.150390625 179 l 257
 1149.15039062 179 l 257
 1456.34179688 1023 l 257
 1266.34179688 1023 l 257
1806.36328125 1633 m 257
 1266.34179688 1023 l 257
 1456.34179688 1023 l 257
 1914.71679688 1601 l 257
 1806.36328125 1633 l 257
959.150390625 179 m 257
 1090.22851562 -406 l 257
 1242.22851562 -406 l 257
 1149.15039062 179 l 257
 959.150390625 179 l 257
EndSplineSet
EndChar

StartChar: F
Encoding: 70 70 35
GlifName: F_
Width: 2048
VWidth: 0
GlyphClass: 2
Flags: W
LayerCount: 2
Fore
SplineSet
716.42578125 1548 m 257
 153 0 l 257
 353 0 l 257
 916.42578125 1548 l 257
 716.42578125 1548 l 257
818.42578125 1548 m 257
 745.267578125 1347 l 257
 2379.26757812 1347 l 257
 2452.42578125 1548 l 257
 818.42578125 1548 l 257
561.473632812 875 m 257
 487.587890625 672 l 257
 2036.58789062 672 l 257
 2110.47363281 875 l 257
 561.473632812 875 l 257
EndSplineSet
EndChar

StartChar: G
Encoding: 71 71 36
GlifName: G_
Width: 2048
VWidth: 0
GlyphClass: 2
Flags: W
AnchorPoint: "base" 540 -42 basechar 0
AnchorPoint: "top" 502 1649 basechar 0
AnchorPoint: "top" 502 1649 basechar 0
LayerCount: 2
Fore
SplineSet
690.42578125 1548 m 257
 127 0 l 257
 329 0 l 257
 892.42578125 1548 l 257
 690.42578125 1548 l 257
748.42578125 1548 m 257
 675.267578125 1347 l 257
 2375.26757812 1347 l 257
 2448.42578125 1548 l 257
 748.42578125 1548 l 257
231.522460938 202 m 257
 158 0 l 257
 1921 0 l 257
 1994.52246094 202 l 257
 231.522460938 202 l 257
1926.1875 561 m 257
 1728.55175781 18 l 257
 1927.55175781 18 l 257
 2125.1875 561 l 257
 1926.1875 561 l 257
EndSplineSet
EndChar

StartChar: H
Encoding: 72 72 40
GlifName: H_
Width: 2048
VWidth: 0
GlyphClass: 2
Flags: W
AnchorPoint: "base" 744 -30 basechar 0
AnchorPoint: "top" 496 1638 basechar 0
LayerCount: 2
Fore
SplineSet
685.421875 1537 m 257
 126 0 l 257
 326 0 l 257
 885.421875 1537 l 257
 685.421875 1537 l 257
2271.421875 1537 m 257
 1712 0 l 257
 1922 0 l 257
 2481.421875 1537 l 257
 2271.421875 1537 l 257
618.341796875 1023 m 257
 543.727539062 818 l 257
 2089.72753906 818 l 257
 2164.34179688 1023 l 257
 618.341796875 1023 l 257
EndSplineSet
EndChar

StartChar: Hbar
Encoding: 294 294 41
GlifName: H_bar
Width: 2048
VWidth: 0
GlyphClass: 2
Flags: HW
LayerCount: 2
Fore
SplineSet
648.421875 1537 m 257
 89 0 l 257
 289 0 l 257
 848.421875 1537 l 257
 648.421875 1537 l 257
2258.421875 1537 m 257
 1699 0 l 257
 1909 0 l 257
 2468.421875 1537 l 257
 2258.421875 1537 l 257
581.341796875 1023 m 257
 506.727539062 818 l 257
 2076.72753906 818 l 257
 2151.34179688 1023 l 257
 581.341796875 1023 l 257
549.93359375 1434 m 257
 474.227539062 1226 l 257
 2423.22753906 1226 l 257
 2498.93359375 1434 l 257
 549.93359375 1434 l 257
EndSplineSet
EndChar

StartChar: I
Encoding: 73 73 43
GlifName: I_
Width: 2048
VWidth: 0
GlyphClass: 2
Flags: W
AnchorPoint: "base" 736 -26 basechar 0
AnchorPoint: "top" 470 1641 basechar 0
AnchorPoint: "top" 470 1641 basechar 0
LayerCount: 2
Fore
SplineSet
703.421875 1537 m 257
 629.900390625 1335 l 257
 2374.90039062 1335 l 257
 2448.421875 1537 l 257
 703.421875 1537 l 257
1509.30859375 1468 m 257
 1005.57324219 84 l 257
 1205.57324219 84 l 257
 1709.30859375 1468 l 257
 1509.30859375 1468 l 257
198.25 204 m 257
 126.18359375 6 l 257
 1926.18359375 6 l 257
 1998.25 204 l 257
 198.25 204 l 257
EndSplineSet
EndChar

StartChar: J
Encoding: 74 74 54
GlifName: J_
Width: 2048
VWidth: 0
GlyphClass: 2
Flags: W
AnchorPoint: "top" 798 1649 basechar 0
AnchorPoint: "top" 798 1649 basechar 0
LayerCount: 2
Fore
SplineSet
2267.78222656 1527 m 257
 1712 0 l 257
 1912 0 l 257
 2467.78222656 1527 l 257
 2267.78222656 1527 l 257
213.706054688 208 m 257
 138 0 l 257
 1752 0 l 257
 1827.70605469 208 l 257
 213.706054688 208 l 257
319.077148438 503 m 257
 154.926757812 52 l 257
 352.926757812 52 l 257
 517.077148438 503 l 257
 319.077148438 503 l 257
EndSplineSet
EndChar

StartChar: K
Encoding: 75 75 56
GlifName: K_
Width: 2048
VWidth: 0
GlyphClass: 2
Flags: W
AnchorPoint: "top" 524 1642 basechar 0
LayerCount: 2
Fore
SplineSet
671.421875 1537 m 257
 113.8203125 5 l 257
 314.8203125 5 l 257
 872.421875 1537 l 257
 671.421875 1537 l 257
520.606445312 999 m 257
 579.915039062 835 l 257
 2439.51074219 1529 l 257
 2172.51074219 1529 l 257
 520.606445312 999 l 257
577.448242188 798 m 257
 384.033203125 643 l 257
 1655 0 l 257
 1936 0 l 257
 577.448242188 798 l 257
EndSplineSet
EndChar

StartChar: L
Encoding: 76 76 57
GlifName: L_
Width: 2048
VWidth: 0
GlyphClass: 2
Flags: W
AnchorPoint: "top" 140 1650 basechar 0
LayerCount: 2
Fore
SplineSet
690.2421875 1542 m 257
 129 0 l 257
 327 0 l 257
 888.2421875 1542 l 257
 690.2421875 1542 l 257
311.522460938 202 m 257
 238 0 l 257
 1914 0 l 257
 1987.52246094 202 l 257
 311.522460938 202 l 257
EndSplineSet
EndChar

StartChar: Lcaron
Encoding: 317 317 59
GlifName: L_caron
Width: 2048
VWidth: 0
GlyphClass: 2
Flags: HW
LayerCount: 2
Fore
SplineSet
614.2421875 1542 m 257
 53 0 l 257
 251 0 l 257
 812.2421875 1542 l 257
 614.2421875 1542 l 257
235.522460938 202 m 257
 162 0 l 257
 1912 0 l 257
 1985.52246094 202 l 257
 235.522460938 202 l 257
991.499023438 1496 m 257
 907.05859375 1264 l 257
 1037.05859375 1264 l 257
 1121.49902344 1496 l 257
 991.499023438 1496 l 257
EndSplineSet
EndChar

StartChar: Lslash
Encoding: 321 321 61
GlifName: L_slash
Width: 2048
VWidth: 0
GlyphClass: 2
Flags: HW
LayerCount: 2
Fore
SplineSet
732.2421875 1542 m 257
 171 0 l 257
 369 0 l 257
 930.2421875 1542 l 257
 732.2421875 1542 l 257
353.522460938 202 m 257
 280 0 l 257
 2030 0 l 257
 2103.52246094 202 l 257
 353.522460938 202 l 257
344.30078125 902 m 257
 361.698242188 730 l 257
 869.220703125 932 l 257
 851.823242188 1104 l 257
 344.30078125 902 l 257
EndSplineSet
EndChar

StartChar: M
Encoding: 77 77 62
GlifName: M_
Width: 2048
VWidth: 0
GlyphClass: 2
Flags: W
AnchorPoint: "top" 532 1642 basechar 0
LayerCount: 2
Fore
SplineSet
701.42578125 1548 m 257
 138 0 l 257
 340 0 l 257
 903.42578125 1548 l 257
 701.42578125 1548 l 257
2267.421875 1537 m 257
 1708 0 l 257
 1910 0 l 257
 2469.421875 1537 l 257
 2267.421875 1537 l 257
694.11328125 1429 m 257
 1265.25292969 1031 l 257
 1453.25292969 1031 l 257
 879.42578125 1548 l 257
 694.11328125 1429 l 257
2295.421875 1537 m 257
 1260.34179688 1023 l 257
 1448.34179688 1023 l 257
 2443.58789062 1488 l 257
 2295.421875 1537 l 257
EndSplineSet
EndChar

StartChar: N
Encoding: 78 78 63
GlifName: N_
Width: 2048
VWidth: 0
GlyphClass: 2
Flags: W
AnchorPoint: "base" 820 -14 basechar 0
AnchorPoint: "top" 488 1642 basechar 0
LayerCount: 2
Fore
SplineSet
697.42578125 1548 m 257
 134 0 l 257
 338 0 l 257
 901.42578125 1548 l 257
 697.42578125 1548 l 257
2273.42578125 1548 m 257
 1710 0 l 257
 1912 0 l 257
 2475.42578125 1548 l 257
 2273.42578125 1548 l 257
697.42578125 1548 m 257
 1712 0 l 257
 1914 0 l 257
 903.42578125 1548 l 257
 697.42578125 1548 l 257
EndSplineSet
EndChar

StartChar: O
Encoding: 79 79 67
GlifName: O_
Width: 2048
VWidth: 0
GlyphClass: 2
Flags: W
AnchorPoint: "base" 832 -34 basechar 0
AnchorPoint: "top" 456 1646 basechar 0
LayerCount: 2
Fore
SplineSet
708.421875 1537 m 257
 149 0 l 257
 350 0 l 257
 909.421875 1537 l 257
 708.421875 1537 l 257
2255.421875 1537 m 257
 1696 0 l 257
 1899 0 l 257
 2458.421875 1537 l 257
 2255.421875 1537 l 257
772.421875 1537 m 257
 699.627929688 1337 l 257
 2292.62792969 1337 l 257
 2365.421875 1537 l 257
 772.421875 1537 l 257
263.25 204 m 257
 189 0 l 257
 1812 0 l 257
 1886.25 204 l 257
 263.25 204 l 257
EndSplineSet
EndChar

StartChar: OE
Encoding: 338 338 68
GlifName: O_E_
Width: 2048
VWidth: 0
GlyphClass: 2
Flags: HW
LayerCount: 2
Fore
SplineSet
674.42578125 1548 m 257
 111 0 l 257
 312 0 l 257
 875.42578125 1548 l 257
 674.42578125 1548 l 257
1578.42578125 1548 m 257
 1015 0 l 257
 1216 0 l 257
 1779.42578125 1548 l 257
 1578.42578125 1548 l 257
711.42578125 1548 m 257
 638.99609375 1349 l 257
 2394.99609375 1349 l 257
 2467.42578125 1548 l 257
 711.42578125 1548 l 257
222.793945312 200 m 257
 150 0 l 257
 1912 0 l 257
 1984.79394531 200 l 257
 222.793945312 200 l 257
1430.65039062 859 m 257
 1357.85644531 659 l 257
 2113.85644531 659 l 257
 2186.65039062 859 l 257
 1430.65039062 859 l 257
EndSplineSet
EndChar

StartChar: Oslash
Encoding: 216 216 76
GlifName: O_slash
Width: 2048
VWidth: 0
GlyphClass: 2
Flags: HW
LayerCount: 2
Fore
SplineSet
2418.73828125 1667 m 257
 18.62109375 -45 l 257
 180.051757812 -118 l 257
 2580.16894531 1594 l 257
 2418.73828125 1667 l 257
669.421875 1537 m 257
 110 0 l 257
 311 0 l 257
 870.421875 1537 l 257
 669.421875 1537 l 257
2290.421875 1537 m 257
 1731 0 l 257
 1934 0 l 257
 2493.421875 1537 l 257
 2290.421875 1537 l 257
733.421875 1537 m 257
 660.627929688 1337 l 257
 2327.62792969 1337 l 257
 2400.421875 1537 l 257
 733.421875 1537 l 257
224.25 204 m 257
 150 0 l 257
 1847 0 l 257
 1921.25 204 l 257
 224.25 204 l 257
EndSplineSet
EndChar

StartChar: P
Encoding: 80 80 78
GlifName: P_
Width: 2048
VWidth: 0
GlyphClass: 2
Flags: W
AnchorPoint: "top" 448 1642 basechar 0
LayerCount: 2
Fore
SplineSet
735.42578125 1548 m 257
 175.275390625 9 l 257
 365.275390625 9 l 257
 925.42578125 1548 l 257
 735.42578125 1548 l 257
813.42578125 1548 m 257
 739.904296875 1346 l 257
 2345.90429688 1346 l 257
 2419.42578125 1548 l 257
 813.42578125 1548 l 257
2239.42578125 1548 m 257
 1996.65820312 881 l 257
 2196.65820312 881 l 257
 2439.42578125 1548 l 257
 2239.42578125 1548 l 257
622.719726562 1068 m 257
 549.92578125 868 l 257
 2187.92578125 868 l 257
 2260.71972656 1068 l 257
 622.719726562 1068 l 257
EndSplineSet
EndChar

StartChar: Q
Encoding: 81 81 79
GlifName: Q_
Width: 2048
VWidth: 0
GlyphClass: 2
Flags: W
LayerCount: 2
Fore
SplineSet
708.421875 1537 m 257
 150.8203125 5 l 257
 349.8203125 5 l 257
 907.421875 1537 l 257
 708.421875 1537 l 257
2257.421875 1537 m 257
 1698 0 l 257
 1899 0 l 257
 2458.421875 1537 l 257
 2257.421875 1537 l 257
772.421875 1537 m 257
 699.627929688 1337 l 257
 2292.62792969 1337 l 257
 2365.421875 1537 l 257
 772.421875 1537 l 257
263.614257812 205 m 257
 189 0 l 257
 1812 0 l 257
 1886.61425781 205 l 257
 263.614257812 205 l 257
1254.64355469 21 m 257
 1329.26855469 -285 l 257
 1562.48925781 -169 l 257
 1487.86425781 137 l 257
 1254.64355469 21 l 257
EndSplineSet
EndChar

StartChar: R
Encoding: 82 82 80
GlifName: R_
Width: 2048
VWidth: 0
GlyphClass: 2
Flags: W
AnchorPoint: "top" 480 1642 basechar 0
LayerCount: 2
Fore
SplineSet
661.421875 1537 m 257
 102 0 l 257
 303 0 l 257
 862.421875 1537 l 257
 661.421875 1537 l 257
740.421875 1537 m 257
 666.900390625 1335 l 257
 2322.90039062 1335 l 257
 2396.421875 1537 l 257
 740.421875 1537 l 257
2223.421875 1537 m 257
 1981.38183594 872 l 257
 2181.38183594 872 l 257
 2423.421875 1537 l 257
 2223.421875 1537 l 257
557.723632812 1079 m 257
 480.92578125 868 l 257
 2167.92578125 868 l 257
 2244.72363281 1079 l 257
 557.723632812 1079 l 257
629.661132812 892 m 257
 1706 0 l 257
 1946 0 l 257
 828.661132812 892 l 257
 629.661132812 892 l 257
EndSplineSet
EndChar

StartChar: S
Encoding: 83 83 83
GlifName: S_
Width: 2048
VWidth: 0
GlyphClass: 2
Flags: W
AnchorPoint: "base" 528 -58 basechar 0
AnchorPoint: "top" 508 1650 basechar 0
LayerCount: 2
Fore
SplineSet
697.421875 1537 m 257
 624.264648438 1336 l 257
 2222.26464844 1336 l 257
 2295.421875 1537 l 257
 697.421875 1537 l 257
699.2421875 1542 m 257
 512.161132812 1028 l 257
 714.161132812 1028 l 257
 901.2421875 1542 l 257
 699.2421875 1542 l 257
238.4296875 199 m 257
 166 0 l 257
 1874 0 l 257
 1946.4296875 199 l 257
 238.4296875 199 l 257
1709 0 m 257
 1910 0 l 257
 2039.20898438 355 l 257
 1838.20898438 355 l 257
 1709 0 l 257
512.161132812 1028 m 257
 1838.20898438 355 l 257
 2039.20898438 355 l 257
 714.161132812 1028 l 257
 512.161132812 1028 l 257
EndSplineSet
EndChar

StartChar: T
Encoding: 84 84 88
GlifName: T_
Width: 2048
VWidth: 0
GlyphClass: 2
Flags: W
AnchorPoint: "base" 492 -54 basechar 0
AnchorPoint: "top" 516 1638 basechar 0
LayerCount: 2
Fore
SplineSet
688.42578125 1548 m 257
 615.631835938 1348 l 257
 2413.63183594 1348 l 257
 2486.42578125 1548 l 257
 688.42578125 1548 l 257
1446.66113281 1436 m 257
 926.18359375 6 l 257
 1126.18359375 6 l 257
 1646.66113281 1436 l 257
 1446.66113281 1436 l 257
EndSplineSet
EndChar

StartChar: Thorn
Encoding: 222 222 90
GlifName: T_horn
Width: 2048
VWidth: 0
GlyphClass: 2
Flags: HW
LayerCount: 2
Fore
SplineSet
673.2421875 1542 m 257
 115.275390625 9 l 257
 305.275390625 9 l 257
 863.2421875 1542 l 257
 673.2421875 1542 l 257
640.139648438 1234 m 257
 567.708984375 1035 l 257
 2247.70898438 1035 l 257
 2320.13964844 1234 l 257
 640.139648438 1234 l 257
2139.77539062 1233 m 257
 1898.09863281 569 l 257
 2098.09863281 569 l 257
 2339.77539062 1233 l 257
 2139.77539062 1233 l 257
427.956054688 684 m 257
 355.161132812 484 l 257
 2066.16113281 484 l 257
 2138.95605469 684 l 257
 427.956054688 684 l 257
EndSplineSet
EndChar

StartChar: U
Encoding: 85 85 91
GlifName: U_
Width: 2048
VWidth: 0
GlyphClass: 2
Flags: W
AnchorPoint: "base" 812 -66 basechar 0
AnchorPoint: "top" 508 1642 basechar 0
LayerCount: 2
Fore
SplineSet
715.421875 1537 m 257
 156 0 l 257
 356 0 l 257
 915.421875 1537 l 257
 715.421875 1537 l 257
2251.421875 1537 m 257
 1692 0 l 257
 1890 0 l 257
 2449.421875 1537 l 257
 2251.421875 1537 l 257
276.793945312 200 m 257
 204 0 l 257
 1848 0 l 257
 1920.79394531 200 l 257
 276.793945312 200 l 257
EndSplineSet
EndChar

StartChar: V
Encoding: 86 86 102
GlifName: V_
Width: 2048
VWidth: 0
GlyphClass: 2
Flags: W
AnchorPoint: "base" 564 -54 basechar 0
AnchorPoint: "top" 496 1642 basechar 0
LayerCount: 2
Fore
SplineSet
681.42578125 1548 m 257
 890 0 l 257
 1112 0 l 257
 883.42578125 1548 l 257
 681.42578125 1548 l 257
2291.42578125 1548 m 257
 1016 0 l 257
 1238 0 l 257
 2493.42578125 1548 l 257
 2291.42578125 1548 l 257
EndSplineSet
EndChar

StartChar: W
Encoding: 87 87 103
GlifName: W_
Width: 2048
VWidth: 0
GlyphClass: 2
Flags: W
AnchorPoint: "top" 508 1646 basechar 0
LayerCount: 2
Fore
SplineSet
667.42578125 1548 m 257
 104 0 l 257
 304 0 l 257
 867.42578125 1548 l 257
 667.42578125 1548 l 257
2307.42578125 1548 m 257
 1748.3671875 12 l 257
 1950.3671875 12 l 257
 2509.42578125 1548 l 257
 2307.42578125 1548 l 257
1300.16113281 1028 m 257
 926 0 l 257
 1128 0 l 257
 1502.16113281 1028 l 257
 1300.16113281 1028 l 257
175.158203125 201 m 257
 102 0 l 257
 1946 0 l 257
 2019.15820312 201 l 257
 175.158203125 201 l 257
EndSplineSet
EndChar

StartChar: X
Encoding: 88 88 108
GlifName: X_
Width: 2048
VWidth: 0
GlyphClass: 2
Flags: W
LayerCount: 2
Fore
SplineSet
645.42578125 1548 m 257
 1766 0 l 257
 1966 0 l 257
 844.42578125 1548 l 257
 645.42578125 1548 l 257
87.18359375 6 m 257
 288.18359375 6 l 257
 2521.42578125 1548 l 257
 2322.42578125 1548 l 257
 87.18359375 6 l 257
EndSplineSet
EndChar

StartChar: Y
Encoding: 89 89 109
GlifName: Y_
Width: 2048
VWidth: 0
GlyphClass: 2
Flags: W
AnchorPoint: "base" 508 -70 basechar 0
AnchorPoint: "top" 524 1638 basechar 0
LayerCount: 2
Fore
SplineSet
1240.48144531 897 m 257
 914 0 l 257
 1116 0 l 257
 1442.48144531 897 l 257
 1240.48144531 897 l 257
673.42578125 1548 m 257
 422.650390625 859 l 257
 622.650390625 859 l 257
 873.42578125 1548 l 257
 673.42578125 1548 l 257
2301.42578125 1548 m 257
 2050.65039062 859 l 257
 2250.65039062 859 l 257
 2501.42578125 1548 l 257
 2301.42578125 1548 l 257
550.341796875 1023 m 257
 490.650390625 859 l 257
 2160.65039062 859 l 257
 2220.34179688 1023 l 257
 550.341796875 1023 l 257
EndSplineSet
EndChar

StartChar: Z
Encoding: 90 90 114
GlifName: Z_
Width: 2048
VWidth: 0
GlyphClass: 2
Flags: W
AnchorPoint: "base" 560 -46 basechar 0
AnchorPoint: "top" 496 1646 basechar 0
LayerCount: 2
Fore
SplineSet
670.42578125 1548 m 257
 593.264648438 1336 l 257
 2427.26464844 1336 l 257
 2504.42578125 1548 l 257
 670.42578125 1548 l 257
185.162109375 212 m 257
 108 0 l 257
 1936 0 l 257
 2013.16210938 212 l 257
 185.162109375 212 l 257
2165.90039062 1335 m 257
 184.797851562 211 l 257
 391.797851562 211 l 257
 2410.90039062 1335 l 257
 2165.90039062 1335 l 257
EndSplineSet
EndChar

StartChar: a
Encoding: 97 97 118
GlifName: a
Width: 2048
VWidth: 0
GlyphClass: 2
Flags: W
AnchorPoint: "base" 752 -62 basechar 0
AnchorPoint: "top" 500 1134 basechar 0
LayerCount: 2
Fore
SplineSet
550.341796875 1023 m 257
 477.911132812 824 l 257
 2083.91113281 824 l 257
 2156.34179688 1023 l 257
 550.341796875 1023 l 257
2043.34179688 1023 m 257
 1671 0 l 257
 1865 0 l 257
 2237.34179688 1023 l 257
 2043.34179688 1023 l 257
400.018554688 599 m 257
 327.587890625 400 l 257
 1951.58789062 400 l 257
 2024.01855469 599 l 257
 400.018554688 599 l 257
391.283203125 575 m 257
 182 0 l 257
 383 0 l 257
 592.283203125 575 l 257
 391.283203125 575 l 257
253.158203125 201 m 257
 180 0 l 257
 1870 0 l 257
 1943.15820312 201 l 257
 253.158203125 201 l 257
EndSplineSet
EndChar

StartChar: acute
Encoding: 180 180 122
GlifName: acute
Width: 2048
VWidth: 0
GlyphClass: 2
Flags: W
LayerCount: 2
Fore
SplineSet
1088.33789062 1556 m 257
 865.889648438 1302 l 257
 937.146484375 1256 l 257
 1160.95898438 1511 l 257
 1088.33789062 1556 l 257
EndSplineSet
EndChar

StartChar: acutecomb
Encoding: 769 769 123
GlifName: acutecomb
Width: 0
VWidth: 0
GlyphClass: 2
AnchorPoint: "top" 466 1888 mark 0
AnchorPoint: "top" 1186 544 mark 0
LayerCount: 2
Fore
SplineSet
1400.69042969 980 m 257
 1178.2421875 726 l 257
 1249.5 680 l 257
 1474.3125 935 l 257
 1400.69042969 980 l 257
EndSplineSet
EndChar

StartChar: ae
Encoding: 230 230 125
GlifName: ae
Width: 2048
VWidth: 0
GlyphClass: 2
Flags: HW
LayerCount: 2
Fore
SplineSet
420.341796875 1023 m 257
 347.911132812 824 l 257
 2190.91113281 824 l 257
 2263.34179688 1023 l 257
 420.341796875 1023 l 257
1333.34179688 1023 m 257
 961 0 l 257
 1155 0 l 257
 1527.34179688 1023 l 257
 1333.34179688 1023 l 257
289.018554688 599 m 257
 216.587890625 400 l 257
 2037.58789062 400 l 257
 2110.01855469 599 l 257
 289.018554688 599 l 257
280.283203125 575 m 257
 71 0 l 257
 272 0 l 257
 481.283203125 575 l 257
 280.283203125 575 l 257
142.158203125 201 m 257
 69 0 l 257
 2013 0 l 257
 2086.15820312 201 l 257
 142.158203125 201 l 257
2169.34179688 1023 m 257
 1942.58789062 400 l 257
 2137.58789062 400 l 257
 2364.34179688 1023 l 257
 2169.34179688 1023 l 257
EndSplineSet
EndChar

StartChar: ampersand
Encoding: 38 38 128
GlifName: ampersand
Width: 2048
VWidth: 0
GlyphClass: 2
Flags: W
LayerCount: 2
Fore
SplineSet
1331.421875 1537 m 257
 1224.3671875 12 l 257
 1386.3828125 56 l 257
 1493.421875 1537 l 257
 1331.421875 1537 l 257
1825.921875 1401 m 257
 1875.421875 1537 l 257
 1409.421875 1537 l 257
 1359.921875 1401 l 257
 1825.921875 1401 l 257
1682.30078125 1446 m 257
 1489.76074219 917 l 257
 1649.76074219 917 l 257
 1842.30078125 1446 l 257
 1682.30078125 1446 l 257
1000.34863281 1045 m 257
 926.827148438 843 l 257
 1622.82714844 843 l 257
 1696.34863281 1045 l 257
 1000.34863281 1045 l 257
1000.34863281 1045 m 257
 628.735351562 24 l 257
 838.735351562 24 l 257
 1210.34863281 1045 l 257
 1000.34863281 1045 l 257
689.154296875 190 m 257
 622.18359375 6 l 257
 1430.18359375 6 l 257
 1497.15429688 190 l 257
 689.154296875 190 l 257
EndSplineSet
EndChar

StartChar: asciicircum
Encoding: 94 94 131
GlifName: asciicircum
Width: 2048
VWidth: 0
GlyphClass: 2
Flags: W
LayerCount: 2
Fore
SplineSet
1472.34179688 1023 m 257
 1322.34179688 1023 l 257
 834.135742188 407 l 257
 961.569335938 345 l 257
 1472.34179688 1023 l 257
1285.02929688 904 m 257
 1336.84179688 343 l 257
 1507.58789062 400 l 257
 1472.34179688 1023 l 257
 1285.02929688 904 l 257
EndSplineSet
EndChar

StartChar: asciitilde
Encoding: 126 126 132
GlifName: asciitilde
Width: 2048
VWidth: 0
GlyphClass: 2
Flags: W
LayerCount: 2
Fore
SplineSet
1174.63574219 815 m 257
 1138.60253906 716 l 257
 1466.40039062 655 l 257
 1502.43359375 754 l 257
 1174.63574219 815 l 257
915.525390625 757 m 257
 893.856445312 659 l 257
 1138.60253906 716 l 257
 1174.63574219 815 l 257
 915.525390625 757 l 257
1502.43359375 754 m 257
 1466.40039062 655 l 257
 1697.72070312 796 l 257
 1708.66113281 892 l 257
 1502.43359375 754 l 257
EndSplineSet
EndChar

StartChar: asterisk
Encoding: 42 42 133
GlifName: asterisk
Width: 2048
VWidth: 0
GlyphClass: 2
Flags: W
LayerCount: 2
Fore
SplineSet
1406.06933594 1297 m 257
 1043.19140625 300 l 257
 1273.19140625 300 l 257
 1636.06933594 1297 l 257
 1406.06933594 1297 l 257
977.002929688 1099 m 257
 1436.02929688 360 l 257
 1647.44140625 504 l 257
 1183.6875 1241 l 257
 977.002929688 1099 l 257
1777.41113281 1232 m 257
 797.083984375 525 l 257
 883.396484375 372 l 257
 1863.72363281 1079 l 257
 1777.41113281 1232 l 257
EndSplineSet
EndChar

StartChar: at
Encoding: 64 64 134
GlifName: at
Width: 2048
VWidth: 0
GlyphClass: 2
Flags: W
LayerCount: 2
Fore
SplineSet
985.341796875 1023 m 257
 932.9296875 879 l 257
 1751.9296875 879 l 257
 1804.34179688 1023 l 257
 985.341796875 1023 l 257
1364.47070312 592 m 257
 1149 0 l 257
 1302 0 l 257
 1517.47070312 592 l 257
 1364.47070312 592 l 257
1034.38183594 600 m 257
 977.602539062 444 l 257
 1402.60253906 444 l 257
 1459.38183594 600 l 257
 1034.38183594 600 l 257
1027.37890625 589 m 257
 817.3671875 12 l 257
 991.3671875 12 l 257
 1201.37890625 589 l 257
 1027.37890625 589 l 257
879.426757812 188 m 257
 811 0 l 257
 1305 0 l 257
 1373.42675781 188 l 257
 879.426757812 188 l 257
897.341796875 1023 m 257
 443.834960938 -223 l 257
 619.834960938 -223 l 257
 1073.34179688 1023 l 257
 897.341796875 1023 l 257
491.698242188 -86 m 257
 429.095703125 -258 l 257
 1377.09570312 -258 l 257
 1439.69824219 -86 l 257
 491.698242188 -86 l 257
1741.97363281 1011 m 257
 1374 0 l 257
 1525 0 l 257
 1892.97363281 1011 l 257
 1741.97363281 1011 l 257
1309.69433594 175 m 257
 1246 0 l 257
 1455 0 l 257
 1518.69433594 175 l 257
 1309.69433594 175 l 257
EndSplineSet
EndChar

StartChar: b
Encoding: 98 98 136
GlifName: b
Width: 2048
VWidth: 0
GlyphClass: 2
Flags: W
AnchorPoint: "top" 220 1646 basechar 0
LayerCount: 2
Fore
SplineSet
702.421875 1537 m 257
 143 0 l 257
 342 0 l 257
 901.421875 1537 l 257
 702.421875 1537 l 257
615.981445312 1033 m 257
 543.55078125 834 l 257
 2069.55078125 834 l 257
 2141.98144531 1033 l 257
 615.981445312 1033 l 257
2081.98144531 1033 m 257
 1706 0 l 257
 1905 0 l 257
 2280.98144531 1033 l 257
 2081.98144531 1033 l 257
343.341796875 207 m 257
 268 0 l 257
 1826 0 l 257
 1901.34179688 207 l 257
 343.341796875 207 l 257
EndSplineSet
EndChar

StartChar: backslash
Encoding: 92 92 137
GlifName: backslash
Width: 2048
VWidth: 0
GlyphClass: 2
Flags: W
LayerCount: 2
Fore
SplineSet
1139.48144531 1441 m 257
 1237.26855469 -13 l 257
 1456.65820312 65 l 257
 1359.87109375 1519 l 257
 1139.48144531 1441 l 257
EndSplineSet
EndChar

StartChar: bar
Encoding: 124 124 138
GlifName: bar
Width: 2048
VWidth: 0
GlyphClass: 2
Flags: W
LayerCount: 2
Fore
SplineSet
1444.296875 1435 m 257
 889.243164062 -90 l 257
 1093.24316406 -90 l 257
 1648.296875 1435 l 257
 1444.296875 1435 l 257
EndSplineSet
EndChar

StartChar: braceleft
Encoding: 123 123 139
GlifName: braceleft
Width: 2048
VWidth: 0
GlyphClass: 2
Flags: W
LayerCount: 2
Fore
SplineSet
1587.42578125 1548 m 257
 1329.00683594 838 l 257
 1475.00683594 838 l 257
 1733.42578125 1548 l 257
 1587.42578125 1548 l 257
1190.32324219 424 m 257
 931.904296875 -286 l 257
 1077.90429688 -286 l 257
 1336.32324219 424 l 257
 1190.32324219 424 l 257
986.139648438 690 m 257
 964.30078125 630 l 257
 1475.00683594 838 l 257
 1329.00683594 838 l 257
 986.139648438 690 l 257
986.139648438 690 m 257
 964.30078125 630 l 257
 1188.6875 425 l 257
 1337.6875 425 l 257
 986.139648438 690 l 257
1608.44433594 1603 m 257
 1553.484375 1452 l 257
 1865.88867188 1574 l 257
 1880.44433594 1603 l 257
 1608.44433594 1603 l 257
986.043945312 -140 m 257
 932.541015625 -287 l 257
 1208.54101562 -287 l 257
 1213.27246094 -274 l 257
 986.043945312 -140 l 257
EndSplineSet
EndChar

StartChar: braceright
Encoding: 125 125 140
GlifName: braceright
Width: 2048
VWidth: 0
GlyphClass: 2
Flags: W
LayerCount: 2
Fore
SplineSet
1603.42578125 1548 m 257
 1441.42578125 1548 l 257
 1183.00683594 838 l 257
 1341.00683594 838 l 257
 1603.42578125 1548 l 257
1180.32324219 424 m 257
 1020.32324219 424 l 257
 761.904296875 -286 l 257
 921.904296875 -286 l 257
 1180.32324219 424 l 257
1564.13964844 690 m 257
 1340.00683594 838 l 257
 1179.00683594 838 l 257
 1542.30078125 630 l 257
 1564.13964844 690 l 257
1564.13964844 690 m 257
 1020.32324219 424 l 257
 1180.32324219 424 l 257
 1542.30078125 630 l 257
 1564.13964844 690 l 257
1624.44433594 1603 m 257
 1349.44433594 1603 l 257
 1342.88867188 1574 l 257
 1566.484375 1452 l 257
 1624.44433594 1603 l 257
960.043945312 -140 m 257
 635.272460938 -274 l 257
 631.6328125 -284 l 257
 907.6328125 -284 l 257
 960.043945312 -140 l 257
EndSplineSet
EndChar

StartChar: bracketleft
Encoding: 91 91 141
GlifName: bracketleft
Width: 2048
VWidth: 0
GlyphClass: 2
Flags: W
LayerCount: 2
Fore
SplineSet
1451.2421875 1542 m 257
 801.918945312 -242 l 257
 923.918945312 -242 l 257
 1573.2421875 1542 l 257
 1451.2421875 1542 l 257
1505.60644531 1543 m 257
 1459.38183594 1416 l 257
 1668.38183594 1416 l 257
 1714.60644531 1543 l 257
 1505.60644531 1543 l 257
910.87890625 -91 m 257
 855.918945312 -242 l 257
 1069.91894531 -242 l 257
 1124.87890625 -91 l 257
 910.87890625 -91 l 257
EndSplineSet
EndChar

StartChar: bracketright
Encoding: 93 93 142
GlifName: bracketright
Width: 2048
VWidth: 0
GlyphClass: 2
Flags: W
LayerCount: 2
Fore
SplineSet
1597.2421875 1542 m 257
 947.918945312 -242 l 257
 1069.91894531 -242 l 257
 1719.2421875 1542 l 257
 1597.2421875 1542 l 257
1447.60644531 1543 m 257
 1401.38183594 1416 l 257
 1609.38183594 1416 l 257
 1655.60644531 1543 l 257
 1447.60644531 1543 l 257
852.87890625 -91 m 257
 797.918945312 -242 l 257
 1011.91894531 -242 l 257
 1066.87890625 -91 l 257
 852.87890625 -91 l 257
EndSplineSet
EndChar

StartChar: breve
Encoding: 728 728 143
GlifName: breve
Width: 2048
VWidth: 0
GlyphClass: 2
Flags: W
LayerCount: 2
Fore
SplineSet
1665.42578125 1548 m 257
 1640.67578125 1480 l 257
 1830.42578125 1548 l 257
 1865.73144531 1645 l 257
 1665.42578125 1548 l 257
1341.42578125 1548 m 257
 1316.67578125 1480 l 257
 1640.67578125 1480 l 257
 1665.42578125 1548 l 257
 1341.42578125 1548 l 257
1200.27148438 1630 m 257
 1170.42578125 1548 l 257
 1316.67578125 1480 l 257
 1341.42578125 1548 l 257
 1200.27148438 1630 l 257
EndSplineSet
EndChar

StartChar: brokenbar
Encoding: 166 166 144
GlifName: brokenbar
Width: 2048
VWidth: 0
GlyphClass: 2
Flags: W
LayerCount: 2
Fore
SplineSet
846.162109375 -332 m 257
 956.162109375 -332 l 257
 1325.22753906 682 l 257
 1215.22753906 682 l 257
 846.162109375 -332 l 257
1257.53613281 790 m 257
 1368.53613281 790 l 257
 1676.45507812 1636 l 257
 1565.45507812 1636 l 257
 1257.53613281 790 l 257
EndSplineSet
EndChar

StartChar: bullet
Encoding: 8226 8226 145
GlifName: bullet
Width: 2048
VWidth: 0
GlyphClass: 2
Flags: W
LayerCount: 2
Fore
SplineSet
1254.34179688 1023 m 257
 1160.4375 765 l 257
 1444.4375 765 l 257
 1538.34179688 1023 l 257
 1254.34179688 1023 l 257
EndSplineSet
EndChar

StartChar: c
Encoding: 99 99 146
GlifName: c
Width: 2048
VWidth: 0
GlyphClass: 2
Flags: W
AnchorPoint: "top" 492 1162 basechar 0
LayerCount: 2
Fore
SplineSet
543.341796875 1023 m 257
 471.639648438 826 l 257
 2177.63964844 826 l 257
 2249.34179688 1023 l 257
 543.341796875 1023 l 257
531.146484375 984 m 257
 173 0 l 257
 375 0 l 257
 733.146484375 984 l 257
 531.146484375 984 l 257
352.158203125 201 m 257
 279 0 l 257
 1871 0 l 257
 1944.15820312 201 l 257
 352.158203125 201 l 257
EndSplineSet
EndChar

StartChar: caron
Encoding: 711 711 148
GlifName: caron
Width: 2048
VWidth: 0
GlyphClass: 2
Flags: W
LayerCount: 2
Fore
SplineSet
1400.47753906 1158 m 257
 1393.47753906 1430 l 257
 1324.37792969 1405 l 257
 1340.47753906 1158 l 257
 1400.47753906 1158 l 257
1359.94824219 1206 m 257
 1400.47753906 1158 l 257
 1596.46972656 1408 l 257
 1544.47753906 1430 l 257
 1359.94824219 1206 l 257
EndSplineSet
EndChar

StartChar: cedilla
Encoding: 184 184 153
GlifName: cedilla
Width: 2048
VWidth: 0
GlyphClass: 2
Flags: W
LayerCount: 2
Fore
SplineSet
867.334960938 185 m 257
 749.408203125 -139 l 257
 905.408203125 -139 l 257
 1023.33496094 185 l 257
 867.334960938 185 l 257
698.99609375 -283 m 257
 654.228515625 -406 l 257
 1100.22851562 -406 l 257
 1144.99609375 -283 l 257
 698.99609375 -283 l 257
1097.8203125 5 m 257
 962.422851562 -367 l 257
 1114.42285156 -367 l 257
 1249.8203125 5 l 257
 1097.8203125 5 l 257
803.8203125 5 m 257
 747.040039062 -151 l 257
 1193.04003906 -151 l 257
 1249.8203125 5 l 257
 803.8203125 5 l 257
EndSplineSet
EndChar

StartChar: cent
Encoding: 162 162 154
GlifName: cent
Width: 2048
VWidth: 0
GlyphClass: 2
Flags: W
LayerCount: 2
Fore
SplineSet
1633.57714844 1183 m 257
 1486.57714844 1183 l 257
 1024.69824219 -86 l 257
 1171.69824219 -86 l 257
 1633.57714844 1183 l 257
1048.34179688 1023 m 257
 976.639648438 826 l 257
 1672.63964844 826 l 257
 1744.34179688 1023 l 257
 1048.34179688 1023 l 257
1036.14648438 984 m 257
 678 0 l 257
 880 0 l 257
 1238.14648438 984 l 257
 1036.14648438 984 l 257
857.158203125 201 m 257
 784 0 l 257
 1366 0 l 257
 1439.15820312 201 l 257
 857.158203125 201 l 257
EndSplineSet
EndChar

StartChar: circumflex
Encoding: 710 710 155
GlifName: circumflex
Width: 2048
VWidth: 0
GlyphClass: 2
Flags: W
LayerCount: 2
Fore
SplineSet
1557.43359375 1298 m 257
 1497.43359375 1298 l 257
 1301.53320312 1051 l 257
 1352.43359375 1026 l 257
 1557.43359375 1298 l 257
1481.96289062 1250 m 257
 1504.43359375 1026 l 257
 1572.44042969 1048 l 257
 1557.43359375 1298 l 257
 1481.96289062 1250 l 257
EndSplineSet
EndChar

StartChar: colon
Encoding: 58 58 156
GlifName: colon
Width: 2048
VWidth: 0
GlyphClass: 2
Flags: W
LayerCount: 2
Fore
SplineSet
1068.50683594 430 m 257
 985.158203125 201 l 257
 1233.15820312 201 l 257
 1316.50683594 430 l 257
 1068.50683594 430 l 257
1358.97753906 1294 m 257
 1269.07714844 1047 l 257
 1535.07714844 1047 l 257
 1624.97753906 1294 l 257
 1358.97753906 1294 l 257
EndSplineSet
EndChar

StartChar: comma
Encoding: 44 44 157
GlifName: comma
Width: 2048
VWidth: 0
GlyphClass: 2
Flags: W
LayerCount: 2
Fore
SplineSet
996.260742188 237 m 257
 912.912109375 8 l 257
 1160.91210938 8 l 257
 1244.26074219 237 l 257
 996.260742188 237 l 257
1057.13574219 135 m 257
 836.860351562 -146 l 257
 959.022460938 -206 l 257
 1156 0 l 257
 1057.13574219 135 l 257
EndSplineSet
EndChar

StartChar: copyright
Encoding: 169 169 158
GlifName: copyright
Width: 2048
VWidth: 0
GlyphClass: 2
Flags: W
LayerCount: 2
Fore
SplineSet
583.421875 1537 m 257
 24 0 l 257
 224 0 l 257
 783.421875 1537 l 257
 583.421875 1537 l 257
2381.421875 1537 m 257
 1822 0 l 257
 2024 0 l 257
 2583.421875 1537 l 257
 2381.421875 1537 l 257
693.421875 1537 m 257
 620.627929688 1337 l 257
 2310.62792969 1337 l 257
 2383.421875 1537 l 257
 693.421875 1537 l 257
232.25 204 m 257
 158 0 l 257
 1830 0 l 257
 1904.25 204 l 257
 232.25 204 l 257
705.672851562 1197 m 257
 632.514648438 996 l 257
 2066.51464844 996 l 257
 2139.67285156 1197 l 257
 705.672851562 1197 l 257
690.021484375 1154 m 257
 393.75 340 l 257
 563.75 340 l 257
 860.021484375 1154 l 257
 690.021484375 1154 l 257
450.165039062 495 m 257
 377.006835938 294 l 257
 1817.00683594 294 l 257
 1890.16503906 495 l 257
 450.165039062 495 l 257
EndSplineSet
EndChar

StartChar: currency
Encoding: 164 164 159
GlifName: currency
Width: 2048
VWidth: 0
GlyphClass: 2
Flags: W
LayerCount: 2
Fore
SplineSet
553.4921875 1202 m 257
 181.514648438 180 l 257
 381.514648438 180 l 257
 753.4921875 1202 l 257
 553.4921875 1202 l 257
2169.21972656 1204 m 257
 1796.51464844 180 l 257
 1998.51464844 180 l 257
 2371.21972656 1204 l 257
 2169.21972656 1204 l 257
677.219726562 1204 m 257
 603.698242188 1002 l 257
 2189.69824219 1002 l 257
 2263.21972656 1204 l 257
 677.219726562 1204 l 257
381.30859375 380 m 257
 308.87890625 181 l 257
 1880.87890625 181 l 257
 1953.30859375 380 l 257
 381.30859375 380 l 257
551.3671875 1372 m 257
 461.466796875 1125 l 257
 727.466796875 1125 l 257
 817.3671875 1372 l 257
 551.3671875 1372 l 257
2229.00292969 1371 m 257
 2139.10253906 1124 l 257
 2405.10253906 1124 l 257
 2495.00292969 1371 l 257
 2229.00292969 1371 l 257
148.271484375 270 m 257
 58.37109375 23 l 257
 324.37109375 23 l 257
 414.271484375 270 l 257
 148.271484375 270 l 257
1833.54785156 279 m 257
 1743.64746094 32 l 257
 2009.64746094 32 l 257
 2099.54785156 279 l 257
 1833.54785156 279 l 257
EndSplineSet
EndChar

StartChar: d
Encoding: 100 100 160
GlifName: d
Width: 2048
VWidth: 0
GlyphClass: 2
Flags: W
AnchorPoint: "top" 824 1642 basechar 0
LayerCount: 2
Fore
SplineSet
2259.78222656 1527 m 257
 1704 0 l 257
 1904 0 l 257
 2459.78222656 1527 l 257
 2259.78222656 1527 l 257
612.341796875 1023 m 257
 539.18359375 822 l 257
 2091.18359375 822 l 257
 2164.34179688 1023 l 257
 612.341796875 1023 l 257
516.341796875 1023 m 257
 144 0 l 257
 344 0 l 257
 716.341796875 1023 l 257
 516.341796875 1023 l 257
310.974609375 195 m 257
 240 0 l 257
 1856 0 l 257
 1926.97460938 195 l 257
 310.974609375 195 l 257
EndSplineSet
EndChar

StartChar: dagger
Encoding: 8224 8224 161
GlifName: dagger
Width: 2048
VWidth: 0
GlyphClass: 2
Flags: W
LayerCount: 2
Fore
SplineSet
1176.32714844 1251 m 257
 1116.27148438 1086 l 257
 1722.27148438 1086 l 257
 1782.32714844 1251 l 257
 1176.32714844 1251 l 257
1508.42578125 1548 m 257
 945 0 l 257
 1090 0 l 257
 1653.42578125 1548 l 257
 1508.42578125 1548 l 257
EndSplineSet
EndChar

StartChar: daggerdbl
Encoding: 8225 8225 162
GlifName: daggerdbl
Width: 2048
VWidth: 0
GlyphClass: 2
Flags: W
LayerCount: 2
Fore
SplineSet
1062.04003906 937 m 257
 1001.98535156 772 l 257
 1607.98535156 772 l 257
 1668.04003906 937 l 257
 1062.04003906 937 l 257
1176.32714844 1251 m 257
 1116.27148438 1086 l 257
 1722.27148438 1086 l 257
 1782.32714844 1251 l 257
 1176.32714844 1251 l 257
1508.42578125 1548 m 257
 945 0 l 257
 1090 0 l 257
 1653.42578125 1548 l 257
 1508.42578125 1548 l 257
EndSplineSet
EndChar

StartChar: dcaron
Encoding: 271 271 163
GlifName: dcaron
Width: 2048
VWidth: 0
GlyphClass: 2
Flags: HW
LayerCount: 2
Fore
SplineSet
2192.78222656 1527 m 257
 1637 0 l 257
 1838 0 l 257
 2393.78222656 1527 l 257
 2192.78222656 1527 l 257
521.341796875 1023 m 257
 448.18359375 822 l 257
 2025.18359375 822 l 257
 2098.34179688 1023 l 257
 521.341796875 1023 l 257
425.341796875 1023 m 257
 53 0 l 257
 254 0 l 257
 626.341796875 1023 l 257
 425.341796875 1023 l 257
219.974609375 195 m 257
 149 0 l 257
 1790 0 l 257
 1860.97460938 195 l 257
 219.974609375 195 l 257
2428.49902344 1496 m 257
 2344.05859375 1264 l 257
 2474.05859375 1264 l 257
 2558.49902344 1496 l 257
 2428.49902344 1496 l 257
EndSplineSet
EndChar

StartChar: dcroat
Encoding: 273 273 164
GlifName: dcroat
Width: 2048
VWidth: 0
GlyphClass: 2
Flags: HW
LayerCount: 2
Fore
SplineSet
2271.78222656 1527 m 257
 1716 0 l 257
 1917 0 l 257
 2472.78222656 1527 l 257
 2271.78222656 1527 l 257
600.341796875 1023 m 257
 527.18359375 822 l 257
 2104.18359375 822 l 257
 2177.34179688 1023 l 257
 600.341796875 1023 l 257
504.341796875 1023 m 257
 132 0 l 257
 333 0 l 257
 705.341796875 1023 l 257
 504.341796875 1023 l 257
298.974609375 195 m 257
 228 0 l 257
 1869 0 l 257
 1939.97460938 195 l 257
 298.974609375 195 l 257
2089.65039062 1403 m 257
 2016.4921875 1202 l 257
 2460.4921875 1202 l 257
 2533.65039062 1403 l 257
 2089.65039062 1403 l 257
EndSplineSet
EndChar

StartChar: degree
Encoding: 176 176 165
GlifName: degree
Width: 2048
VWidth: 0
GlyphClass: 2
Flags: W
LayerCount: 2
Fore
SplineSet
1478.94042969 1456 m 257
 1626.94042969 1456 l 257
 1579.625 1326 l 257
 1431.625 1326 l 257
 1478.94042969 1456 l 257
1407.42578125 1548 m 257
 1294.59472656 1238 l 257
 1654.59472656 1238 l 257
 1767.42578125 1548 l 257
 1407.42578125 1548 l 257
EndSplineSet
EndChar

StartChar: dieresis
Encoding: 168 168 166
GlifName: dieresis
Width: 2048
VWidth: 0
GlyphClass: 2
Flags: W
LayerCount: 2
Fore
SplineSet
1093.79394531 1016 m 257
 1038.83398438 865 l 257
 1206.83398438 865 l 257
 1261.79394531 1016 l 257
 1093.79394531 1016 l 257
1457.79394531 1016 m 257
 1402.83398438 865 l 257
 1570.83398438 865 l 257
 1625.79394531 1016 l 257
 1457.79394531 1016 l 257
EndSplineSet
EndChar

StartChar: divide
Encoding: 247 247 167
GlifName: divide
Width: 2048
VWidth: 0
GlyphClass: 2
Flags: HW
LayerCount: 2
Fore
SplineSet
1068.50683594 430 m 257
 985.158203125 201 l 257
 1233.15820312 201 l 257
 1316.50683594 430 l 257
 1068.50683594 430 l 257
1358.97753906 1294 m 257
 1269.07714844 1047 l 257
 1535.07714844 1047 l 257
 1624.97753906 1294 l 257
 1358.97753906 1294 l 257
905.087890625 808 m 257
 829.381835938 600 l 257
 1655.38183594 600 l 257
 1731.08789062 808 l 257
 905.087890625 808 l 257
EndSplineSet
EndChar

StartChar: dollar
Encoding: 36 36 168
GlifName: dollar
Width: 2048
VWidth: 0
GlyphClass: 2
Flags: W
LayerCount: 2
Fore
SplineSet
1197.421875 1537 m 257
 1132.27148438 1358 l 257
 1730.27148438 1358 l 257
 1795.421875 1537 l 257
 1197.421875 1537 l 257
1199.2421875 1542 m 257
 1012.16113281 1028 l 257
 1217.16113281 1028 l 257
 1404.2421875 1542 l 257
 1199.2421875 1542 l 257
725.327148438 163 m 257
 666 0 l 257
 1374 0 l 257
 1433.32714844 163 l 257
 725.327148438 163 l 257
1204 0 m 257
 1410 0 l 257
 1539.20898438 355 l 257
 1333.20898438 355 l 257
 1204 0 l 257
1012.16113281 1028 m 257
 1333.20898438 355 l 257
 1539.20898438 355 l 257
 1217.16113281 1028 l 257
 1012.16113281 1028 l 257
1492.45507812 1636 m 257
 818.74609375 -215 l 257
 1032.74609375 -215 l 257
 1706.45507812 1636 l 257
 1492.45507812 1636 l 257
EndSplineSet
EndChar

StartChar: dotaccent
Encoding: 729 729 169
GlifName: dotaccent
Width: 2048
VWidth: 0
GlyphClass: 2
Flags: W
LayerCount: 2
Fore
SplineSet
1280.34179688 1023 m 257
 1245.03613281 926 l 257
 1357.03613281 926 l 257
 1392.34179688 1023 l 257
 1280.34179688 1023 l 257
EndSplineSet
EndChar

StartChar: dotbelowcomb
Encoding: 803 803 170
GlifName: dotbelowcomb
Width: 0
VWidth: 0
GlyphClass: 2
AnchorPoint: "base" 498 -187 mark 0
AnchorPoint: "base" 498 -187 mark 0
LayerCount: 2
Fore
SplineSet
305.75 -204 m 257
 215.849609375 -451 l 257
 479.849609375 -451 l 257
 569.75 -204 l 257
 305.75 -204 l 257
EndSplineSet
EndChar

StartChar: dotlessi
Encoding: 305 305 171
GlifName: dotlessi
Width: 2048
VWidth: 0
GlyphClass: 2
Flags: W
AnchorPoint: "base" 1182 -9 basechar 0
AnchorPoint: "top" 999 1200 basechar 0
AnchorPoint: "base" 1182 -9 basechar 0
AnchorPoint: "top" 999 1200 basechar 0
LayerCount: 2
Fore
SplineSet
1293.52148438 1018 m 257
 973.591796875 139 l 257
 1175.59179688 139 l 257
 1495.52148438 1018 l 257
 1293.52148438 1018 l 257
227.25 204 m 257
 155.18359375 6 l 257
 1897.18359375 6 l 257
 1969.25 204 l 257
 227.25 204 l 257
573.521484375 1018 m 257
 500.727539062 818 l 257
 1376.72753906 818 l 257
 1449.52148438 1018 l 257
 573.521484375 1018 l 257
EndSplineSet
EndChar

StartChar: e
Encoding: 101 101 172
GlifName: e
Width: 2048
VWidth: 0
GlyphClass: 2
Flags: W
AnchorPoint: "base" 792 -18 basechar 0
AnchorPoint: "top" 512 1166 basechar 0
LayerCount: 2
Fore
SplineSet
602.341796875 1023 m 257
 525.543945312 812 l 257
 2159.54394531 812 l 257
 2236.34179688 1023 l 257
 602.341796875 1023 l 257
552.341796875 1023 m 257
 180 0 l 257
 382 0 l 257
 754.341796875 1023 l 257
 552.341796875 1023 l 257
355.158203125 201 m 257
 282 0 l 257
 1864 0 l 257
 1937.15820312 201 l 257
 355.158203125 201 l 257
477.481445312 625 m 257
 412.331054688 446 l 257
 2002.33105469 446 l 257
 2067.48144531 625 l 257
 477.481445312 625 l 257
2029.42285156 993 m 257
 1829.96679688 445 l 257
 2023.96679688 445 l 257
 2223.42285156 993 l 257
 2029.42285156 993 l 257
EndSplineSet
EndChar

StartChar: eight
Encoding: 56 56 180
GlifName: eight
Width: 2048
VWidth: 0
GlyphClass: 2
Flags: W
LayerCount: 2
Fore
SplineSet
619.42578125 1548 m 257
 56 0 l 257
 1993 0 l 257
 2556.42578125 1548 l 257
 619.42578125 1548 l 257
2067.25292969 759 m 257
 1862.70214844 197 l 257
 331.702148438 197 l 257
 536.252929688 759 l 257
 2067.25292969 759 l 257
2141.04785156 959 m 257
 609.047851562 959 l 257
 751.359375 1350 l 257
 2283.359375 1350 l 257
 2141.04785156 959 l 257
EndSplineSet
EndChar

StartChar: ellipsis
Encoding: 8230 8230 181
GlifName: ellipsis
Width: 2048
VWidth: 0
GlyphClass: 2
Flags: W
LayerCount: 2
Fore
SplineSet
733.4921875 114 m 257
 692 0 l 257
 834 0 l 257
 875.4921875 114 l 257
 733.4921875 114 l 257
989.4921875 114 m 257
 948 0 l 257
 1092 0 l 257
 1133.4921875 114 l 257
 989.4921875 114 l 257
1255.4921875 114 m 257
 1214 0 l 257
 1356 0 l 257
 1397.4921875 114 l 257
 1255.4921875 114 l 257
EndSplineSet
EndChar

StartChar: emdash
Encoding: 8212 8212 183
GlifName: emdash
Width: 2048
VWidth: 0
GlyphClass: 2
Flags: W
LayerCount: 2
Fore
SplineSet
305.381835938 600 m 257
 2168.38183594 600 l 257
 2244.08789062 808 l 257
 381.087890625 808 l 257
 305.381835938 600 l 257
EndSplineSet
EndChar

StartChar: endash
Encoding: 8211 8211 184
GlifName: endash
Width: 2048
VWidth: 0
GlyphClass: 2
Flags: W
LayerCount: 2
Fore
SplineSet
829.381835938 600 m 257
 1655.38183594 600 l 257
 1731.08789062 808 l 257
 905.087890625 808 l 257
 829.381835938 600 l 257
EndSplineSet
EndChar

StartChar: eng
Encoding: 331 331 185
GlifName: eng
Width: 2048
VWidth: 0
GlyphClass: 2
Flags: HW
LayerCount: 2
Fore
SplineSet
1403.20214844 -211 m 257
 1331.5 -408 l 257
 1718.5 -408 l 257
 1790.20214844 -211 l 257
 1403.20214844 -211 l 257
604.330078125 990 m 257
 244 0 l 257
 445 0 l 257
 805.330078125 990 l 257
 604.330078125 990 l 257
2022.23535156 976 m 257
 1518.5 -408 l 257
 1719.5 -408 l 257
 2223.23535156 976 l 257
 2022.23535156 976 l 257
437.341796875 1023 m 257
 365.639648438 826 l 257
 2167.63964844 826 l 257
 2239.34179688 1023 l 257
 437.341796875 1023 l 257
EndSplineSet
EndChar

StartChar: equal
Encoding: 61 61 187
GlifName: equal
Width: 2048
VWidth: 0
GlyphClass: 2
Flags: W
LayerCount: 2
Fore
SplineSet
948.668945312 914 m 257
 879.514648438 724 l 257
 1695.51464844 724 l 257
 1764.66894531 914 l 257
 948.668945312 914 l 257
812.543945312 540 m 257
 743.389648438 350 l 257
 1559.38964844 350 l 257
 1628.54394531 540 l 257
 812.543945312 540 l 257
EndSplineSet
EndChar

StartChar: eth
Encoding: 240 240 188
GlifName: eth
Width: 2048
VWidth: 0
GlyphClass: 2
Flags: HW
LayerCount: 2
Fore
SplineSet
1828.42578125 1548 m 257
 1716 0 l 257
 1917 0 l 257
 2029.42578125 1548 l 257
 1828.42578125 1548 l 257
600.341796875 1023 m 257
 527.18359375 822 l 257
 1892.18359375 822 l 257
 1965.34179688 1023 l 257
 600.341796875 1023 l 257
504.341796875 1023 m 257
 132 0 l 257
 333 0 l 257
 705.341796875 1023 l 257
 504.341796875 1023 l 257
298.974609375 195 m 257
 228 0 l 257
 1869 0 l 257
 1939.97460938 195 l 257
 298.974609375 195 l 257
1700.38183594 1416 m 257
 1632.31933594 1229 l 257
 2164.31933594 1229 l 257
 2232.38183594 1416 l 257
 1700.38183594 1416 l 257
EndSplineSet
EndChar

StartChar: exclam
Encoding: 33 33 189
GlifName: exclam
Width: 2048
VWidth: 0
GlyphClass: 2
Flags: W
LayerCount: 2
Fore
SplineSet
997.860351562 126 m 257
 1141.86035156 126 l 257
 1232.125 374 l 257
 1088.125 374 l 257
 997.860351562 126 l 257
1184.38574219 611 m 257
 1312.38574219 611 l 257
 1682.90722656 1629 l 257
 1554.90722656 1629 l 257
 1184.38574219 611 l 257
EndSplineSet
EndChar

StartChar: exclamdown
Encoding: 161 161 190
GlifName: exclamdown
Width: 2048
VWidth: 0
GlyphClass: 2
Flags: W
LayerCount: 2
Fore
SplineSet
1649.234375 1520 m 257
 1505.234375 1520 l 257
 1414.96972656 1272 l 257
 1558.96972656 1272 l 257
 1649.234375 1520 l 257
1462.70898438 1035 m 257
 1334.70898438 1035 l 257
 964.1875 17 l 257
 1092.1875 17 l 257
 1462.70898438 1035 l 257
EndSplineSet
EndChar

StartChar: f
Encoding: 102 102 191
GlifName: f
Width: 2048
VWidth: 0
GlyphClass: 2
Flags: W
LayerCount: 2
Fore
SplineSet
1212.34179688 1023 m 257
 692.228515625 -406 l 257
 874.228515625 -406 l 257
 1394.34179688 1023 l 257
 1212.34179688 1023 l 257
1270.34179688 1023 m 257
 1200.45898438 831 l 257
 2278.45898438 831 l 257
 2348.34179688 1023 l 257
 1270.34179688 1023 l 257
275.458984375 559 m 257
 201.573242188 356 l 257
 2009.57324219 356 l 257
 2083.45898438 559 l 257
 275.458984375 559 l 257
EndSplineSet
EndChar

StartChar: five
Encoding: 53 53 192
GlifName: five
Width: 2048
VWidth: 0
GlyphClass: 2
Flags: W
LayerCount: 2
Fore
SplineSet
2072.25292969 759 m 257
 1868.06640625 198 l 257
 131.06640625 198 l 257
 59 0 l 257
 2001 0 l 257
 2350.04785156 959 l 257
 609.047851562 959 l 257
 752.087890625 1352 l 257
 2503.08789062 1352 l 257
 2574.42578125 1548 l 257
 623.42578125 1548 l 257
 336.252929688 759 l 257
 2072.25292969 759 l 257
EndSplineSet
EndChar

StartChar: four
Encoding: 52 52 193
GlifName: four
Width: 2048
VWidth: 0
GlyphClass: 2
Flags: W
LayerCount: 2
Fore
SplineSet
367.981445312 761 m 257
 2033.98144531 761 l 257
 1759.54785156 7 l 257
 1955.54785156 7 l 257
 2516.42578125 1548 l 257
 2317.42578125 1548 l 257
 2103.77539062 961 l 257
 640.775390625 961 l 257
 854.42578125 1548 l 257
 654.42578125 1548 l 257
 367.981445312 761 l 257
EndSplineSet
EndChar

StartChar: g
Encoding: 103 103 194
GlifName: g
Width: 2048
VWidth: 0
GlyphClass: 2
Flags: W
LayerCount: 2
Fore
SplineSet
610.341796875 1023 m 257
 238 0 l 257
 430 0 l 257
 802.341796875 1023 l 257
 610.341796875 1023 l 257
650.341796875 1023 m 257
 577.547851562 823 l 257
 2093.54785156 823 l 257
 2166.34179688 1023 l 257
 650.341796875 1023 l 257
1994.34179688 1023 m 257
 1472.40820312 -411 l 257
 1666.40820312 -411 l 257
 2188.34179688 1023 l 257
 1994.34179688 1023 l 257
373.06640625 198 m 257
 301 0 l 257
 1758 0 l 257
 1830.06640625 198 l 257
 373.06640625 198 l 257
154.110351562 -214 m 257
 81.6806640625 -413 l 257
 1616.68066406 -413 l 257
 1689.11035156 -214 l 257
 154.110351562 -214 l 257
EndSplineSet
EndChar

StartChar: germandbls
Encoding: 223 223 198
GlifName: germandbls
Width: 2048
VWidth: 0
GlyphClass: 2
Flags: HW
LayerCount: 2
Fore
SplineSet
462.407226562 1221 m 257
 390.341796875 1023 l 257
 641.341796875 1023 l 257
 713.407226562 1221 l 257
 462.407226562 1221 l 257
767.42578125 1548 m 257
 204 0 l 257
 410 0 l 257
 973.42578125 1548 l 257
 767.42578125 1548 l 257
973.42578125 1548 m 257
 893.352539062 1328 l 257
 2312.35253906 1328 l 257
 2392.42578125 1548 l 257
 973.42578125 1548 l 257
2277.42578125 1548 m 257
 2086.34179688 1023 l 257
 2285.34179688 1023 l 257
 2476.42578125 1548 l 257
 2277.42578125 1548 l 257
2100.53613281 1062 m 257
 876.536132812 1062 l 257
 790.639648438 826 l 257
 2014.63964844 826 l 257
 2100.53613281 1062 l 257
2022.64648438 848 m 257
 1777.69433594 175 l 257
 1977.69433594 175 l 257
 2222.64648438 848 l 257
 2022.64648438 848 l 257
638.356445312 251 m 257
 561.55859375 40 l 257
 1928.55859375 40 l 257
 2005.35644531 251 l 257
 638.356445312 251 l 257
EndSplineSet
EndChar

StartChar: glyph094D
Encoding: 65536 -1 199
GlifName: glyph094D_
Width: 2048
VWidth: 0
GlyphClass: 2
Flags: W
LayerCount: 2
Fore
SplineSet
-561.0078125 -22 m 257
 -632.345703125 -218 l 257
 -275.345703125 -218 l 257
 -204.0078125 -22 l 257
 -561.0078125 -22 l 257
-403.606445312 -183 m 257
 -81.0146484375 -588 l 257
 122.3125 -425 l 257
 -201.643554688 -21 l 257
 -403.606445312 -183 l 257
EndSplineSet
EndChar

StartChar: grave
Encoding: 96 96 200
GlifName: grave
Width: 2048
VWidth: 0
GlyphClass: 2
Flags: W
LayerCount: 2
Fore
SplineSet
1371.27148438 1358 m 257
 1406.71679688 1057 l 257
 1581.92285156 1129 l 257
 1545.47753906 1430 l 257
 1371.27148438 1358 l 257
EndSplineSet
EndChar

StartChar: gravecomb
Encoding: 768 768 201
GlifName: gravecomb
Width: 0
VWidth: 0
GlyphClass: 2
AnchorPoint: "top" 592 1881 mark 0
AnchorPoint: "top" 1384 593 mark 0
LayerCount: 2
Fore
SplineSet
1248.12109375 907 m 257
 1282.22363281 671 l 257
 1390.96679688 717 l 257
 1357.22753906 954 l 257
 1248.12109375 907 l 257
EndSplineSet
EndChar

StartChar: greater
Encoding: 62 62 202
GlifName: greater
Width: 2048
VWidth: 0
GlyphClass: 2
Flags: W
LayerCount: 2
Fore
SplineSet
1718.8046875 777 m 257
 982.702148438 1013 l 257
 907.723632812 807 l 257
 1643.73535156 568 l 257
 1718.8046875 777 l 257
1718.8046875 777 m 257
 732.106445312 319 l 257
 660.404296875 122 l 257
 1643.73535156 568 l 257
 1718.8046875 777 l 257
EndSplineSet
EndChar

StartChar: guillemotleft
Encoding: 171 171 203
GlifName: guillemotleft
Width: 2048
VWidth: 0
GlyphClass: 2
Flags: W
LayerCount: 2
Fore
SplineSet
853.658203125 609 m 257
 797.2421875 454 l 257
 1230.66503906 631 l 257
 1286.35253906 784 l 257
 853.658203125 609 l 257
853.658203125 609 m 257
 797.2421875 454 l 257
 1044.40429688 122 l 257
 1097.54394531 268 l 257
 853.658203125 609 l 257
1268.65820312 609 m 257
 1212.2421875 454 l 257
 1645.66503906 631 l 257
 1701.35253906 784 l 257
 1268.65820312 609 l 257
1268.65820312 609 m 257
 1212.2421875 454 l 257
 1459.40429688 122 l 257
 1512.54394531 268 l 257
 1268.65820312 609 l 257
EndSplineSet
EndChar

StartChar: guillemotright
Encoding: 187 187 204
GlifName: guillemotright
Width: 2048
VWidth: 0
GlyphClass: 2
Flags: W
LayerCount: 2
Fore
SplineSet
1637.65820312 609 m 257
 1332.35253906 784 l 257
 1276.66503906 631 l 257
 1581.2421875 454 l 257
 1637.65820312 609 l 257
1637.65820312 609 m 257
 1145.54394531 268 l 257
 1092.40429688 122 l 257
 1581.2421875 454 l 257
 1637.65820312 609 l 257
1222.65820312 609 m 257
 917.352539062 784 l 257
 861.665039062 631 l 257
 1166.2421875 454 l 257
 1222.65820312 609 l 257
1222.65820312 609 m 257
 730.543945312 268 l 257
 677.404296875 122 l 257
 1166.2421875 454 l 257
 1222.65820312 609 l 257
EndSplineSet
EndChar

StartChar: guilsinglleft
Encoding: 8249 8249 205
GlifName: guilsinglleft
Width: 2048
VWidth: 0
GlyphClass: 2
Flags: W
LayerCount: 2
Fore
SplineSet
896.8046875 777 m 257
 821.098632812 569 l 257
 1725.72363281 807 l 257
 1800.70214844 1013 l 257
 896.8046875 777 l 257
896.8046875 777 m 257
 821.098632812 569 l 257
 1474.40429688 122 l 257
 1546.10644531 319 l 257
 896.8046875 777 l 257
EndSplineSet
EndChar

StartChar: guilsinglright
Encoding: 8250 8250 206
GlifName: guilsinglright
Width: 2048
VWidth: 0
GlyphClass: 2
Flags: W
LayerCount: 2
Fore
SplineSet
1718.8046875 777 m 257
 982.702148438 1013 l 257
 907.723632812 807 l 257
 1643.73535156 568 l 257
 1718.8046875 777 l 257
1718.8046875 777 m 257
 732.106445312 319 l 257
 660.404296875 122 l 257
 1643.73535156 568 l 257
 1718.8046875 777 l 257
EndSplineSet
EndChar

StartChar: h
Encoding: 104 104 207
GlifName: h
Width: 2048
VWidth: 0
GlyphClass: 2
Flags: W
AnchorPoint: "base" 800 -54 basechar 0
AnchorPoint: "top" 248 1646 basechar 0
LayerCount: 2
Fore
SplineSet
745.421875 1537 m 257
 188.18359375 6 l 257
 388.18359375 6 l 257
 945.421875 1537 l 257
 745.421875 1537 l 257
695.341796875 1023 m 257
 623.639648438 826 l 257
 2154.63964844 826 l 257
 2226.34179688 1023 l 257
 695.341796875 1023 l 257
2035.34179688 1023 m 257
 1663 0 l 257
 1862 0 l 257
 2234.34179688 1023 l 257
 2035.34179688 1023 l 257
EndSplineSet
EndChar

StartChar: hbar
Encoding: 295 295 208
GlifName: hbar
Width: 2048
VWidth: 0
GlyphClass: 2
Flags: HW
LayerCount: 2
Fore
SplineSet
733.421875 1537 m 257
 176.18359375 6 l 257
 376.18359375 6 l 257
 933.421875 1537 l 257
 733.421875 1537 l 257
683.341796875 1023 m 257
 611.639648438 826 l 257
 2166.63964844 826 l 257
 2238.34179688 1023 l 257
 683.341796875 1023 l 257
2047.34179688 1023 m 257
 1675 0 l 257
 1874 0 l 257
 2246.34179688 1023 l 257
 2047.34179688 1023 l 257
558.11328125 1429 m 257
 482.407226562 1221 l 257
 938.407226562 1221 l 257
 1014.11328125 1429 l 257
 558.11328125 1429 l 257
EndSplineSet
EndChar

StartChar: hungarumlaut
Encoding: 733 733 210
GlifName: hungarumlaut
Width: 2048
VWidth: 0
GlyphClass: 2
Flags: W
LayerCount: 2
Fore
SplineSet
1164.7421875 1134 m 257
 1308.7421875 1134 l 257
 1399.00683594 1382 l 257
 1255.00683594 1382 l 257
 1164.7421875 1134 l 257
1564.7421875 1134 m 257
 1708.7421875 1134 l 257
 1799.00683594 1382 l 257
 1655.00683594 1382 l 257
 1564.7421875 1134 l 257
EndSplineSet
EndChar

StartChar: hyphen
Encoding: 45 45 211
GlifName: hyphen
Width: 2048
VWidth: 0
GlyphClass: 2
Flags: W
LayerCount: 2
Fore
SplineSet
905.087890625 808 m 257
 829.381835938 600 l 257
 1655.38183594 600 l 257
 1731.08789062 808 l 257
 905.087890625 808 l 257
EndSplineSet
EndChar

StartChar: i
Encoding: 105 105 212
GlifName: i
Width: 2048
VWidth: 0
GlyphClass: 2
Flags: W
AnchorPoint: "base" 788 -38 basechar 0
LayerCount: 2
Fore
SplineSet
1293.52148438 1018 m 257
 973.591796875 139 l 257
 1175.59179688 139 l 257
 1495.52148438 1018 l 257
 1293.52148438 1018 l 257
227.25 204 m 257
 155.18359375 6 l 257
 1897.18359375 6 l 257
 1969.25 204 l 257
 227.25 204 l 257
1144.171875 1333 m 257
 1071.37792969 1133 l 257
 1278.37792969 1133 l 257
 1351.171875 1333 l 257
 1144.171875 1333 l 257
867.521484375 1018 m 257
 794 816 l 257
 1414 816 l 257
 1487.52148438 1018 l 257
 867.521484375 1018 l 257
EndSplineSet
EndChar

StartChar: j
Encoding: 106 106 222
GlifName: j
Width: 2048
VWidth: 0
GlyphClass: 2
Flags: W
LayerCount: 2
Fore
SplineSet
2012.34179688 1023 m 257
 1490.40820312 -411 l 257
 1688.40820312 -411 l 257
 2210.34179688 1023 l 257
 2012.34179688 1023 l 257
133.930664062 -209 m 257
 62.228515625 -406 l 257
 1592.22851562 -406 l 257
 1663.93066406 -209 l 257
 133.930664062 -209 l 257
207.81640625 -6 m 257
 82.24609375 -351 l 257
 282.24609375 -351 l 257
 407.81640625 -6 l 257
 207.81640625 -6 l 257
2102.70898438 1307 m 257
 2031.73535156 1112 l 257
 2257.73535156 1112 l 257
 2328.70898438 1307 l 257
 2102.70898438 1307 l 257
EndSplineSet
EndChar

StartChar: k
Encoding: 107 107 224
GlifName: k
Width: 2048
VWidth: 0
GlyphClass: 2
Flags: W
AnchorPoint: "top" 220 1638 basechar 0
LayerCount: 2
Fore
SplineSet
662.421875 1537 m 257
 104.8203125 5 l 257
 304.8203125 5 l 257
 862.421875 1537 l 257
 662.421875 1537 l 257
339.80859375 516 m 257
 309.462890625 298 l 257
 2260.34179688 1023 l 257
 2043.34179688 1023 l 257
 339.80859375 516 l 257
683.92578125 596 m 257
 432.797851562 483 l 257
 1707 0 l 257
 1945 0 l 257
 683.92578125 596 l 257
EndSplineSet
EndChar

StartChar: l
Encoding: 108 108 225
GlifName: l
Width: 2048
VWidth: 0
GlyphClass: 2
Flags: W
AnchorPoint: "top" 520 1654 basechar 0
LayerCount: 2
Fore
SplineSet
283.069335938 209 m 257
 210.275390625 9 l 257
 1844.27539062 9 l 257
 1917.06933594 209 l 257
 283.069335938 209 l 257
1487.42578125 1548 m 257
 955.301757812 86 l 257
 1155.30175781 86 l 257
 1687.42578125 1548 l 257
 1487.42578125 1548 l 257
831.42578125 1548 m 257
 758.99609375 1349 l 257
 1493.99609375 1349 l 257
 1566.42578125 1548 l 257
 831.42578125 1548 l 257
EndSplineSet
EndChar

StartChar: lcaron
Encoding: 318 318 227
GlifName: lcaron
Width: 2048
VWidth: 0
GlyphClass: 2
Flags: HW
LayerCount: 2
Fore
SplineSet
209.069335938 209 m 257
 136.275390625 9 l 257
 1794.27539062 9 l 257
 1867.06933594 209 l 257
 209.069335938 209 l 257
1425.42578125 1548 m 257
 893.301757812 86 l 257
 1093.30175781 86 l 257
 1625.42578125 1548 l 257
 1425.42578125 1548 l 257
757.42578125 1548 m 257
 684.99609375 1349 l 257
 1431.99609375 1349 l 257
 1504.42578125 1548 l 257
 757.42578125 1548 l 257
1853.49902344 1496 m 257
 1769.05859375 1264 l 257
 1899.05859375 1264 l 257
 1983.49902344 1496 l 257
 1853.49902344 1496 l 257
EndSplineSet
EndChar

StartChar: less
Encoding: 60 60 229
GlifName: less
Width: 2048
VWidth: 0
GlyphClass: 2
Flags: W
LayerCount: 2
Fore
SplineSet
896.8046875 777 m 257
 821.098632812 569 l 257
 1725.72363281 807 l 257
 1800.70214844 1013 l 257
 896.8046875 777 l 257
896.8046875 777 m 257
 821.098632812 569 l 257
 1474.40429688 122 l 257
 1546.10644531 319 l 257
 896.8046875 777 l 257
EndSplineSet
EndChar

StartChar: logicalnot
Encoding: 172 172 230
GlifName: logicalnot
Width: 2048
VWidth: 0
GlyphClass: 2
Flags: W
LayerCount: 2
Fore
SplineSet
1519.3125 935 m 257
 1411.94140625 640 l 257
 1521.94140625 640 l 257
 1629.3125 935 l 257
 1519.3125 935 l 257
1089.3125 935 m 257
 1052.91503906 835 l 257
 1602.91503906 835 l 257
 1639.3125 935 l 257
 1089.3125 935 l 257
EndSplineSet
EndChar

StartChar: lslash
Encoding: 322 322 231
GlifName: lslash
Width: 2048
VWidth: 0
GlyphClass: 2
Flags: HW
LayerCount: 2
Fore
SplineSet
271.069335938 209 m 257
 198.275390625 9 l 257
 1856.27539062 9 l 257
 1929.06933594 209 l 257
 271.069335938 209 l 257
1487.42578125 1548 m 257
 955.301757812 86 l 257
 1155.30175781 86 l 257
 1687.42578125 1548 l 257
 1487.42578125 1548 l 257
819.42578125 1548 m 257
 746.99609375 1349 l 257
 1493.99609375 1349 l 257
 1566.42578125 1548 l 257
 819.42578125 1548 l 257
2280.49609375 1213 m 257
 414.095703125 830 l 257
 452.764648438 656 l 257
 2319.16503906 1039 l 257
 2280.49609375 1213 l 257
EndSplineSet
EndChar

StartChar: m
Encoding: 109 109 232
GlifName: m
Width: 2048
VWidth: 0
GlyphClass: 2
Flags: W
AnchorPoint: "top" 508 1110 basechar 0
LayerCount: 2
Fore
SplineSet
509.422851562 993 m 257
 148 0 l 257
 348 0 l 257
 709.422851562 993 l 257
 509.422851562 993 l 257
1315.77929688 972 m 257
 962 0 l 257
 1162 0 l 257
 1515.77929688 972 l 257
 1315.77929688 972 l 257
2133.23535156 976 m 257
 1778 0 l 257
 1978 0 l 257
 2333.23535156 976 l 257
 2133.23535156 976 l 257
442.341796875 1023 m 257
 370.639648438 826 l 257
 2276.63964844 826 l 257
 2348.34179688 1023 l 257
 442.341796875 1023 l 257
EndSplineSet
EndChar

StartChar: macron
Encoding: 175 175 233
GlifName: macron
Width: 2048
VWidth: 0
GlyphClass: 2
Flags: W
LayerCount: 2
Fore
SplineSet
1130.34179688 1023 m 257
 1100.49609375 941 l 257
 1660.49609375 941 l 257
 1690.34179688 1023 l 257
 1130.34179688 1023 l 257
EndSplineSet
EndChar

StartChar: mu
Encoding: 181 181 235
GlifName: mu
Width: 2048
VWidth: 0
GlyphClass: 2
Flags: W
LayerCount: 2
Fore
SplineSet
2076.3125 935 m 257
 1736 0 l 257
 1846 0 l 257
 2186.3125 935 l 257
 2076.3125 935 l 257
345.676757812 120 m 257
 302 0 l 257
 1816 0 l 257
 1859.67675781 120 l 257
 345.676757812 120 l 257
542.3125 935 m 257
 45.4931640625 -430 l 257
 139.493164062 -430 l 257
 636.3125 935 l 257
 542.3125 935 l 257
EndSplineSet
EndChar

StartChar: multiply
Encoding: 215 215 236
GlifName: multiply
Width: 2048
VWidth: 0
GlyphClass: 2
Flags: HW
LayerCount: 2
Fore
SplineSet
200.918945312 302 m 257
 523.918945312 302 l 257
 2432.53222656 1323 l 257
 2121.53222656 1323 l 257
 200.918945312 302 l 257
575.260742188 1325 m 257
 1755.46289062 298 l 257
 2066.46289062 298 l 257
 899.260742188 1325 l 257
 575.260742188 1325 l 257
EndSplineSet
EndChar

StartChar: n
Encoding: 110 110 237
GlifName: n
Width: 2048
VWidth: 0
GlyphClass: 2
Flags: W
AnchorPoint: "top" 492 1158 basechar 0
LayerCount: 2
Fore
SplineSet
674.330078125 990 m 257
 314 0 l 257
 514 0 l 257
 874.330078125 990 l 257
 674.330078125 990 l 257
2067.23535156 976 m 257
 1712 0 l 257
 1914 0 l 257
 2269.23535156 976 l 257
 2067.23535156 976 l 257
506.341796875 1023 m 257
 434.639648438 826 l 257
 2212.63964844 826 l 257
 2284.34179688 1023 l 257
 506.341796875 1023 l 257
EndSplineSet
EndChar

StartChar: nine
Encoding: 57 57 240
GlifName: nine
Width: 2048
VWidth: 0
GlyphClass: 2
Flags: W
LayerCount: 2
Fore
SplineSet
2081.25292969 759 m 257
 1877.79394531 200 l 257
 151.793945312 200 l 257
 79 0 l 257
 2001 0 l 257
 2566.609375 1554 l 257
 622.609375 1554 l 257
 616.421875 1537 l 257
 333.252929688 759 l 257
 2081.25292969 759 l 257
2151.04785156 959 m 257
 606.047851562 959 l 257
 749.815429688 1354 l 257
 2294.81542969 1354 l 257
 2151.04785156 959 l 257
EndSplineSet
EndChar

StartChar: numbersign
Encoding: 35 35 242
GlifName: numbersign
Width: 2048
VWidth: 0
GlyphClass: 2
Flags: W
LayerCount: 2
Fore
SplineSet
1230.26757812 1347 m 257
 853.922851562 313 l 257
 993.922851562 313 l 257
 1370.26757812 1347 l 257
 1230.26757812 1347 l 257
1643.359375 1350 m 257
 1253.54785156 279 l 257
 1419.54785156 279 l 257
 1809.359375 1350 l 257
 1643.359375 1350 l 257
1033.11328125 1157 m 257
 979.610351562 1010 l 257
 1797.61035156 1010 l 257
 1851.11328125 1157 l 257
 1033.11328125 1157 l 257
891.165039062 767 m 257
 827.470703125 592 l 257
 1653.47070312 592 l 257
 1717.16503906 767 l 257
 891.165039062 767 l 257
EndSplineSet
EndChar

StartChar: o
Encoding: 111 111 243
GlifName: o
Width: 2048
VWidth: 0
GlyphClass: 2
Flags: W
AnchorPoint: "base" 536 -38 basechar 0
AnchorPoint: "top" 504 1158 basechar 0
LayerCount: 2
Fore
SplineSet
488.341796875 1023 m 257
 116 0 l 257
 316 0 l 257
 688.341796875 1023 l 257
 488.341796875 1023 l 257
2104.34179688 1023 m 257
 1732 0 l 257
 1934 0 l 257
 2306.34179688 1023 l 257
 2104.34179688 1023 l 257
612.341796875 1023 m 257
 539.18359375 822 l 257
 2125.18359375 822 l 257
 2198.34179688 1023 l 257
 612.341796875 1023 l 257
316.793945312 200 m 257
 244 0 l 257
 1816 0 l 257
 1888.79394531 200 l 257
 316.793945312 200 l 257
EndSplineSet
EndChar

StartChar: oe
Encoding: 339 339 248
GlifName: oe
Width: 2048
VWidth: 0
GlyphClass: 2
Flags: HW
LayerCount: 2
Fore
SplineSet
1343.76074219 645 m 257
 1271.33105469 446 l 257
 2010.33105469 446 l 257
 2082.76074219 645 l 257
 1343.76074219 645 l 257
2195.34179688 1023 m 257
 1984.96679688 445 l 257
 2184.96679688 445 l 257
 2395.34179688 1023 l 257
 2195.34179688 1023 l 257
475.341796875 1023 m 257
 103 0 l 257
 303 0 l 257
 675.341796875 1023 l 257
 475.341796875 1023 l 257
1335.34179688 1023 m 257
 963 0 l 257
 1163 0 l 257
 1535.34179688 1023 l 257
 1335.34179688 1023 l 257
530.341796875 1023 m 257
 457.547851562 823 l 257
 2182.54785156 823 l 257
 2255.34179688 1023 l 257
 530.341796875 1023 l 257
221.793945312 200 m 257
 149 0 l 257
 2023 0 l 257
 2095.79394531 200 l 257
 221.793945312 200 l 257
EndSplineSet
EndChar

StartChar: ogonek
Encoding: 731 731 249
GlifName: ogonek
Width: 2048
VWidth: 0
GlyphClass: 2
Flags: W
LayerCount: 2
Fore
SplineSet
653.272460938 -274 m 257
 608.868164062 -396 l 257
 1150.86816406 -396 l 257
 1195.27246094 -274 l 257
 653.272460938 -274 l 257
758.095703125 14 m 257
 608.868164062 -396 l 257
 726.868164062 -396 l 257
 876.095703125 14 l 257
 758.095703125 14 l 257
758.095703125 14 m 257
 714.055664062 -107 l 257
 1256.05566406 -107 l 257
 1300.09570312 14 l 257
 758.095703125 14 l 257
EndSplineSet
EndChar

StartChar: one
Encoding: 49 49 253
GlifName: one
Width: 2048
VWidth: 0
GlyphClass: 2
Flags: W
LayerCount: 2
Fore
SplineSet
1022 0 m 257
 1220 0 l 257
 1783.42578125 1548 l 257
 1585.42578125 1548 l 257
 1022 0 l 257
1589.42578125 1548 m 257
 1283.69042969 1252 l 257
 1397.29394531 1152 l 257
 1703.39257812 1449 l 257
 1589.42578125 1548 l 257
EndSplineSet
EndChar

StartChar: onehalf
Encoding: 189 189 254
GlifName: onehalf
Width: 2048
VWidth: 0
GlyphClass: 2
Flags: W
LayerCount: 2
Fore
SplineSet
1831.76757812 1483 m 257
 269.18359375 6 l 257
 433.081054688 -30 l 257
 1995.66503906 1447 l 257
 1831.76757812 1483 l 257
612.106445312 863 m 257
 695.106445312 863 l 257
 944.42578125 1548 l 257
 861.42578125 1548 l 257
 612.106445312 863 l 257
863.42578125 1548 m 257
 734.473632812 1419 l 257
 780.094726562 1374 l 257
 910.139648438 1506 l 257
 863.42578125 1548 l 257
1871.39355469 633 m 257
 2142.39355469 633 l 257
 2071.0546875 437 l 257
 1802.0546875 437 l 257
 1653.91894531 30 l 257
 2004.91894531 30 l 257
 2037.67675781 120 l 257
 1776.67675781 120 l 257
 1859.29785156 347 l 257
 2127.29785156 347 l 257
 2264.15039062 723 l 257
 1904.15039062 723 l 257
 1871.39355469 633 l 257
EndSplineSet
EndChar

StartChar: onequarter
Encoding: 188 188 255
GlifName: onequarter
Width: 2048
VWidth: 0
GlyphClass: 2
Flags: W
LayerCount: 2
Fore
SplineSet
1815.40429688 1482 m 257
 84.6396484375 10 l 257
 295.639648438 10 l 257
 2026.40429688 1482 l 257
 1815.40429688 1482 l 257
920.712890625 1046 m 257
 1031.71289062 1046 l 257
 1214.42578125 1548 l 257
 1103.42578125 1548 l 257
 920.712890625 1046 l 257
1111.2421875 1542 m 257
 844.749023438 1428 l 257
 872.282226562 1391 l 257
 1171.2421875 1542 l 257
 1111.2421875 1542 l 257
1217.67285156 381 m 257
 1844.67285156 381 l 257
 1709.27539062 9 l 257
 1828.27539062 9 l 257
 2105.25683594 770 l 257
 1982.25683594 770 l 257
 1864.69433594 447 l 257
 1362.69433594 447 l 257
 1480.98535156 772 l 257
 1359.98535156 772 l 257
 1217.67285156 381 l 257
EndSplineSet
EndChar

StartChar: ordfeminine
Encoding: 170 170 256
GlifName: ordfeminine
Width: 2048
VWidth: 0
GlyphClass: 2
Flags: W
LayerCount: 2
Fore
SplineSet
697.077148438 1319 m 257
 624.282226562 1119 l 257
 2230.28222656 1119 l 257
 2303.07714844 1319 l 257
 697.077148438 1319 l 257
2190.44042969 1320 m 257
 1817.73535156 296 l 257
 2011.73535156 296 l 257
 2384.44042969 1320 l 257
 2190.44042969 1320 l 257
546.389648438 894 m 257
 473.958984375 695 l 257
 2097.95898438 695 l 257
 2170.38964844 894 l 257
 546.389648438 894 l 257
537.654296875 870 m 257
 327.643554688 293 l 257
 528.643554688 293 l 257
 738.654296875 870 l 257
 537.654296875 870 l 257
399.529296875 496 m 257
 326.735351562 296 l 257
 2016.73535156 296 l 257
 2089.52929688 496 l 257
 399.529296875 496 l 257
184.962890625 162 m 257
 126 0 l 257
 1922 0 l 257
 1980.96289062 162 l 257
 184.962890625 162 l 257
EndSplineSet
EndChar

StartChar: ordmasculine
Encoding: 186 186 257
GlifName: ordmasculine
Width: 2048
VWidth: 0
GlyphClass: 2
Flags: W
LayerCount: 2
Fore
SplineSet
544.341796875 1023 m 257
 172 0 l 257
 372 0 l 257
 744.341796875 1023 l 257
 544.341796875 1023 l 257
2159.34179688 1023 m 257
 1787 0 l 257
 1989 0 l 257
 2361.34179688 1023 l 257
 2159.34179688 1023 l 257
667.341796875 1023 m 257
 594.18359375 822 l 257
 2180.18359375 822 l 257
 2253.34179688 1023 l 257
 667.341796875 1023 l 257
371.793945312 200 m 257
 299 0 l 257
 1871 0 l 257
 1943.79394531 200 l 257
 371.793945312 200 l 257
-30.5732421875 -84 m 257
 -78.6171875 -216 l 257
 1969.3828125 -216 l 257
 2017.42675781 -84 l 257
 -30.5732421875 -84 l 257
EndSplineSet
EndChar

StartChar: oslash
Encoding: 248 248 258
GlifName: oslash
Width: 2048
VWidth: 0
GlyphClass: 2
Flags: HW
LayerCount: 2
Fore
SplineSet
2284.66113281 1164 m 257
 7.1796875 -5 l 257
 133.510742188 -103 l 257
 2411.9921875 1066 l 257
 2284.66113281 1164 l 257
476.341796875 1023 m 257
 104 0 l 257
 304 0 l 257
 676.341796875 1023 l 257
 476.341796875 1023 l 257
2115.34179688 1023 m 257
 1743 0 l 257
 1945 0 l 257
 2317.34179688 1023 l 257
 2115.34179688 1023 l 257
599.341796875 1023 m 257
 526.18359375 822 l 257
 2136.18359375 822 l 257
 2209.34179688 1023 l 257
 599.341796875 1023 l 257
303.793945312 200 m 257
 231 0 l 257
 1827 0 l 257
 1899.79394531 200 l 257
 303.793945312 200 l 257
EndSplineSet
EndChar

StartChar: p
Encoding: 112 112 260
GlifName: p
Width: 2048
VWidth: 0
GlyphClass: 2
Flags: W
AnchorPoint: "top" 268 1322 basechar 0
LayerCount: 2
Fore
SplineSet
639.856445312 1203 m 257
 54.228515625 -406 l 257
 254.228515625 -406 l 257
 839.856445312 1203 l 257
 639.856445312 1203 l 257
672.341796875 1023 m 257
 598.819335938 821 l 257
 2136.81933594 821 l 257
 2210.34179688 1023 l 257
 672.341796875 1023 l 257
377.522460938 202 m 257
 304 0 l 257
 1844 0 l 257
 1917.52246094 202 l 257
 377.522460938 202 l 257
1960.83789062 876 m 257
 1705.69433594 175 l 257
 1903.69433594 175 l 257
 2158.83789062 876 l 257
 1960.83789062 876 l 257
EndSplineSet
EndChar

StartChar: paragraph
Encoding: 182 182 261
GlifName: paragraph
Width: 2048
VWidth: 0
GlyphClass: 2
Flags: W
LayerCount: 2
Fore
SplineSet
1013.28613281 1130 m 257
 960.510742188 985 l 257
 1524.51074219 985 l 257
 1577.28613281 1130 l 257
 1013.28613281 1130 l 257
1165.42578125 1548 m 257
 965.970703125 1000 l 257
 1125.97070312 1000 l 257
 1325.42578125 1548 l 257
 1165.42578125 1548 l 257
1165.42578125 1548 m 257
 1124.296875 1435 l 257
 1944.296875 1435 l 257
 1985.42578125 1548 l 257
 1165.42578125 1548 l 257
1635.42578125 1548 m 257
 1072 0 l 257
 1216 0 l 257
 1779.42578125 1548 l 257
 1635.42578125 1548 l 257
1905.42578125 1548 m 257
 1342 0 l 257
 1446 0 l 257
 2009.42578125 1548 l 257
 1905.42578125 1548 l 257
EndSplineSet
EndChar

StartChar: parenleft
Encoding: 40 40 262
GlifName: parenleft
Width: 2048
VWidth: 0
GlyphClass: 2
Flags: W
LayerCount: 2
Fore
SplineSet
1208.34179688 1023 m 257
 901.150390625 179 l 257
 1091.15039062 179 l 257
 1398.34179688 1023 l 257
 1208.34179688 1023 l 257
1748.36328125 1633 m 257
 1210.16113281 1028 l 257
 1398.16113281 1028 l 257
 1780.91113281 1640 l 257
 1748.36328125 1633 l 257
901.150390625 179 m 257
 1032.22851562 -406 l 257
 1064.22851562 -406 l 257
 1091.15039062 179 l 257
 901.150390625 179 l 257
EndSplineSet
EndChar

StartChar: parenright
Encoding: 41 41 263
GlifName: parenright
Width: 2048
VWidth: 0
GlyphClass: 2
Flags: W
LayerCount: 2
Fore
SplineSet
1372.34179688 1023 m 257
 1065.15039062 179 l 257
 1255.15039062 179 l 257
 1562.34179688 1023 l 257
 1372.34179688 1023 l 257
1450.90722656 1629 m 257
 1372.34179688 1023 l 257
 1562.34179688 1023 l 257
 1488.90722656 1629 l 257
 1450.90722656 1629 l 257
1065.15039062 179 m 257
 710.228515625 -406 l 257
 738.228515625 -406 l 257
 1255.15039062 179 l 257
 1065.15039062 179 l 257
EndSplineSet
EndChar

StartChar: percent
Encoding: 37 37 264
GlifName: percent
Width: 2048
VWidth: 0
GlyphClass: 2
Flags: W
LayerCount: 2
Fore
SplineSet
779.9921875 522 m 257
 771.216796875 377 l 257
 1718.60253906 716 l 257
 1727.01464844 860 l 257
 779.9921875 522 l 257
1147.83789062 1148 m 257
 1029.18359375 822 l 257
 1107.18359375 822 l 257
 1225.83789062 1148 l 257
 1147.83789062 1148 l 257
1149.29394531 1152 m 257
 1114.71679688 1057 l 257
 1462.71679688 1057 l 257
 1497.29394531 1152 l 257
 1149.29394531 1152 l 257
1047.01855469 871 m 257
 1017.17285156 789 l 257
 1361.17285156 789 l 257
 1391.01855469 871 l 257
 1047.01855469 871 l 257
1405.29394531 1152 m 257
 1273.90039062 791 l 257
 1365.90039062 791 l 257
 1497.29394531 1152 l 257
 1405.29394531 1152 l 257
1216.69140625 436 m 257
 1098.03710938 110 l 257
 1176.03710938 110 l 257
 1294.69140625 436 l 257
 1216.69140625 436 l 257
1218.14648438 440 m 257
 1183.56933594 345 l 257
 1529.56933594 345 l 257
 1564.14648438 440 l 257
 1218.14648438 440 l 257
1115.87109375 159 m 257
 1086.02539062 77 l 257
 1430.02539062 77 l 257
 1459.87109375 159 l 257
 1115.87109375 159 l 257
1472.14648438 440 m 257
 1340.75390625 79 l 257
 1432.75390625 79 l 257
 1564.14648438 440 l 257
 1472.14648438 440 l 257
EndSplineSet
EndChar

StartChar: period
Encoding: 46 46 265
GlifName: period
Width: 2048
VWidth: 0
GlyphClass: 2
Flags: W
LayerCount: 2
Fore
SplineSet
981.537109375 246 m 257
 892 0 l 257
 1156 0 l 257
 1245.53710938 246 l 257
 981.537109375 246 l 257
EndSplineSet
EndChar

StartChar: periodcentered
Encoding: 183 183 266
GlifName: periodcentered
Width: 2048
VWidth: 0
GlyphClass: 2
Flags: W
LayerCount: 2
Fore
SplineSet
1309.11035156 1146 m 257
 1219.20898438 899 l 257
 1483.20898438 899 l 257
 1573.11035156 1146 l 257
 1309.11035156 1146 l 257
EndSplineSet
EndChar

StartChar: perthousand
Encoding: 8240 8240 267
GlifName: perthousand
Width: 2048
VWidth: 0
GlyphClass: 2
Flags: W
LayerCount: 2
Fore
SplineSet
1332.69140625 436 m 257
 1214.03710938 110 l 257
 1292.03710938 110 l 257
 1410.69140625 436 l 257
 1332.69140625 436 l 257
1334.14648438 440 m 257
 1299.56933594 345 l 257
 1645.56933594 345 l 257
 1680.14648438 440 l 257
 1334.14648438 440 l 257
1231.87109375 159 m 257
 1202.02539062 77 l 257
 1546.02539062 77 l 257
 1575.87109375 159 l 257
 1231.87109375 159 l 257
1588.14648438 440 m 257
 1456.75390625 79 l 257
 1548.75390625 79 l 257
 1680.14648438 440 l 257
 1588.14648438 440 l 257
717.9921875 522 m 257
 707.216796875 377 l 257
 1654.60253906 716 l 257
 1663.01464844 860 l 257
 717.9921875 522 l 257
1085.83789062 1148 m 257
 967.18359375 822 l 257
 1045.18359375 822 l 257
 1163.83789062 1148 l 257
 1085.83789062 1148 l 257
1087.29394531 1152 m 257
 1052.71679688 1057 l 257
 1398.71679688 1057 l 257
 1433.29394531 1152 l 257
 1087.29394531 1152 l 257
985.018554688 871 m 257
 955.172851562 789 l 257
 1299.17285156 789 l 257
 1329.01855469 871 l 257
 985.018554688 871 l 257
1341.29394531 1152 m 257
 1209.90039062 791 l 257
 1301.90039062 791 l 257
 1433.29394531 1152 l 257
 1341.29394531 1152 l 257
930.69140625 436 m 257
 812.037109375 110 l 257
 890.037109375 110 l 257
 1008.69140625 436 l 257
 930.69140625 436 l 257
932.146484375 440 m 257
 897.569335938 345 l 257
 1245.56933594 345 l 257
 1280.14648438 440 l 257
 932.146484375 440 l 257
829.87109375 159 m 257
 800.025390625 77 l 257
 1144.02539062 77 l 257
 1173.87109375 159 l 257
 829.87109375 159 l 257
1188.14648438 440 m 257
 1056.75390625 79 l 257
 1148.75390625 79 l 257
 1280.14648438 440 l 257
 1188.14648438 440 l 257
EndSplineSet
EndChar

StartChar: plus
Encoding: 43 43 268
GlifName: plus
Width: 2048
VWidth: 0
GlyphClass: 2
Flags: W
LayerCount: 2
Fore
SplineSet
1340.40722656 1221 m 257
 956.0546875 165 l 257
 1181.0546875 165 l 257
 1565.40722656 1221 l 257
 1340.40722656 1221 l 257
871.819335938 821 m 257
 796.11328125 613 l 257
 1698.11328125 613 l 257
 1773.81933594 821 l 257
 871.819335938 821 l 257
EndSplineSet
EndChar

StartChar: plusminus
Encoding: 177 177 269
GlifName: plusminus
Width: 2048
VWidth: 0
GlyphClass: 2
Flags: W
LayerCount: 2
Fore
SplineSet
650.30859375 108 m 257
 574.602539062 -100 l 257
 1400.60253906 -100 l 257
 1476.30859375 108 l 257
 650.30859375 108 l 257
1340.40722656 1221 m 257
 956.0546875 165 l 257
 1181.0546875 165 l 257
 1565.40722656 1221 l 257
 1340.40722656 1221 l 257
871.819335938 821 m 257
 796.11328125 613 l 257
 1698.11328125 613 l 257
 1773.81933594 821 l 257
 871.819335938 821 l 257
EndSplineSet
EndChar

StartChar: q
Encoding: 113 113 270
GlifName: q
Width: 2048
VWidth: 0
GlyphClass: 2
Flags: W
LayerCount: 2
Fore
SplineSet
1861.12792969 1201 m 257
 1276.22851562 -406 l 257
 1474.22851562 -406 l 257
 2059.12792969 1201 l 257
 1861.12792969 1201 l 257
522.341796875 1023 m 257
 449.547851562 823 l 257
 1899.54785156 823 l 257
 1972.34179688 1023 l 257
 522.341796875 1023 l 257
225.885742188 203 m 257
 152 0 l 257
 1568 0 l 257
 1641.88574219 203 l 257
 225.885742188 203 l 257
461.194335938 855 m 257
 188.944335938 107 l 257
 388.944335938 107 l 257
 661.194335938 855 l 257
 461.194335938 855 l 257
1364.45605469 -268 m 257
 1314.22851562 -406 l 257
 1750.22851562 -406 l 257
 1800.45605469 -268 l 257
 1364.45605469 -268 l 257
EndSplineSet
EndChar

StartChar: question
Encoding: 63 63 271
GlifName: question
Width: 2048
VWidth: 0
GlyphClass: 2
Flags: W
LayerCount: 2
Fore
SplineSet
969.900390625 247 m 257
 880 0 l 257
 1126 0 l 257
 1215.90039062 247 l 257
 969.900390625 247 l 257
1256.87109375 1519 m 257
 1189.171875 1333 l 257
 1825.171875 1333 l 257
 1892.87109375 1519 l 257
 1256.87109375 1519 l 257
1701.05078125 1514 m 257
 1501.59570312 966 l 257
 1695.59570312 966 l 257
 1895.05078125 1514 l 257
 1701.05078125 1514 l 257
1249.4296875 1015 m 257
 1177 816 l 257
 1641 816 l 257
 1713.4296875 1015 l 257
 1249.4296875 1015 l 257
1247.97363281 1011 m 257
 1022.67675781 392 l 257
 1270.67675781 392 l 257
 1495.97363281 1011 l 257
 1247.97363281 1011 l 257
EndSplineSet
EndChar

StartChar: questiondown
Encoding: 191 191 272
GlifName: questiondown
Width: 2048
VWidth: 0
GlyphClass: 2
Flags: W
LayerCount: 2
Fore
SplineSet
1631.33398438 1273 m 257
 1720.87109375 1519 l 257
 1470.87109375 1519 l 257
 1380.96972656 1272 l 257
 1631.33398438 1273 l 257
1344 0 m 257
 1411.69824219 186 l 257
 775.698242188 186 l 257
 708 0 l 257
 1344 0 l 257
899.8203125 5 m 257
 1099.27539062 553 l 257
 905.275390625 553 l 257
 705.8203125 5 l 257
 899.8203125 5 l 257
1351.44140625 504 m 257
 1423.87109375 703 l 257
 959.87109375 703 l 257
 887.44140625 504 l 257
 1351.44140625 504 l 257
1352.89648438 508 m 257
 1578.19433594 1127 l 257
 1330.19433594 1127 l 257
 1104.89648438 508 l 257
 1352.89648438 508 l 257
EndSplineSet
EndChar

StartChar: quotedbl
Encoding: 34 34 273
GlifName: quotedbl
Width: 2048
VWidth: 0
GlyphClass: 2
Flags: W
LayerCount: 2
Fore
SplineSet
1234.625 1326 m 257
 1378.625 1326 l 257
 1468.88867188 1574 l 257
 1324.88867188 1574 l 257
 1234.625 1326 l 257
1634.625 1326 m 257
 1778.625 1326 l 257
 1868.88867188 1574 l 257
 1724.88867188 1574 l 257
 1634.625 1326 l 257
EndSplineSet
EndChar

StartChar: quotedblbase
Encoding: 8222 8222 274
GlifName: quotedblbase
Width: 2048
VWidth: 0
GlyphClass: 2
Flags: W
LayerCount: 2
Fore
SplineSet
284.260742188 237 m 257
 200.912109375 8 l 257
 448.912109375 8 l 257
 532.260742188 237 l 257
 284.260742188 237 l 257
346.135742188 135 m 257
 125.860351562 -146 l 257
 247.022460938 -206 l 257
 444 0 l 257
 346.135742188 135 l 257
683.260742188 237 m 257
 599.912109375 8 l 257
 847.912109375 8 l 257
 931.260742188 237 l 257
 683.260742188 237 l 257
745.135742188 135 m 257
 524.860351562 -146 l 257
 646.022460938 -206 l 257
 843 0 l 257
 745.135742188 135 l 257
EndSplineSet
EndChar

StartChar: quotedblleft
Encoding: 8220 8220 275
GlifName: quotedblleft
Width: 2048
VWidth: 0
GlyphClass: 2
Flags: W
LayerCount: 2
Fore
SplineSet
1640.43359375 1842 m 257
 1723.78222656 2071 l 257
 1475.78222656 2071 l 257
 1392.43359375 1842 l 257
 1640.43359375 1842 l 257
1579.55859375 1944 m 257
 1799.83398438 2225 l 257
 1677.671875 2285 l 257
 1479.23828125 2075 l 257
 1579.55859375 1944 l 257
1976.43359375 1842 m 257
 2059.78222656 2071 l 257
 1811.78222656 2071 l 257
 1728.43359375 1842 l 257
 1976.43359375 1842 l 257
1915.55859375 1944 m 257
 2135.83398438 2225 l 257
 2013.671875 2285 l 257
 1815.23828125 2075 l 257
 1915.55859375 1944 l 257
EndSplineSet
EndChar

StartChar: quotedblright
Encoding: 8221 8221 276
GlifName: quotedblright
Width: 2048
VWidth: 0
GlyphClass: 2
Flags: W
LayerCount: 2
Fore
SplineSet
1899.671875 2285 m 257
 1816.32324219 2056 l 257
 2064.32324219 2056 l 257
 2147.671875 2285 l 257
 1899.671875 2285 l 257
1962.546875 2183 m 257
 1742.27148438 1902 l 257
 1862.43359375 1842 l 257
 2060.8671875 2052 l 257
 1962.546875 2183 l 257
1581.671875 2285 m 257
 1498.32324219 2056 l 257
 1746.32324219 2056 l 257
 1829.671875 2285 l 257
 1581.671875 2285 l 257
1644.546875 2183 m 257
 1424.27148438 1902 l 257
 1544.43359375 1842 l 257
 1742.8671875 2052 l 257
 1644.546875 2183 l 257
EndSplineSet
EndChar

StartChar: quoteleft
Encoding: 8216 8216 277
GlifName: quoteleft
Width: 2048
VWidth: 0
GlyphClass: 2
Flags: W
LayerCount: 2
Fore
SplineSet
1808.43359375 1842 m 257
 1891.78222656 2071 l 257
 1643.78222656 2071 l 257
 1560.43359375 1842 l 257
 1808.43359375 1842 l 257
1747.55859375 1944 m 257
 1967.83398438 2225 l 257
 1845.671875 2285 l 257
 1647.23828125 2075 l 257
 1747.55859375 1944 l 257
EndSplineSet
EndChar

StartChar: quoteright
Encoding: 8217 8217 278
GlifName: quoteright
Width: 2048
VWidth: 0
GlyphClass: 2
Flags: W
LayerCount: 2
Fore
SplineSet
1741.671875 2285 m 257
 1658.32324219 2056 l 257
 1906.32324219 2056 l 257
 1989.671875 2285 l 257
 1741.671875 2285 l 257
1802.546875 2183 m 257
 1582.27148438 1902 l 257
 1704.43359375 1842 l 257
 1902.8671875 2052 l 257
 1802.546875 2183 l 257
EndSplineSet
EndChar

StartChar: quotesinglbase
Encoding: 8218 8218 279
GlifName: quotesinglbase
Width: 2048
VWidth: 0
GlyphClass: 2
Flags: W
LayerCount: 2
Fore
SplineSet
996.260742188 237 m 257
 912.912109375 8 l 257
 1160.91210938 8 l 257
 1244.26074219 237 l 257
 996.260742188 237 l 257
1057.13574219 135 m 257
 836.860351562 -146 l 257
 959.022460938 -206 l 257
 1156 0 l 257
 1057.13574219 135 l 257
EndSplineSet
EndChar

StartChar: quotesingle
Encoding: 39 39 280
GlifName: quotesingle
Width: 2048
VWidth: 0
GlyphClass: 2
Flags: W
LayerCount: 2
Fore
SplineSet
1503.49902344 1496 m 257
 1419.05859375 1264 l 257
 1549.05859375 1264 l 257
 1633.49902344 1496 l 257
 1503.49902344 1496 l 257
EndSplineSet
EndChar

StartChar: r
Encoding: 114 114 281
GlifName: r
Width: 2048
VWidth: 0
GlyphClass: 2
Flags: W
AnchorPoint: "base" 500 -70 basechar 0
AnchorPoint: "top" 504 1174 basechar 0
LayerCount: 2
Fore
SplineSet
530.341796875 1023 m 257
 456.819335938 821 l 257
 2188.81933594 821 l 257
 2262.34179688 1023 l 257
 530.341796875 1023 l 257
1219.22753906 954 m 257
 872 0 l 257
 1072 0 l 257
 1419.22753906 954 l 257
 1219.22753906 954 l 257
2045.23535156 976 m 257
 1926.58105469 650 l 257
 2126.58105469 650 l 257
 2245.23535156 976 l 257
 2045.23535156 976 l 257
EndSplineSet
EndChar

StartChar: registered
Encoding: 174 174 284
GlifName: registered
Width: 2048
VWidth: 0
GlyphClass: 2
Flags: W
LayerCount: 2
Fore
SplineSet
984.6171875 1032 m 257
 791.348632812 501 l 257
 859.348632812 501 l 257
 1052.6171875 1032 l 257
 984.6171875 1032 l 257
1009.6171875 1032 m 257
 984.502929688 963 l 257
 1813.50292969 963 l 257
 1838.6171875 1032 l 257
 1009.6171875 1032 l 257
1778.6171875 1032 m 257
 1694.90429688 802 l 257
 1763.90429688 802 l 257
 1847.6171875 1032 l 257
 1778.6171875 1032 l 257
948.473632812 875 m 257
 921.540039062 801 l 257
 1759.54003906 801 l 257
 1786.47363281 875 l 257
 948.473632812 875 l 257
971.452148438 809 m 257
 1592.52539062 485 l 257
 1727.52539062 485 l 257
 1093.45214844 809 l 257
 971.452148438 809 l 257
712.421875 1537 m 257
 153 0 l 257
 354 0 l 257
 913.421875 1537 l 257
 712.421875 1537 l 257
2251.421875 1537 m 257
 1692 0 l 257
 1895 0 l 257
 2454.421875 1537 l 257
 2251.421875 1537 l 257
853.421875 1537 m 257
 780.627929688 1337 l 257
 2223.62792969 1337 l 257
 2296.421875 1537 l 257
 853.421875 1537 l 257
344.25 204 m 257
 270 0 l 257
 1743 0 l 257
 1817.25 204 l 257
 344.25 204 l 257
EndSplineSet
EndChar

StartChar: ring
Encoding: 730 730 285
GlifName: ring
Width: 2048
VWidth: 0
GlyphClass: 2
Flags: W
LayerCount: 2
Fore
SplineSet
1404.69042969 1252 m 257
 1552.69042969 1252 l 257
 1505.375 1122 l 257
 1357.375 1122 l 257
 1404.69042969 1252 l 257
1332.8125 1343 m 257
 1220.34570312 1034 l 257
 1580.34570312 1034 l 257
 1692.8125 1343 l 257
 1332.8125 1343 l 257
EndSplineSet
EndChar

StartChar: s
Encoding: 115 115 286
GlifName: s
Width: 2048
VWidth: 0
GlyphClass: 2
Flags: W
AnchorPoint: "base" 512 -66 basechar 0
AnchorPoint: "top" 472 1134 basechar 0
LayerCount: 2
Fore
SplineSet
591.341796875 1023 m 257
 519.639648438 826 l 257
 2128.63964844 826 l 257
 2200.34179688 1023 l 257
 591.341796875 1023 l 257
591.341796875 1023 m 257
 486.881835938 736 l 257
 686.881835938 736 l 257
 791.341796875 1023 l 257
 591.341796875 1023 l 257
293.158203125 201 m 257
 220 0 l 257
 1825 0 l 257
 1898.15820312 201 l 257
 293.158203125 201 l 257
1730.64355469 293 m 257
 1628.3671875 12 l 257
 1828.3671875 12 l 257
 1930.64355469 293 l 257
 1730.64355469 293 l 257
487.881835938 736 m 257
 1730.64355469 293 l 257
 1930.64355469 293 l 257
 687.881835938 736 l 257
 487.881835938 736 l 257
EndSplineSet
EndChar

StartChar: section
Encoding: 167 167 291
GlifName: section
Width: 2048
VWidth: 0
GlyphClass: 2
Flags: W
LayerCount: 2
Fore
SplineSet
1084.59472656 1238 m 257
 1010.70898438 1035 l 257
 1608.70898438 1035 l 257
 1682.59472656 1238 l 257
 1084.59472656 1238 l 257
1085.6875 1241 m 257
 854.202148438 605 l 257
 1056.20214844 605 l 257
 1287.6875 1241 l 257
 1085.6875 1241 l 257
647.797851562 -61 m 257
 575.368164062 -260 l 257
 1283.36816406 -260 l 257
 1355.79785156 -61 l 257
 647.797851562 -61 l 257
1119.73144531 -259 m 257
 1319.73144531 -259 l 257
 1448.57714844 95 l 257
 1248.57714844 95 l 257
 1119.73144531 -259 l 257
854.202148438 605 m 257
 1248.57714844 95 l 257
 1448.57714844 95 l 257
 1056.20214844 605 l 257
 854.202148438 605 l 257
1225.81542969 1626 m 257
 1151.9296875 1423 l 257
 1749.9296875 1423 l 257
 1823.81542969 1626 l 257
 1225.81542969 1626 l 257
1226.90722656 1629 m 257
 1084.23144531 1237 l 257
 1286.23144531 1237 l 257
 1428.90722656 1629 l 257
 1226.90722656 1629 l 257
766.095703125 286 m 257
 693.665039062 87 l 257
 1401.66503906 87 l 257
 1474.09570312 286 l 257
 766.095703125 286 l 257
1236.02929688 88 m 257
 1438.02929688 88 l 257
 1566.875 442 l 257
 1364.875 442 l 257
 1236.02929688 88 l 257
1084.23144531 1237 m 257
 1364.875 442 l 257
 1566.875 442 l 257
 1286.23144531 1237 l 257
 1084.23144531 1237 l 257
EndSplineSet
EndChar

StartChar: semicolon
Encoding: 59 59 292
GlifName: semicolon
Width: 2048
VWidth: 0
GlyphClass: 2
Flags: W
LayerCount: 2
Fore
SplineSet
1068.50683594 430 m 257
 985.158203125 201 l 257
 1233.15820312 201 l 257
 1316.50683594 430 l 257
 1068.50683594 430 l 257
1129.38183594 328 m 257
 909.106445312 47 l 257
 1031.26855469 -13 l 257
 1229.70214844 197 l 257
 1129.38183594 328 l 257
1205.01855469 871 m 257
 1115.1171875 624 l 257
 1381.1171875 624 l 257
 1471.01855469 871 l 257
 1205.01855469 871 l 257
EndSplineSet
EndChar

StartChar: seven
Encoding: 55 55 293
GlifName: seven
Width: 2048
VWidth: 0
GlyphClass: 2
Flags: W
LayerCount: 2
Fore
SplineSet
547.1796875 1355 m 257
 2281.1796875 1355 l 257
 1788 0 l 257
 1991 0 l 257
 2557.70117188 1557 l 257
 620.701171875 1557 l 257
 547.1796875 1355 l 257
EndSplineSet
EndChar

StartChar: six
Encoding: 54 54 294
GlifName: six
Width: 2048
VWidth: 0
GlyphClass: 2
Flags: W
LayerCount: 2
Fore
SplineSet
604.42578125 1548 m 257
 114.158203125 201 l 257
 41 0 l 257
 2004 0 l 257
 2353.04785156 959 l 257
 593.047851562 959 l 257
 734.631835938 1348 l 257
 2499.63183594 1348 l 257
 2572.42578125 1548 l 257
 604.42578125 1548 l 257
2072.25292969 759 m 257
 1869.88574219 203 l 257
 323.885742188 203 l 257
 526.252929688 759 l 257
 2072.25292969 759 l 257
EndSplineSet
EndChar

StartChar: slash
Encoding: 47 47 295
GlifName: slash
Width: 2048
VWidth: 0
GlyphClass: 2
Flags: W
LayerCount: 2
Fore
SplineSet
1754.76757812 1483 m 257
 647.18359375 6 l 257
 808.614257812 -67 l 257
 1916.19824219 1410 l 257
 1754.76757812 1483 l 257
EndSplineSet
EndChar

StartChar: sterling
Encoding: 163 163 297
GlifName: sterling
Width: 2048
VWidth: 0
GlyphClass: 2
Flags: W
LayerCount: 2
Fore
SplineSet
1495.60644531 1543 m 257
 1423.17578125 1344 l 257
 1714.17578125 1344 l 257
 1786.60644531 1543 l 257
 1495.60644531 1543 l 257
887.256835938 770 m 257
 814.827148438 571 l 257
 1540.82714844 571 l 257
 1613.25683594 770 l 257
 887.256835938 770 l 257
1451.2421875 1542 m 257
 890 0 l 257
 1088 0 l 257
 1649.2421875 1542 l 257
 1451.2421875 1542 l 257
788.522460938 202 m 257
 715 0 l 257
 1441 0 l 257
 1514.52246094 202 l 257
 788.522460938 202 l 257
EndSplineSet
EndChar

StartChar: t
Encoding: 116 116 298
GlifName: t
Width: 2048
VWidth: 0
GlyphClass: 2
Flags: W
AnchorPoint: "base" 500 -82 basechar 0
AnchorPoint: "top" 500 1642 basechar 0
LayerCount: 2
Fore
SplineSet
1485.42578125 1548 m 257
 922 0 l 257
 1122 0 l 257
 1685.42578125 1548 l 257
 1485.42578125 1548 l 257
1002.4296875 199 m 257
 930 0 l 257
 1822 0 l 257
 1894.4296875 199 l 257
 1002.4296875 199 l 257
558.341796875 1023 m 257
 485.911132812 824 l 257
 2159.91113281 824 l 257
 2232.34179688 1023 l 257
 558.341796875 1023 l 257
EndSplineSet
EndChar

StartChar: tcaron
Encoding: 357 357 299
GlifName: tcaron
Width: 2048
VWidth: 0
GlyphClass: 2
Flags: HW
LayerCount: 2
Fore
SplineSet
1410.51074219 1529 m 257
 854 0 l 257
 1055 0 l 257
 1611.51074219 1529 l 257
 1410.51074219 1529 l 257
1079.4296875 199 m 257
 1007 0 l 257
 1910 0 l 257
 1982.4296875 199 l 257
 1079.4296875 199 l 257
442.341796875 1023 m 257
 369.911132812 824 l 257
 2172.91113281 824 l 257
 2245.34179688 1023 l 257
 442.341796875 1023 l 257
1940.49902344 1496 m 257
 1865.88574219 1291 l 257
 1995.88574219 1291 l 257
 2070.49902344 1496 l 257
 1940.49902344 1496 l 257
EndSplineSet
EndChar

StartChar: thorn
Encoding: 254 254 300
GlifName: thorn
Width: 2048
VWidth: 0
GlyphClass: 2
Flags: HW
LayerCount: 2
Fore
SplineSet
549.345703125 1034 m 257
 25.228515625 -406 l 257
 225.228515625 -406 l 257
 749.345703125 1034 l 257
 549.345703125 1034 l 257
602.768554688 667 m 257
 530.337890625 468 l 257
 2110.33789062 468 l 257
 2182.76855469 667 l 257
 602.768554688 667 l 257
370.18359375 6 m 257
 297.025390625 -195 l 257
 1867.02539062 -195 l 257
 1940.18359375 6 l 257
 370.18359375 6 l 257
1957.29003906 597 m 257
 1702.14746094 -104 l 257
 1900.14746094 -104 l 257
 2155.29003906 597 l 257
 1957.29003906 597 l 257
EndSplineSet
EndChar

StartChar: three
Encoding: 51 51 301
GlifName: three
Width: 2048
VWidth: 0
GlyphClass: 2
Flags: W
LayerCount: 2
Fore
SplineSet
368.881835938 736 m 257
 2050.88183594 736 l 257
 1852.88183594 192 l 257
 128.881835938 192 l 257
 56.087890625 -8 l 257
 1984.08789062 -8 l 257
 2552.24609375 1553 l 257
 654.24609375 1553 l 257
 581.452148438 1353 l 257
 2273.45214844 1353 l 257
 2121.67578125 936 l 257
 441.67578125 936 l 257
 368.881835938 736 l 257
EndSplineSet
EndChar

StartChar: threequarters
Encoding: 190 190 302
GlifName: threequarters
Width: 2048
VWidth: 0
GlyphClass: 2
Flags: W
LayerCount: 2
Fore
SplineSet
1927.76757812 1483 m 257
 214.18359375 6 l 257
 307.614257812 -67 l 257
 2021.19824219 1410 l 257
 1927.76757812 1483 l 257
558.969726562 1272 m 257
 1132.96972656 1272 l 257
 1064.54394531 1084 l 257
 453.543945312 1084 l 257
 436.4296875 1015 l 257
 1216.4296875 1015 l 257
 1412.24609375 1553 l 257
 651.24609375 1553 l 257
 626.131835938 1484 l 257
 1208.13183594 1484 l 257
 1155.71972656 1340 l 257
 583.719726562 1340 l 257
 558.969726562 1272 l 257
1387.75 340 m 257
 1934.75 340 l 257
 1813.54785156 7 l 257
 1980.54785156 7 l 257
 2228.04785156 687 l 257
 2059.04785156 687 l 257
 1964.77929688 428 l 257
 1588.77929688 428 l 257
 1683.77539062 689 l 257
 1514.77539062 689 l 257
 1387.75 340 l 257
EndSplineSet
EndChar

StartChar: tilde
Encoding: 732 732 303
GlifName: tilde
Width: 2048
VWidth: 0
GlyphClass: 2
Flags: W
LayerCount: 2
Fore
SplineSet
1142.26074219 781 m 257
 1106.22753906 682 l 257
 1434.02539062 621 l 257
 1470.05859375 720 l 257
 1142.26074219 781 l 257
883.150390625 723 m 257
 863.481445312 625 l 257
 1106.22753906 682 l 257
 1142.26074219 781 l 257
 883.150390625 723 l 257
1470.05859375 720 m 257
 1434.02539062 621 l 257
 1667.34570312 762 l 257
 1678.28613281 858 l 257
 1470.05859375 720 l 257
EndSplineSet
EndChar

StartChar: tildecomb
Encoding: 771 771 304
GlifName: tildecomb
Width: 0
VWidth: 0
GlyphClass: 2
AnchorPoint: "top" 492 1855 mark 0
AnchorPoint: "top" 1732 1775 mark 0
LayerCount: 2
Fore
SplineSet
1611.40039062 2015 m 257
 1575.3671875 1916 l 257
 1903.16503906 1855 l 257
 1939.19824219 1954 l 257
 1611.40039062 2015 l 257
1352.29003906 1957 m 257
 1330.62109375 1859 l 257
 1575.3671875 1916 l 257
 1611.40039062 2015 l 257
 1352.29003906 1957 l 257
1939.19824219 1954 m 257
 1903.16503906 1855 l 257
 2134.484375 1996 l 257
 2145.42578125 2092 l 257
 1939.19824219 1954 l 257
EndSplineSet
EndChar

StartChar: two
Encoding: 50 50 306
GlifName: two
Width: 2048
VWidth: 0
GlyphClass: 2
Flags: W
LayerCount: 2
Fore
SplineSet
598.17578125 1344 m 257
 2231.17578125 1344 l 257
 2072.48535156 908 l 257
 446.485351562 908 l 257
 116 0 l 257
 1928 0 l 257
 2000.79394531 200 l 257
 391.793945312 200 l 257
 576.327148438 707 l 257
 2199.32714844 707 l 257
 2505.42578125 1548 l 257
 672.42578125 1548 l 257
 598.17578125 1344 l 257
EndSplineSet
EndChar

StartChar: u
Encoding: 117 117 307
GlifName: u
Width: 2048
VWidth: 0
GlyphClass: 2
Flags: W
AnchorPoint: "base" 724 -50 basechar 0
AnchorPoint: "top" 440 1146 basechar 0
LayerCount: 2
Fore
SplineSet
522.341796875 1023 m 257
 150 0 l 257
 350 0 l 257
 722.341796875 1023 l 257
 522.341796875 1023 l 257
1754.34179688 1023 m 257
 1382 0 l 257
 1582 0 l 257
 1954.34179688 1023 l 257
 1754.34179688 1023 l 257
268.793945312 200 m 257
 196 0 l 257
 1898 0 l 257
 1970.79394531 200 l 257
 268.793945312 200 l 257
EndSplineSet
EndChar

StartChar: underscore
Encoding: 95 95 315
GlifName: underscore
Width: 2048
VWidth: 0
GlyphClass: 2
Flags: W
LayerCount: 2
Fore
SplineSet
-1.8203125 -5 m 257
 -25.841796875 -71 l 257
 2026.15820312 -71 l 257
 2050.1796875 -5 l 257
 -1.8203125 -5 l 257
EndSplineSet
EndChar

StartChar: uni00B2
Encoding: 178 178 317
GlifName: uni00B_2
Width: 2048
VWidth: 0
GlyphClass: 2
Flags: W
LayerCount: 2
Fore
SplineSet
914.577148438 1455 m 257
 1804.57714844 1455 l 257
 1733.23828125 1259 l 257
 852.23828125 1259 l 257
 703.73828125 851 l 257
 1670.73828125 851 l 257
 1703.13183594 940 l 257
 856.131835938 940 l 257
 939.1171875 1168 l 257
 1806.1171875 1168 l 257
 1944.42578125 1548 l 257
 948.42578125 1548 l 257
 914.577148438 1455 l 257
EndSplineSet
EndChar

StartChar: uni00B3
Encoding: 179 179 318
GlifName: uni00B_3
Width: 2048
VWidth: 0
GlyphClass: 2
Flags: W
LayerCount: 2
Fore
SplineSet
886.940429688 1184 m 257
 1838.94042969 1184 l 257
 1749.40429688 938 l 257
 773.404296875 938 l 257
 741.010742188 849 l 257
 1833.01074219 849 l 257
 2089.24609375 1553 l 257
 1014.24609375 1553 l 257
 981.48828125 1463 l 257
 1939.48828125 1463 l 257
 1871.0625 1275 l 257
 920.0625 1275 l 257
 886.940429688 1184 l 257
EndSplineSet
EndChar

StartChar: uni00B9
Encoding: 185 185 319
GlifName: uni00B_9
Width: 2048
VWidth: 0
GlyphClass: 2
Flags: W
LayerCount: 2
Fore
SplineSet
1345.59179688 887 m 257
 1445.09179688 887 l 257
 1726.8046875 1661 l 257
 1627.3046875 1661 l 257
 1345.59179688 887 l 257
1629.3046875 1661 m 257
 1476.43652344 1513 l 257
 1533.23828125 1463 l 257
 1686.28808594 1611.5 l 257
 1629.3046875 1661 l 257
EndSplineSet
EndChar

StartChar: uni0123
Encoding: 291 291 321
GlifName: uni0123
Width: 2048
VWidth: 0
GlyphClass: 2
Flags: HW
LayerCount: 2
Fore
SplineSet
669.341796875 1023 m 257
 297 0 l 257
 489 0 l 257
 861.341796875 1023 l 257
 669.341796875 1023 l 257
709.341796875 1023 m 257
 636.547851562 823 l 257
 2176.54785156 823 l 257
 2249.34179688 1023 l 257
 709.341796875 1023 l 257
2077.34179688 1023 m 257
 1555.40820312 -411 l 257
 1749.40820312 -411 l 257
 2271.34179688 1023 l 257
 2077.34179688 1023 l 257
432.06640625 198 m 257
 360 0 l 257
 1841 0 l 257
 1913.06640625 198 l 257
 432.06640625 198 l 257
213.110351562 -214 m 257
 140.680664062 -413 l 257
 1699.68066406 -413 l 257
 1772.11035156 -214 l 257
 213.110351562 -214 l 257
1503.49902344 1496 m 257
 1395.03613281 1198 l 257
 1525.03613281 1198 l 257
 1633.49902344 1496 l 257
 1503.49902344 1496 l 257
EndSplineSet
EndChar

StartChar: uni0192
Encoding: 402 402 332
GlifName: uni0192
Width: 2048
VWidth: 0
GlyphClass: 2
Flags: W
LayerCount: 2
Fore
SplineSet
1135.34179688 1023 m 257
 615.228515625 -406 l 257
 815.228515625 -406 l 257
 1335.34179688 1023 l 257
 1135.34179688 1023 l 257
1197.34179688 1023 m 257
 1127.45898438 831 l 257
 1905.45898438 831 l 257
 1975.34179688 1023 l 257
 1197.34179688 1023 l 257
432.458984375 559 m 257
 358.573242188 356 l 257
 1635.57324219 356 l 257
 1709.45898438 559 l 257
 432.458984375 559 l 257
93.841796875 -201 m 257
 19.228515625 -406 l 257
 817.228515625 -406 l 257
 891.841796875 -201 l 257
 93.841796875 -201 l 257
EndSplineSet
EndChar

StartChar: uni0237
Encoding: 567 567 337
GlifName: uni0237
Width: 2048
VWidth: 0
GlyphClass: 2
Flags: W
AnchorPoint: "top" 720 1182 basechar 0
AnchorPoint: "top" 720 1182 basechar 0
LayerCount: 2
Fore
SplineSet
2012.34179688 1023 m 257
 1490.40820312 -411 l 257
 1688.40820312 -411 l 257
 2210.34179688 1023 l 257
 2012.34179688 1023 l 257
133.930664062 -209 m 257
 62.228515625 -406 l 257
 1592.22851562 -406 l 257
 1663.93066406 -209 l 257
 133.930664062 -209 l 257
207.81640625 -6 m 257
 82.24609375 -351 l 257
 282.24609375 -351 l 257
 407.81640625 -6 l 257
 207.81640625 -6 l 257
EndSplineSet
EndChar

StartChar: uni02C9
Encoding: 713 713 341
GlifName: uni02C_9
Width: 2048
VWidth: 0
GlyphClass: 2
Flags: W
LayerCount: 2
Fore
SplineSet
1337.27148438 1630 m 257
 1307.42578125 1548 l 257
 1867.42578125 1548 l 257
 1897.27148438 1630 l 257
 1337.27148438 1630 l 257
EndSplineSet
EndChar

StartChar: uni02CA
Encoding: 714 714 342
GlifName: uni02C_A_
Width: 2048
VWidth: 0
GlyphClass: 2
Flags: W
LayerCount: 2
Fore
SplineSet
1554.08007812 1330 m 257
 1331.63183594 1076 l 257
 1402.88964844 1030 l 257
 1627.70214844 1285 l 257
 1554.08007812 1330 l 257
EndSplineSet
EndChar

StartChar: uni02CB
Encoding: 715 715 343
GlifName: uni02C_B_
Width: 2048
VWidth: 0
GlyphClass: 2
Flags: W
LayerCount: 2
Fore
SplineSet
1684.88574219 2107 m 257
 1718.98828125 1871 l 257
 1827.73046875 1917 l 257
 1793.9921875 2154 l 257
 1684.88574219 2107 l 257
EndSplineSet
EndChar

StartChar: uni0302
Encoding: 770 770 344
GlifName: uni0302
Width: 0
VWidth: 0
GlyphClass: 2
AnchorPoint: "top" 506 1427 mark 0
AnchorPoint: "top" 1719 1841 mark 0
LayerCount: 2
Fore
SplineSet
1899.13183594 2300 m 257
 1824.13183594 2300 l 257
 1580.02832031 1992 l 257
 1643.38183594 1960 l 257
 1899.13183594 2300 l 257
1805.29296875 2240 m 257
 1831.38183594 1960 l 257
 1916.57324219 1988 l 257
 1899.13183594 2300 l 257
 1805.29296875 2240 l 257
EndSplineSet
EndChar

StartChar: uni0304
Encoding: 772 772 345
GlifName: uni0304
Width: 0
VWidth: 0
GlyphClass: 2
AnchorPoint: "top" 488 1532 mark 0
AnchorPoint: "top" 1600 1476 mark 0
LayerCount: 2
Fore
SplineSet
1337.27148438 1630 m 257
 1307.42578125 1548 l 257
 1867.42578125 1548 l 257
 1897.27148438 1630 l 257
 1337.27148438 1630 l 257
EndSplineSet
EndChar

StartChar: uni0306
Encoding: 774 774 346
GlifName: uni0306
Width: 0
VWidth: 0
GlyphClass: 2
AnchorPoint: "top" 496 1440 mark 0
AnchorPoint: "top" 1568 1376 mark 0
LayerCount: 2
Fore
SplineSet
1752.42578125 1548 m 257
 1727.67578125 1480 l 257
 1917.42578125 1548 l 257
 1952.73144531 1645 l 257
 1752.42578125 1548 l 257
1428.42578125 1548 m 257
 1403.67578125 1480 l 257
 1727.67578125 1480 l 257
 1752.42578125 1548 l 257
 1428.42578125 1548 l 257
1287.27148438 1630 m 257
 1257.42578125 1548 l 257
 1403.67578125 1480 l 257
 1428.42578125 1548 l 257
 1287.27148438 1630 l 257
EndSplineSet
EndChar

StartChar: uni0307
Encoding: 775 775 347
GlifName: uni0307
Width: 0
VWidth: 0
GlyphClass: 2
AnchorPoint: "top" 508 1542 mark 0
AnchorPoint: "top" 1588 1582 mark 0
LayerCount: 2
Fore
SplineSet
1582.796875 1843 m 257
 1509.27539062 1641 l 257
 1733.27539062 1641 l 257
 1806.796875 1843 l 257
 1582.796875 1843 l 257
EndSplineSet
EndChar

StartChar: uni0308
Encoding: 776 776 348
GlifName: uni0308
Width: 0
VWidth: 0
GlyphClass: 2
AnchorPoint: "top" 516 1592 mark 0
AnchorPoint: "top" 1508 1368 mark 0
LayerCount: 2
Fore
SplineSet
1315.45117188 1625 m 257
 1260.4921875 1474 l 257
 1428.4921875 1474 l 257
 1483.45117188 1625 l 257
 1315.45117188 1625 l 257
1679.45117188 1625 m 257
 1624.4921875 1474 l 257
 1792.4921875 1474 l 257
 1847.45117188 1625 l 257
 1679.45117188 1625 l 257
EndSplineSet
EndChar

StartChar: uni030A
Encoding: 778 778 349
GlifName: uni030A_
Width: 0
VWidth: 0
GlyphClass: 2
AnchorPoint: "top" 541 1536 mark 0
AnchorPoint: "top" 1621 1424 mark 0
LayerCount: 2
Fore
SplineSet
1588.13183594 1756 m 257
 1736.13183594 1756 l 257
 1688.81542969 1626 l 257
 1540.81542969 1626 l 257
 1588.13183594 1756 l 257
1516.25292969 1847 m 257
 1403.421875 1537 l 257
 1763.421875 1537 l 257
 1876.25292969 1847 l 257
 1516.25292969 1847 l 257
EndSplineSet
EndChar

StartChar: uni030C
Encoding: 780 780 351
GlifName: uni030C_
Width: 0
VWidth: 0
GlyphClass: 2
AnchorPoint: "top" 504 1315 mark 0
AnchorPoint: "top" 1600 1275 mark 0
LayerCount: 2
Fore
SplineSet
1639.45507812 1364 m 257
 1653.73144531 1645 l 257
 1594.63183594 1620 l 257
 1589.09179688 1363 l 257
 1639.45507812 1364 l 257
1609.29003906 1413 m 257
 1639.45507812 1364 l 257
 1821.359375 1622 l 257
 1779.09472656 1646 l 257
 1609.29003906 1413 l 257
EndSplineSet
EndChar

StartChar: uni0326
Encoding: 806 806 352
GlifName: uni0326
Width: 0
VWidth: 0
GlyphClass: 2
AnchorPoint: "base" 534 -5 mark 0
AnchorPoint: "base" 534 -5 mark 0
LayerCount: 2
Fore
SplineSet
910 0 m 257
 826.287109375 -230 l 257
 1074.28710938 -230 l 257
 1158 0 l 257
 910 0 l 257
970.510742188 -103 m 257
 750.235351562 -384 l 257
 872.397460938 -444 l 257
 1070.83105469 -234 l 257
 970.510742188 -103 l 257
EndSplineSet
EndChar

StartChar: uni0327
Encoding: 807 807 353
GlifName: uni0327
Width: 0
VWidth: 0
GlyphClass: 2
AnchorPoint: "base" 654 191 mark 0
AnchorPoint: "base" 654 191 mark 0
LayerCount: 2
Fore
SplineSet
865.514648438 180 m 257
 747.587890625 -144 l 257
 903.587890625 -144 l 257
 1021.51464844 180 l 257
 865.514648438 180 l 257
697.176757812 -288 m 257
 654.228515625 -406 l 257
 1100.22851562 -406 l 257
 1143.17675781 -288 l 257
 697.176757812 -288 l 257
1096 0 m 257
 960.603515625 -372 l 257
 1112.60351562 -372 l 257
 1248 0 l 257
 1096 0 l 257
802 0 m 257
 745.220703125 -156 l 257
 1191.22070312 -156 l 257
 1248 0 l 257
 802 0 l 257
EndSplineSet
EndChar

StartChar: uni0328
Encoding: 808 808 354
GlifName: uni0328
Width: 0
VWidth: 0
GlyphClass: 2
AnchorPoint: "base" 990 23 mark 0
AnchorPoint: "base" 990 23 mark 0
LayerCount: 2
Fore
SplineSet
648.176757812 -288 m 257
 605.228515625 -406 l 257
 1147.22851562 -406 l 257
 1190.17675781 -288 l 257
 648.176757812 -288 l 257
753 0 m 257
 605.228515625 -406 l 257
 723.228515625 -406 l 257
 871 0 l 257
 753 0 l 257
753 0 m 257
 708.959960938 -121 l 257
 1250.95996094 -121 l 257
 1295 0 l 257
 753 0 l 257
EndSplineSet
EndChar

StartChar: uni0331
Encoding: 817 817 355
GlifName: uni0331
Width: 2048
VWidth: 0
GlyphClass: 2
Flags: W
AnchorPoint: "base" 510 -163 mark 0
AnchorPoint: "base" 510 -163 mark 0
LayerCount: 2
Fore
SplineSet
164.125 -170 m 257
 135.735351562 -248 l 257
 695.735351562 -248 l 257
 724.125 -170 l 257
 164.125 -170 l 257
EndSplineSet
EndChar

StartChar: uni0900
Encoding: 2304 2304 356
GlifName: uni0900
Width: 0
VWidth: 0
GlyphClass: 2
Flags: HW
AnchorPoint: "abvm" 520 1622 mark 0
LayerCount: 2
Fore
SplineSet
887.073242188 2124 m 257
 710.546875 1639 l 257
 908.546875 1639 l 257
 1085.07324219 2124 l 257
 887.073242188 2124 l 257
933.80078125 2126 m 257
 860.642578125 1925 l 257
 2494.64257812 1925 l 257
 2567.80078125 2126 l 257
 933.80078125 2126 l 257
1092.8046875 1865 m 257
 1020.01074219 1665 l 257
 2220.01074219 1665 l 257
 2292.8046875 1865 l 257
 1092.8046875 1865 l 257
2492.16503906 2127 m 257
 2313.45507812 1636 l 257
 2513.45507812 1636 l 257
 2692.16503906 2127 l 257
 2492.16503906 2127 l 257
EndSplineSet
EndChar

StartChar: uni0901
Encoding: 2305 2305 357
GlifName: uni0901
Width: 0
VWidth: 0
GlyphClass: 2
Flags: HW
AnchorPoint: "abvm" 540 1617 mark 0
LayerCount: 2
Fore
SplineSet
927.073242188 2124 m 257
 750.546875 1639 l 257
 950.546875 1639 l 257
 1127.07324219 2124 l 257
 927.073242188 2124 l 257
870.43359375 1842 m 257
 797.275390625 1641 l 257
 2431.27539062 1641 l 257
 2504.43359375 1842 l 257
 870.43359375 1842 l 257
1218.51757812 2095 m 257
 1145.72363281 1895 l 257
 2345.72363281 1895 l 257
 2418.51757812 2095 l 257
 1218.51757812 2095 l 257
2533.984375 2132 m 257
 2355.27539062 1641 l 257
 2555.27539062 1641 l 257
 2733.984375 2132 l 257
 2533.984375 2132 l 257
EndSplineSet
EndChar

StartChar: uni0902
Encoding: 2306 2306 358
GlifName: uni0902
Width: 0
VWidth: 0
GlyphClass: 2
Flags: HW
AnchorPoint: "abvm" 135 1592 mark 0
LayerCount: 2
Fore
SplineSet
762.340820312 1839 m 257
 689.546875 1639 l 257
 889.546875 1639 l 257
 962.340820312 1839 l 257
 762.340820312 1839 l 257
EndSplineSet
EndChar

StartChar: uni0903
Encoding: 2307 2307 359
GlifName: uni0903
Width: 2048
VWidth: 0
GlyphClass: 2
Flags: W
LayerCount: 2
Fore
SplineSet
1160.21679688 649 m 257
 1087.42285156 449 l 257
 1287.42285156 449 l 257
 1360.21679688 649 l 257
 1160.21679688 649 l 257
1403.34863281 1317 m 257
 1330.5546875 1117 l 257
 1530.5546875 1117 l 257
 1603.34863281 1317 l 257
 1403.34863281 1317 l 257
EndSplineSet
EndChar

StartChar: uni0904
Encoding: 2308 2308 360
GlifName: uni0904
Width: 2048
VWidth: 0
GlyphClass: 2
Flags: W
LayerCount: 2
Fore
SplineSet
1550.35546875 2155 m 257
 1434.24902344 1836 l 257
 1632.24902344 1836 l 257
 1748.35546875 2155 l 257
 1550.35546875 2155 l 257
1479.9296875 1967 m 257
 1407.49902344 1768 l 257
 2579.49902344 1768 l 257
 2651.9296875 1967 l 257
 1479.9296875 1967 l 257
2447.92578125 1956 m 257
 2287.77929688 1516 l 257
 2489.77929688 1516 l 257
 2649.92578125 1956 l 257
 2447.92578125 1956 l 257
2267.42578125 1548 m 257
 2194.63183594 1348 l 257
 2541.63183594 1348 l 257
 2614.42578125 1548 l 257
 2267.42578125 1548 l 257
2280.47363281 1419 m 257
 1764 0 l 257
 1964 0 l 257
 2480.47363281 1419 l 257
 2280.47363281 1419 l 257
601.42578125 1548 m 257
 528.631835938 1348 l 257
 1562.63183594 1348 l 257
 1635.42578125 1548 l 257
 601.42578125 1548 l 257
1461.42578125 1548 m 257
 948.956054688 140 l 257
 1148.95605469 140 l 257
 1661.42578125 1548 l 257
 1461.42578125 1548 l 257
447.389648438 894 m 257
 374.231445312 693 l 257
 2070.23144531 693 l 257
 2143.38964844 894 l 257
 447.389648438 894 l 257
85.158203125 201 m 257
 12 0 l 257
 1098 0 l 257
 1171.15820312 201 l 257
 85.158203125 201 l 257
EndSplineSet
EndChar

StartChar: uni0905
Encoding: 2309 2309 361
GlifName: uni0905
Width: 2048
VWidth: 0
GlyphClass: 2
Flags: W
LayerCount: 2
Fore
SplineSet
2234.42578125 1548 m 257
 2161.26757812 1347 l 257
 2540.26757812 1347 l 257
 2613.42578125 1548 l 257
 2234.42578125 1548 l 257
2316.47363281 1419 m 257
 1800 0 l 257
 1998 0 l 257
 2514.47363281 1419 l 257
 2316.47363281 1419 l 257
601.42578125 1548 m 257
 528.631835938 1348 l 257
 1562.63183594 1348 l 257
 1635.42578125 1548 l 257
 601.42578125 1548 l 257
1461.42578125 1548 m 257
 948.956054688 140 l 257
 1148.95605469 140 l 257
 1661.42578125 1548 l 257
 1461.42578125 1548 l 257
447.389648438 894 m 257
 374.231445312 693 l 257
 2106.23144531 693 l 257
 2179.38964844 894 l 257
 447.389648438 894 l 257
85.158203125 201 m 257
 12 0 l 257
 1098 0 l 257
 1171.15820312 201 l 257
 85.158203125 201 l 257
EndSplineSet
EndChar

StartChar: uni0906
Encoding: 2310 2310 362
GlifName: uni0906
Width: 2048
VWidth: 0
GlyphClass: 2
Flags: W
LayerCount: 2
Fore
SplineSet
1891.42578125 1548 m 257
 1818.63183594 1348 l 257
 2540.63183594 1348 l 257
 2613.42578125 1548 l 257
 1891.42578125 1548 l 257
1860.47363281 1419 m 257
 1344 0 l 257
 1543 0 l 257
 2059.47363281 1419 l 257
 1860.47363281 1419 l 257
588.42578125 1548 m 257
 515.631835938 1348 l 257
 1387.63183594 1348 l 257
 1460.42578125 1548 l 257
 588.42578125 1548 l 257
1286.42578125 1548 m 257
 773.956054688 140 l 257
 973.956054688 140 l 257
 1486.42578125 1548 l 257
 1286.42578125 1548 l 257
434.389648438 894 m 257
 361.231445312 693 l 257
 1695.23144531 693 l 257
 1768.38964844 894 l 257
 434.389648438 894 l 257
73.158203125 201 m 257
 0 0 l 257
 923 0 l 257
 996.158203125 201 l 257
 73.158203125 201 l 257
2278.83789062 1420 m 257
 1762 0 l 257
 1961 0 l 257
 2477.83789062 1420 l 257
 2278.83789062 1420 l 257
EndSplineSet
EndChar

StartChar: uni0907
Encoding: 2311 2311 363
GlifName: uni0907
Width: 2048
VWidth: 0
GlyphClass: 2
Flags: W
LayerCount: 2
Fore
SplineSet
557.42578125 1548 m 257
 484.99609375 1349 l 257
 2544.99609375 1349 l 257
 2617.42578125 1548 l 257
 557.42578125 1548 l 257
1623.421875 1537 m 257
 1468.00683594 1110 l 257
 1668.00683594 1110 l 257
 1823.421875 1537 l 257
 1623.421875 1537 l 257
609.583984375 1205 m 257
 536.42578125 1004 l 257
 1629.42578125 1004 l 257
 1702.58398438 1205 l 257
 609.583984375 1205 l 257
600.848632812 1181 m 257
 439.610351562 738 l 257
 609.610351562 738 l 257
 770.848632812 1181 l 257
 600.848632812 1181 l 257
491.658203125 881 m 257
 418.86328125 681 l 257
 1525.86328125 681 l 257
 1598.65820312 881 l 257
 491.658203125 881 l 257
1477.65820312 881 m 257
 1252.36035156 262 l 257
 1451.36035156 262 l 257
 1676.65820312 881 l 257
 1477.65820312 881 l 257
257.462890625 298 m 257
 184.3046875 97 l 257
 1391.3046875 97 l 257
 1464.46289062 298 l 257
 257.462890625 298 l 257
373.462890625 298 m 257
 176.19140625 -244 l 257
 376.19140625 -244 l 257
 573.462890625 298 l 257
 373.462890625 298 l 257
EndSplineSet
EndChar

StartChar: uni0908
Encoding: 2312 2312 364
GlifName: uni0908
Width: 2048
VWidth: 0
GlyphClass: 2
Flags: W
LayerCount: 2
Fore
SplineSet
560.337890625 1556 m 257
 487.1796875 1355 l 257
 2547.1796875 1355 l 257
 2620.33789062 1556 l 257
 560.337890625 1556 l 257
1629.24609375 1553 m 257
 1468.00683594 1110 l 257
 1668.00683594 1110 l 257
 1829.24609375 1553 l 257
 1629.24609375 1553 l 257
609.583984375 1205 m 257
 536.42578125 1004 l 257
 1629.42578125 1004 l 257
 1702.58398438 1205 l 257
 609.583984375 1205 l 257
600.848632812 1181 m 257
 439.610351562 738 l 257
 639.610351562 738 l 257
 800.848632812 1181 l 257
 600.848632812 1181 l 257
491.658203125 881 m 257
 418.86328125 681 l 257
 1525.86328125 681 l 257
 1598.65820312 881 l 257
 491.658203125 881 l 257
1495.65820312 881 m 257
 1278.73144531 285 l 257
 1459.73144531 285 l 257
 1676.65820312 881 l 257
 1495.65820312 881 l 257
257.462890625 298 m 257
 184.3046875 97 l 257
 1394.3046875 97 l 257
 1467.46289062 298 l 257
 257.462890625 298 l 257
373.462890625 298 m 257
 176.19140625 -244 l 257
 399.19140625 -244 l 257
 596.462890625 298 l 257
 373.462890625 298 l 257
918.227539062 1770 m 257
 1550.9296875 1423 l 257
 1755.421875 1537 l 257
 1122.44824219 1886 l 257
 918.227539062 1770 l 257
EndSplineSet
EndChar

StartChar: uni0909
Encoding: 2313 2313 365
GlifName: uni0909
Width: 2048
VWidth: 0
GlyphClass: 2
Flags: W
LayerCount: 2
Fore
SplineSet
563.42578125 1548 m 257
 490.631835938 1348 l 257
 2540.63183594 1348 l 257
 2613.42578125 1548 l 257
 563.42578125 1548 l 257
1450.87402344 1530 m 257
 1258.33398438 1001 l 257
 1457.33398438 1001 l 257
 1649.87402344 1530 l 257
 1450.87402344 1530 l 257
616.985351562 1044 m 257
 544.5546875 845 l 257
 1898.5546875 845 l 257
 1970.98535156 1044 l 257
 616.985351562 1044 l 257
1753.78613281 994 m 257
 1394.91210938 8 l 257
 1594.91210938 8 l 257
 1953.78613281 994 l 257
 1753.78613281 994 l 257
205.158203125 201 m 257
 132 0 l 257
 1581 0 l 257
 1654.15820312 201 l 257
 205.158203125 201 l 257
264.12109375 363 m 257
 145.102539062 36 l 257
 345.102539062 36 l 257
 464.12109375 363 l 257
 264.12109375 363 l 257
EndSplineSet
EndChar

StartChar: uni090A
Encoding: 2314 2314 366
GlifName: uni090A_
Width: 2048
VWidth: 0
GlyphClass: 2
Flags: W
LayerCount: 2
Fore
SplineSet
557.42578125 1548 m 257
 484.267578125 1347 l 257
 2545.26757812 1347 l 257
 2618.42578125 1548 l 257
 557.42578125 1548 l 257
1374.87402344 1530 m 257
 1182.33398438 1001 l 257
 1380.33398438 1001 l 257
 1572.87402344 1530 l 257
 1374.87402344 1530 l 257
527.985351562 1044 m 257
 455.5546875 845 l 257
 2179.5546875 845 l 257
 2251.98535156 1044 l 257
 527.985351562 1044 l 257
1545.78613281 994 m 257
 1188.00390625 11 l 257
 1388.00390625 11 l 257
 1745.78613281 994 l 257
 1545.78613281 994 l 257
118.25 204 m 257
 45.8203125 5 l 257
 1383.8203125 5 l 257
 1456.25 204 l 257
 118.25 204 l 257
177.212890625 366 m 257
 58.1953125 39 l 257
 258.1953125 39 l 257
 377.212890625 366 l 257
 177.212890625 366 l 257
2016.31542969 946 m 257
 1750.98144531 217 l 257
 1950.98144531 217 l 257
 2216.31542969 946 l 257
 2016.31542969 946 l 257
EndSplineSet
EndChar

StartChar: uni090B
Encoding: 2315 2315 367
GlifName: uni090B_
Width: 2048
VWidth: 0
GlyphClass: 2
Flags: W
LayerCount: 2
Fore
SplineSet
563.42578125 1548 m 257
 490.267578125 1347 l 257
 2543.26757812 1347 l 257
 2616.42578125 1548 l 257
 563.42578125 1548 l 257
1577.421875 1537 m 257
 1018 0 l 257
 1217 0 l 257
 1776.421875 1537 l 257
 1577.421875 1537 l 257
407.985351562 1044 m 257
 335.5546875 845 l 257
 639.5546875 845 l 257
 711.985351562 1044 l 257
 407.985351562 1044 l 257
1197.52929688 496 m 257
 243.74609375 329 l 257
 255.5 136 l 257
 1209.28320312 303 l 257
 1197.52929688 496 l 257
711.985351562 1044 m 257
 639.918945312 846 l 257
 1384.06542969 742 l 257
 1457.58789062 944 l 257
 711.985351562 1044 l 257
1527.48144531 897 m 257
 1455.41503906 699 l 257
 2270.41503906 699 l 257
 2342.48144531 897 l 257
 1527.48144531 897 l 257
2020.48144531 897 m 257
 1789.36035156 262 l 257
 1988.36035156 262 l 257
 2219.48144531 897 l 257
 2020.48144531 897 l 257
1938.88183594 464 m 257
 1866.08789062 264 l 257
 2130.08789062 264 l 257
 2202.88183594 464 l 257
 1938.88183594 464 l 257
EndSplineSet
EndChar

StartChar: uni090C
Encoding: 2316 2316 368
GlifName: uni090C_
Width: 2048
VWidth: 0
GlyphClass: 2
Flags: W
LayerCount: 2
Fore
SplineSet
555.42578125 1548 m 257
 482.631835938 1348 l 257
 2546.63183594 1348 l 257
 2619.42578125 1548 l 257
 555.42578125 1548 l 257
1628.42578125 1548 m 257
 1315.77539062 689 l 257
 1515.77539062 689 l 257
 1828.42578125 1548 l 257
 1628.42578125 1548 l 257
2051.90039062 791 m 257
 337.900390625 791 l 257
 264.7421875 590 l 257
 1978.7421875 590 l 257
 2051.90039062 791 l 257
332.8046875 777 m 257
 141.720703125 252 l 257
 342.720703125 252 l 257
 533.8046875 777 l 257
 332.8046875 777 l 257
988.900390625 791 m 257
 858.598632812 433 l 257
 1059.59863281 433 l 257
 1189.90039062 791 l 257
 988.900390625 791 l 257
1841.26464844 792 m 257
 1579.5703125 73 l 257
 1779.5703125 73 l 257
 2041.26464844 792 l 257
 1841.26464844 792 l 257
1722.26855469 259 m 257
 1653.84179688 71 l 257
 2079.84179688 71 l 257
 2148.26855469 259 l 257
 1722.26855469 259 l 257
EndSplineSet
EndChar

StartChar: uni090D
Encoding: 2317 2317 369
GlifName: uni090D_
Width: 2048
VWidth: 0
GlyphClass: 2
Flags: W
LayerCount: 2
Fore
SplineSet
558.42578125 1548 m 257
 485.631835938 1348 l 257
 2539.63183594 1348 l 257
 2612.42578125 1548 l 257
 558.42578125 1548 l 257
2311.42578125 1548 m 257
 2031.53320312 779 l 257
 2230.53320312 779 l 257
 2510.42578125 1548 l 257
 2311.42578125 1548 l 257
1494.37109375 839 m 257
 1421.57714844 639 l 257
 2179.57714844 639 l 257
 2252.37109375 839 l 257
 1494.37109375 839 l 257
703.2421875 1542 m 257
 265.021484375 338 l 257
 464.021484375 338 l 257
 902.2421875 1542 l 257
 703.2421875 1542 l 257
322.529296875 496 m 257
 250.099609375 297 l 257
 1232.09960938 297 l 257
 1304.52929688 496 l 257
 322.529296875 496 l 257
1055.30175781 358 m 257
 889.331054688 -98 l 257
 1088.33105469 -98 l 257
 1254.30175781 358 l 257
 1055.30175781 358 l 257
423.760742188 101 m 257
 351.331054688 -98 l 257
 1086.33105469 -98 l 257
 1158.76074219 101 l 257
 423.760742188 101 l 257
930.073242188 2124 m 257
 753.546875 1639 l 257
 952.546875 1639 l 257
 1129.07324219 2124 l 257
 930.073242188 2124 l 257
872.705078125 1840 m 257
 800.275390625 1641 l 257
 2413.27539062 1641 l 257
 2485.70507812 1840 l 257
 872.705078125 1840 l 257
2416.984375 2132 m 257
 2238.27539062 1641 l 257
 2437.27539062 1641 l 257
 2615.984375 2132 l 257
 2416.984375 2132 l 257
EndSplineSet
EndChar

StartChar: uni090E
Encoding: 2318 2318 370
GlifName: uni090E_
Width: 2048
VWidth: 0
GlyphClass: 2
Flags: W
LayerCount: 2
Fore
SplineSet
558.42578125 1548 m 257
 485.631835938 1348 l 257
 2539.63183594 1348 l 257
 2612.42578125 1548 l 257
 558.42578125 1548 l 257
2311.42578125 1548 m 257
 1982.76074219 645 l 257
 2181.76074219 645 l 257
 2510.42578125 1548 l 257
 2311.42578125 1548 l 257
1528.5546875 845 m 257
 1455.76074219 645 l 257
 2181.76074219 645 l 257
 2254.5546875 845 l 257
 1528.5546875 845 l 257
703.2421875 1542 m 257
 265.021484375 338 l 257
 464.021484375 338 l 257
 902.2421875 1542 l 257
 703.2421875 1542 l 257
272.301757812 358 m 257
 199.87109375 159 l 257
 1174.87109375 159 l 257
 1247.30175781 358 l 257
 272.301757812 358 l 257
1053.30175781 358 m 257
 887.331054688 -98 l 257
 1088.33105469 -98 l 257
 1254.30175781 358 l 257
 1053.30175781 358 l 257
373.168945312 -38 m 257
 300.375 -238 l 257
 1035.375 -238 l 257
 1108.16894531 -38 l 257
 373.168945312 -38 l 257
1020.50683594 2062 m 257
 933.517578125 1823 l 257
 1133.51757812 1823 l 257
 1220.50683594 2062 l 257
 1020.50683594 2062 l 257
948.896484375 1868 m 257
 875.73828125 1667 l 257
 2577.73828125 1667 l 257
 2650.89648438 1868 l 257
 948.896484375 1868 l 257
2445.25683594 1858 m 257
 2328.421875 1537 l 257
 2530.421875 1537 l 257
 2647.25683594 1858 l 257
 2445.25683594 1858 l 257
EndSplineSet
EndChar

StartChar: uni090F
Encoding: 2319 2319 371
GlifName: uni090F_
Width: 2048
VWidth: 0
GlyphClass: 2
Flags: W
LayerCount: 2
Fore
SplineSet
573.42578125 1548 m 257
 500.631835938 1348 l 257
 2528.63183594 1348 l 257
 2601.42578125 1548 l 257
 573.42578125 1548 l 257
2299.42578125 1548 m 257
 2020.625 782 l 257
 2220.625 782 l 257
 2499.42578125 1548 l 257
 2299.42578125 1548 l 257
1998.32714844 979 m 257
 1925.53320312 779 l 257
 2219.53320312 779 l 257
 2292.32714844 979 l 257
 1998.32714844 979 l 257
711.2421875 1542 m 257
 273.021484375 338 l 257
 473.021484375 338 l 257
 911.2421875 1542 l 257
 711.2421875 1542 l 257
330.893554688 497 m 257
 258.099609375 297 l 257
 1358.09960938 297 l 257
 1430.89355469 497 l 257
 330.893554688 497 l 257
1228.15820312 473 m 257
 1020.33105469 -98 l 257
 1220.33105469 -98 l 257
 1428.15820312 473 l 257
 1228.15820312 473 l 257
431.125 102 m 257
 358.331054688 -98 l 257
 1218.33105469 -98 l 257
 1291.125 102 l 257
 431.125 102 l 257
EndSplineSet
EndChar

StartChar: uni0910
Encoding: 2320 2320 372
GlifName: uni0910
Width: 2048
VWidth: 0
GlyphClass: 2
Flags: W
LayerCount: 2
Fore
SplineSet
563.42578125 1548 m 257
 490.631835938 1348 l 257
 2536.63183594 1348 l 257
 2609.42578125 1548 l 257
 563.42578125 1548 l 257
2307.42578125 1548 m 257
 2027.53320312 779 l 257
 2227.53320312 779 l 257
 2507.42578125 1548 l 257
 2307.42578125 1548 l 257
2008.32714844 979 m 257
 1935.53320312 779 l 257
 2227.53320312 779 l 257
 2300.32714844 979 l 257
 2008.32714844 979 l 257
697.2421875 1542 m 257
 259.021484375 338 l 257
 459.021484375 338 l 257
 897.2421875 1542 l 257
 697.2421875 1542 l 257
316.893554688 497 m 257
 244.099609375 297 l 257
 1344.09960938 297 l 257
 1416.89355469 497 l 257
 316.893554688 497 l 257
1216.15820312 473 m 257
 1008.33105469 -98 l 257
 1208.33105469 -98 l 257
 1416.15820312 473 l 257
 1216.15820312 473 l 257
419.125 102 m 257
 346.331054688 -98 l 257
 1206.33105469 -98 l 257
 1279.125 102 l 257
 419.125 102 l 257
1125.35546875 1883 m 257
 2299.56933594 1433 l 257
 2505.42578125 1548 l 257
 1331.21289062 1998 l 257
 1125.35546875 1883 l 257
EndSplineSet
EndChar

StartChar: uni0911
Encoding: 2321 2321 373
GlifName: uni0911
Width: 2048
VWidth: 0
GlyphClass: 2
Flags: W
LayerCount: 2
Fore
SplineSet
1894.42578125 1548 m 257
 1821.63183594 1348 l 257
 2538.63183594 1348 l 257
 2611.42578125 1548 l 257
 1894.42578125 1548 l 257
1860.47363281 1419 m 257
 1344 0 l 257
 1544 0 l 257
 2060.47363281 1419 l 257
 1860.47363281 1419 l 257
589.42578125 1548 m 257
 516.631835938 1348 l 257
 1388.63183594 1348 l 257
 1461.42578125 1548 l 257
 589.42578125 1548 l 257
1287.42578125 1548 m 257
 774.956054688 140 l 257
 974.956054688 140 l 257
 1487.42578125 1548 l 257
 1287.42578125 1548 l 257
435.389648438 894 m 257
 362.231445312 693 l 257
 1696.23144531 693 l 257
 1769.38964844 894 l 257
 435.389648438 894 l 257
73.158203125 201 m 257
 0 0 l 257
 924 0 l 257
 997.158203125 201 l 257
 73.158203125 201 l 257
2352.83789062 1420 m 257
 1836 0 l 257
 2034 0 l 257
 2550.83789062 1420 l 257
 2352.83789062 1420 l 257
2084.87792969 2085 m 257
 1922.546875 1639 l 257
 2122.546875 1639 l 257
 2284.87792969 2085 l 257
 2084.87792969 2085 l 257
2002.43359375 1842 m 257
 1929.27539062 1641 l 257
 2645.27539062 1641 l 257
 2718.43359375 1842 l 257
 2002.43359375 1842 l 257
2606.15039062 2083 m 257
 2445.27539062 1641 l 257
 2645.27539062 1641 l 257
 2806.15039062 2083 l 257
 2606.15039062 2083 l 257
EndSplineSet
EndChar

StartChar: uni0912
Encoding: 2322 2322 374
GlifName: uni0912
Width: 2048
VWidth: 0
GlyphClass: 2
Flags: W
LayerCount: 2
Fore
SplineSet
1891.42578125 1548 m 257
 1818.63183594 1348 l 257
 2538.63183594 1348 l 257
 2611.42578125 1548 l 257
 1891.42578125 1548 l 257
1865.47363281 1419 m 257
 1349 0 l 257
 1548 0 l 257
 2064.47363281 1419 l 257
 1865.47363281 1419 l 257
588.42578125 1548 m 257
 515.631835938 1348 l 257
 1387.63183594 1348 l 257
 1460.42578125 1548 l 257
 588.42578125 1548 l 257
1286.42578125 1548 m 257
 773.956054688 140 l 257
 973.956054688 140 l 257
 1486.42578125 1548 l 257
 1286.42578125 1548 l 257
434.389648438 894 m 257
 361.231445312 693 l 257
 1695.23144531 693 l 257
 1768.38964844 894 l 257
 434.389648438 894 l 257
73.158203125 201 m 257
 0 0 l 257
 923 0 l 257
 996.158203125 201 l 257
 73.158203125 201 l 257
2359.83789062 1420 m 257
 1843 0 l 257
 2042 0 l 257
 2558.83789062 1420 l 257
 2359.83789062 1420 l 257
1850.35546875 2155 m 257
 1734.24902344 1836 l 257
 1932.24902344 1836 l 257
 2048.35546875 2155 l 257
 1850.35546875 2155 l 257
1780.9296875 1967 m 257
 1708.49902344 1768 l 257
 2623.49902344 1768 l 257
 2695.9296875 1967 l 257
 1780.9296875 1967 l 257
2492.92578125 1956 m 257
 2332.77929688 1516 l 257
 2533.77929688 1516 l 257
 2693.92578125 1956 l 257
 2492.92578125 1956 l 257
EndSplineSet
EndChar

StartChar: uni0913
Encoding: 2323 2323 375
GlifName: uni0913
Width: 2048
VWidth: 0
GlyphClass: 2
Flags: W
LayerCount: 2
Fore
SplineSet
1907.42578125 1548 m 257
 1834.63183594 1348 l 257
 2522.63183594 1348 l 257
 2595.42578125 1548 l 257
 1907.42578125 1548 l 257
1876.47363281 1419 m 257
 1360 0 l 257
 1559 0 l 257
 2075.47363281 1419 l 257
 1876.47363281 1419 l 257
604.42578125 1548 m 257
 531.631835938 1348 l 257
 1391.63183594 1348 l 257
 1464.42578125 1548 l 257
 604.42578125 1548 l 257
1290.42578125 1548 m 257
 777.956054688 140 l 257
 977.956054688 140 l 257
 1490.42578125 1548 l 257
 1290.42578125 1548 l 257
450.389648438 894 m 257
 377.231445312 693 l 257
 1711.23144531 693 l 257
 1784.38964844 894 l 257
 450.389648438 894 l 257
89.158203125 201 m 257
 16 0 l 257
 927 0 l 257
 1000.15820312 201 l 257
 89.158203125 201 l 257
2344.9296875 1423 m 257
 1828.8203125 5 l 257
 2027.8203125 5 l 257
 2543.9296875 1423 l 257
 2344.9296875 1423 l 257
2098.49902344 1768 m 257
 2346.66894531 1458 l 257
 2557.42578125 1548 l 257
 2309.34863281 1861 l 257
 2098.49902344 1768 l 257
EndSplineSet
EndChar

StartChar: uni0914
Encoding: 2324 2324 376
GlifName: uni0914
Width: 2048
VWidth: 0
GlyphClass: 2
Flags: W
LayerCount: 2
Fore
SplineSet
1907.42578125 1548 m 257
 1832.8125 1343 l 257
 2520.8125 1343 l 257
 2595.42578125 1548 l 257
 1907.42578125 1548 l 257
1876.47363281 1419 m 257
 1360 0 l 257
 1559 0 l 257
 2075.47363281 1419 l 257
 1876.47363281 1419 l 257
604.42578125 1548 m 257
 531.631835938 1348 l 257
 1391.63183594 1348 l 257
 1464.42578125 1548 l 257
 604.42578125 1548 l 257
1290.42578125 1548 m 257
 777.956054688 140 l 257
 977.956054688 140 l 257
 1490.42578125 1548 l 257
 1290.42578125 1548 l 257
450.389648438 894 m 257
 377.231445312 693 l 257
 1711.23144531 693 l 257
 1784.38964844 894 l 257
 450.389648438 894 l 257
89.158203125 201 m 257
 16 0 l 257
 927 0 l 257
 1000.15820312 201 l 257
 89.158203125 201 l 257
2343.83789062 1420 m 257
 1827 0 l 257
 2026 0 l 257
 2542.83789062 1420 l 257
 2343.83789062 1420 l 257
1791.94824219 1750 m 257
 1989.32714844 1523 l 257
 2320.32714844 1523 l 257
 1983.63574219 1903 l 257
 1791.94824219 1750 l 257
2453.37792969 1949 m 257
 2360.96289062 1522 l 257
 2582.42578125 1548 l 257
 2664.57324219 1988 l 257
 2453.37792969 1949 l 257
EndSplineSet
EndChar

StartChar: uni0915
Encoding: 2325 2325 377
GlifName: uni0915
Width: 2048
VWidth: 0
GlyphClass: 2
Flags: W
LayerCount: 2
Fore
SplineSet
568.42578125 1548 m 257
 493.8125 1343 l 257
 2531.8125 1343 l 257
 2606.42578125 1548 l 257
 568.42578125 1548 l 257
1659.77929688 1516 m 257
 1111.63964844 10 l 257
 1313.63964844 10 l 257
 1861.77929688 1516 l 257
 1659.77929688 1516 l 257
511.525390625 1029 m 257
 438.731445312 829 l 257
 1325.73144531 829 l 257
 1398.52539062 1029 l 257
 511.525390625 1029 l 257
511.525390625 1029 m 257
 285.5 408 l 257
 451.5 408 l 257
 677.525390625 1029 l 257
 511.525390625 1029 l 257
374.837890625 604 m 257
 300.952148438 401 l 257
 1307.95214844 401 l 257
 1381.83789062 604 l 257
 374.837890625 604 l 257
1558.6796875 947 m 257
 1485.52148438 746 l 257
 2221.52148438 746 l 257
 2294.6796875 947 l 257
 1558.6796875 947 l 257
2070.9296875 879 m 257
 1964.65039062 587 l 257
 2163.65039062 587 l 257
 2269.9296875 879 l 257
 2070.9296875 879 l 257
EndSplineSet
EndChar

StartChar: uni0915_uni0930_uni094D.vatu
Encoding: 65537 -1 378
GlifName: uni0915_uni0930_uni094D_.vatu
Width: 2048
VWidth: 0
GlyphClass: 2
Flags: W
LayerCount: 2
Fore
SplineSet
568.42578125 1548 m 257
 493.8125 1343 l 257
 2531.8125 1343 l 257
 2606.42578125 1548 l 257
 568.42578125 1548 l 257
1659.77929688 1516 m 257
 1111.63964844 10 l 257
 1313.63964844 10 l 257
 1861.77929688 1516 l 257
 1659.77929688 1516 l 257
511.525390625 1029 m 257
 438.731445312 829 l 257
 1316.73144531 829 l 257
 1389.52539062 1029 l 257
 511.525390625 1029 l 257
496.966796875 989 m 257
 298.239257812 443 l 257
 464.239257812 443 l 257
 662.966796875 989 l 257
 496.966796875 989 l 257
351.837890625 604 m 257
 277.952148438 401 l 257
 1307.95214844 401 l 257
 1381.83789062 604 l 257
 351.837890625 604 l 257
1558.6796875 947 m 257
 1485.52148438 746 l 257
 2221.52148438 746 l 257
 2294.6796875 947 l 257
 1558.6796875 947 l 257
2070.9296875 879 m 257
 1964.65039062 587 l 257
 2163.65039062 587 l 257
 2269.9296875 879 l 257
 2070.9296875 879 l 257
52 0 m 257
 476 0 l 257
 1322.77246094 134 l 257
 1395.9296875 335 l 257
 52 0 l 257
EndSplineSet
Ligature2: "vatuVattuVariantsinDevanagarilookup0 subtable" uni0915 uni0930_uni094D.blwf
EndChar

StartChar: uni0915_uni094D.half
Encoding: 65538 -1 379
GlifName: uni0915_uni094D_.half
Width: 2048
VWidth: 0
GlyphClass: 2
Flags: W
LayerCount: 2
Fore
SplineSet
568.42578125 1548 m 257
 493.8125 1343 l 257
 2531.8125 1343 l 257
 2606.42578125 1548 l 257
 568.42578125 1548 l 257
1659.77929688 1516 m 257
 1111.63964844 10 l 257
 1313.63964844 10 l 257
 1861.77929688 1516 l 257
 1659.77929688 1516 l 257
511.525390625 1029 m 257
 438.731445312 829 l 257
 1315.73144531 829 l 257
 1388.52539062 1029 l 257
 511.525390625 1029 l 257
496.966796875 989 m 257
 298.239257812 443 l 257
 464.239257812 443 l 257
 662.966796875 989 l 257
 496.966796875 989 l 257
374.837890625 604 m 257
 300.952148438 401 l 257
 1307.95214844 401 l 257
 1381.83789062 604 l 257
 374.837890625 604 l 257
1546.6796875 947 m 257
 1473.52148438 746 l 257
 2361.52148438 746 l 257
 2434.6796875 947 l 257
 1546.6796875 947 l 257
EndSplineSet
Ligature2: "halfHalfFormsinDevanagarilookup0 subtable" uni0915 uni094D
EndChar

StartChar: uni0915_uni094D.haln
Encoding: 65539 -1 380
GlifName: uni0915_uni094D_.haln
Width: 2048
VWidth: 0
GlyphClass: 2
Flags: HW
LayerCount: 2
Fore
SplineSet
1131.8515625 1548 m 257
 982.624023438 1343 l 257
 3020.62402344 1343 l 257
 3169.8515625 1548 l 257
 1131.8515625 1548 l 257
2211.55761719 1516 m 257
 1115.27929688 10 l 257
 1317.27929688 10 l 257
 2413.55761719 1516 l 257
 2211.55761719 1516 l 257
886.05078125 1029 m 257
 740.462890625 829 l 257
 1627.46289062 829 l 257
 1773.05078125 1029 l 257
 886.05078125 1029 l 257
886.05078125 1029 m 257
 434 408 l 257
 600 408 l 257
 1052.05078125 1029 l 257
 886.05078125 1029 l 257
594.67578125 604 m 257
 446.904296875 401 l 257
 1453.90429688 401 l 257
 1601.67578125 604 l 257
 594.67578125 604 l 257
1903.359375 947 m 257
 1757.04296875 746 l 257
 2493.04296875 746 l 257
 2639.359375 947 l 257
 1903.359375 947 l 257
2390.859375 879 m 257
 2178.30078125 587 l 257
 2377.30078125 587 l 257
 2589.859375 879 l 257
 2390.859375 879 l 257
954.984375 -22 m 257
 812.30859375 -218 l 257
 1169.30859375 -218 l 257
 1311.984375 -22 l 257
 954.984375 -22 l 257
1053.78710938 -183 m 257
 1228.97070312 -588 l 257
 1491.625 -425 l 257
 1314.71289062 -21 l 257
 1053.78710938 -183 l 257
EndSplineSet
Ligature2: "halnHalantFormsinDevanagarilookup0 subtable" uni0915 uni094D
EndChar

StartChar: uni0915_uni094D_uni0937.akhn
Encoding: 65540 -1 381
GlifName: uni0915_uni094D__uni0937.akhn
Width: 2048
VWidth: 0
GlyphClass: 2
Flags: W
LayerCount: 2
Fore
SplineSet
2252.42578125 1548 m 257
 2180.72363281 1351 l 257
 2539.72363281 1351 l 257
 2611.42578125 1548 l 257
 2252.42578125 1548 l 257
2295.95898438 1511 m 257
 1746 0 l 257
 1945 0 l 257
 2494.95898438 1511 l 257
 2295.95898438 1511 l 257
440.360351562 1078 m 257
 367.565429688 878 l 257
 2264.56542969 878 l 257
 2337.36035156 1078 l 257
 440.360351562 1078 l 257
419.341796875 1023 m 257
 620.341796875 1023 l 257
 765.565429688 1422 l 257
 564.565429688 1422 l 257
 419.341796875 1023 l 257
570.296875 1435 m 257
 497.502929688 1235 l 257
 1528.50292969 1235 l 257
 1601.296875 1435 l 257
 570.296875 1435 l 257
1397.56542969 1422 m 257
 1201.02148438 882 l 257
 1399.02148438 882 l 257
 1595.56542969 1422 l 257
 1397.56542969 1422 l 257
389.12109375 635 m 257
 586.12109375 635 l 257
 1397.29394531 880 l 257
 1199.29394531 880 l 257
 389.12109375 635 l 257
389.12109375 635 m 257
 230.793945312 200 l 257
 429.793945312 200 l 257
 588.12109375 635 l 257
 389.12109375 635 l 257
291.577148438 367 m 257
 218.418945312 166 l 257
 1966.41894531 166 l 257
 2039.57714844 367 l 257
 291.577148438 367 l 257
EndSplineSet
Ligature2: "akhnAkhandinDevanagarilookup0 subtable" uni0915 uni094D uni0937
EndChar

StartChar: uni0915_uni094D_uni0937.half
Encoding: 65541 -1 382
GlifName: uni0915_uni094D__uni0937.half
Width: 2048
VWidth: 0
GlyphClass: 2
Flags: W
LayerCount: 2
Fore
SplineSet
2252.42578125 1548 m 257
 2180.72363281 1351 l 257
 2539.72363281 1351 l 257
 2611.42578125 1548 l 257
 2252.42578125 1548 l 257
440.360351562 1078 m 257
 367.565429688 878 l 257
 2384.56542969 878 l 257
 2457.36035156 1078 l 257
 440.360351562 1078 l 257
419.341796875 1023 m 257
 620.341796875 1023 l 257
 765.565429688 1422 l 257
 564.565429688 1422 l 257
 419.341796875 1023 l 257
570.296875 1435 m 257
 497.502929688 1235 l 257
 1528.50292969 1235 l 257
 1601.296875 1435 l 257
 570.296875 1435 l 257
1397.56542969 1422 m 257
 1201.02148438 882 l 257
 1399.02148438 882 l 257
 1595.56542969 1422 l 257
 1397.56542969 1422 l 257
389.12109375 635 m 257
 586.12109375 635 l 257
 1397.29394531 880 l 257
 1199.29394531 880 l 257
 389.12109375 635 l 257
389.12109375 635 m 257
 230.793945312 200 l 257
 429.793945312 200 l 257
 588.12109375 635 l 257
 389.12109375 635 l 257
291.577148438 367 m 257
 218.418945312 166 l 257
 2086.41894531 166 l 257
 2159.57714844 367 l 257
 291.577148438 367 l 257
EndSplineSet
Ligature2: "halfHalfFormsinDevanagarilookup0 subtable" uni0915_uni094D_uni0937.akhn uni094D
EndChar

StartChar: uni0915_uni094D_uni0937_uni094D
Encoding: 65542 -1 383
GlifName: uni0915_uni094D__uni0937_uni094D_
Width: 2048
VWidth: 0
GlyphClass: 2
Flags: HW
LayerCount: 2
Fore
SplineSet
2815.8515625 1548 m 257
 2672.44726562 1351 l 257
 3031.44726562 1351 l 257
 3174.8515625 1548 l 257
 2815.8515625 1548 l 257
2845.91796875 1511 m 257
 1746 0 l 257
 1945 0 l 257
 3044.91796875 1511 l 257
 2845.91796875 1511 l 257
832.719726562 1078 m 257
 687.130859375 878 l 257
 2584.13085938 878 l 257
 2729.71972656 1078 l 257
 832.719726562 1078 l 257
791.68359375 1023 m 257
 992.68359375 1023 l 257
 1283.13085938 1422 l 257
 1082.13085938 1422 l 257
 791.68359375 1023 l 257
1092.59375 1435 m 257
 947.005859375 1235 l 257
 1978.00585938 1235 l 257
 2123.59375 1435 l 257
 1092.59375 1435 l 257
1915.13085938 1422 m 257
 1522.04296875 882 l 257
 1720.04296875 882 l 257
 2113.13085938 1422 l 257
 1915.13085938 1422 l 257
620.2421875 635 m 257
 817.2421875 635 l 257
 1717.58789062 880 l 257
 1519.58789062 880 l 257
 620.2421875 635 l 257
620.2421875 635 m 257
 303.587890625 200 l 257
 502.587890625 200 l 257
 819.2421875 635 l 257
 620.2421875 635 l 257
425.154296875 367 m 257
 278.837890625 166 l 257
 2026.83789062 166 l 257
 2173.15429688 367 l 257
 425.154296875 367 l 257
1454.984375 -22 m 257
 1312.30859375 -218 l 257
 1669.30859375 -218 l 257
 1811.984375 -22 l 257
 1454.984375 -22 l 257
1553.78710938 -183 m 257
 1728.97070312 -588 l 257
 1991.625 -425 l 257
 1814.71289062 -21 l 257
 1553.78710938 -183 l 257
EndSplineSet
Ligature2: "halnHalantFormsinDevanagarilookup0 subtable" uni0915_uni094D_uni0937.akhn uni094D
EndChar

StartChar: uni0916
Encoding: 2326 2326 384
GlifName: uni0916
Width: 2048
VWidth: 0
GlyphClass: 2
Flags: W
LayerCount: 2
Fore
SplineSet
563.42578125 1548 m 257
 490.99609375 1349 l 257
 2542.99609375 1349 l 257
 2615.42578125 1548 l 257
 563.42578125 1548 l 257
2271.05078125 1514 m 257
 1720 0 l 257
 1920 0 l 257
 2471.05078125 1514 l 257
 2271.05078125 1514 l 257
1389.32714844 979 m 257
 1316.53320312 779 l 257
 1744.53320312 779 l 257
 1817.32714844 979 l 257
 1389.32714844 979 l 257
1359.32714844 979 m 257
 1169.33398438 457 l 257
 1369.33398438 457 l 257
 1559.32714844 979 l 257
 1359.32714844 979 l 257
1209.73535156 568 m 257
 1136.94140625 368 l 257
 1905.94140625 368 l 257
 1978.73535156 568 l 257
 1209.73535156 568 l 257
842.481445312 1441 m 257
 361.676757812 120 l 257
 561.676757812 120 l 257
 1042.48144531 1441 l 257
 842.481445312 1441 l 257
280.154296875 734 m 257
 207.360351562 534 l 257
 711.360351562 534 l 257
 784.154296875 734 l 257
 280.154296875 734 l 257
415.271484375 270 m 257
 342.477539062 70 l 257
 1882.47753906 70 l 257
 1955.27148438 270 l 257
 415.271484375 270 l 257
EndSplineSet
EndChar

StartChar: uni0916_uni0930_uni094D.vatu
Encoding: 65543 -1 385
GlifName: uni0916_uni0930_uni094D_.vatu
Width: 2048
VWidth: 0
GlyphClass: 2
Flags: W
LayerCount: 2
Fore
SplineSet
52 0 m 257
 476 0 l 257
 1856.25390625 215 l 257
 1929.41113281 416 l 257
 52 0 l 257
563.42578125 1548 m 257
 490.99609375 1349 l 257
 2542.99609375 1349 l 257
 2615.42578125 1548 l 257
 563.42578125 1548 l 257
2271.05078125 1514 m 257
 1720 0 l 257
 1920 0 l 257
 2471.05078125 1514 l 257
 2271.05078125 1514 l 257
1498.51757812 1279 m 257
 1425.72363281 1079 l 257
 1853.72363281 1079 l 257
 1926.51757812 1279 l 257
 1498.51757812 1279 l 257
1468.51757812 1279 m 257
 1278.52539062 757 l 257
 1478.52539062 757 l 257
 1668.51757812 1279 l 257
 1468.51757812 1279 l 257
1318.92578125 868 m 257
 1246.13183594 668 l 257
 2015.13183594 668 l 257
 2087.92578125 868 l 257
 1318.92578125 868 l 257
842.481445312 1441 m 257
 470.8671875 420 l 257
 670.8671875 420 l 257
 1042.48144531 1441 l 257
 842.481445312 1441 l 257
389.345703125 1034 m 257
 316.55078125 834 l 257
 820.55078125 834 l 257
 893.345703125 1034 l 257
 389.345703125 1034 l 257
524.462890625 570 m 257
 451.668945312 370 l 257
 1991.66894531 370 l 257
 2064.46289062 570 l 257
 524.462890625 570 l 257
EndSplineSet
Ligature2: "vatuVattuVariantsinDevanagarilookup0 subtable" uni0916 uni0930_uni094D.blwf
EndChar

StartChar: uni0916_uni094D.half
Encoding: 65544 -1 386
GlifName: uni0916_uni094D_.half
Width: 2048
VWidth: 0
GlyphClass: 2
Flags: W
LayerCount: 2
Fore
SplineSet
563.42578125 1548 m 257
 490.99609375 1349 l 257
 2542.99609375 1349 l 257
 2615.42578125 1548 l 257
 563.42578125 1548 l 257
1389.32714844 979 m 257
 1316.53320312 779 l 257
 1744.53320312 779 l 257
 1817.32714844 979 l 257
 1389.32714844 979 l 257
1359.32714844 979 m 257
 1169.33398438 457 l 257
 1369.33398438 457 l 257
 1559.32714844 979 l 257
 1359.32714844 979 l 257
1209.73535156 568 m 257
 1136.94140625 368 l 257
 2105.94140625 368 l 257
 2178.73535156 568 l 257
 1209.73535156 568 l 257
842.481445312 1441 m 257
 361.676757812 120 l 257
 561.676757812 120 l 257
 1042.48144531 1441 l 257
 842.481445312 1441 l 257
280.154296875 734 m 257
 207.360351562 534 l 257
 711.360351562 534 l 257
 784.154296875 734 l 257
 280.154296875 734 l 257
415.271484375 270 m 257
 342.477539062 70 l 257
 2082.47753906 70 l 257
 2155.27148438 270 l 257
 415.271484375 270 l 257
EndSplineSet
Ligature2: "halfHalfFormsinDevanagarilookup0 subtable" uni0916 uni094D
EndChar

StartChar: uni0916_uni094D.haln
Encoding: 65545 -1 387
GlifName: uni0916_uni094D_.haln
Width: 2048
VWidth: 0
GlyphClass: 2
Flags: HW
LayerCount: 2
Fore
SplineSet
1126.8515625 1548 m 257
 981.991210938 1349 l 257
 3033.99121094 1349 l 257
 3178.8515625 1548 l 257
 1126.8515625 1548 l 257
2822.1015625 1514 m 257
 1720 0 l 257
 1920 0 l 257
 3022.1015625 1514 l 257
 2822.1015625 1514 l 257
1745.65332031 979 m 257
 1600.06542969 779 l 257
 2028.06542969 779 l 257
 2173.65332031 979 l 257
 1745.65332031 979 l 257
1715.65332031 979 m 257
 1335.66796875 457 l 257
 1535.66796875 457 l 257
 1915.65332031 979 l 257
 1715.65332031 979 l 257
1416.47070312 568 m 257
 1270.8828125 368 l 257
 2039.8828125 368 l 257
 2185.47070312 568 l 257
 1416.47070312 568 l 257
1366.96191406 1441 m 257
 405.353515625 120 l 257
 605.353515625 120 l 257
 1566.96191406 1441 l 257
 1366.96191406 1441 l 257
547.30859375 734 m 257
 401.720703125 534 l 257
 905.720703125 534 l 257
 1051.30859375 734 l 257
 547.30859375 734 l 257
513.54296875 270 m 257
 367.955078125 70 l 257
 1907.95507812 70 l 257
 2053.54296875 270 l 257
 513.54296875 270 l 257
1478.984375 -22 m 257
 1336.30859375 -218 l 257
 1693.30859375 -218 l 257
 1835.984375 -22 l 257
 1478.984375 -22 l 257
1577.78710938 -183 m 257
 1752.97070312 -588 l 257
 2015.625 -425 l 257
 1838.71289062 -21 l 257
 1577.78710938 -183 l 257
EndSplineSet
Ligature2: "halnHalantFormsinDevanagarilookup0 subtable" uni0916 uni094D
EndChar

StartChar: uni0917
Encoding: 2327 2327 388
GlifName: uni0917
Width: 2048
VWidth: 0
GlyphClass: 2
Flags: W
LayerCount: 2
Fore
SplineSet
361.466796875 853 m 257
 560.466796875 853 l 257
 629.985351562 1044 l 257
 430.985351562 1044 l 257
 361.466796875 853 l 257
372.021484375 882 m 257
 299.591796875 683 l 257
 1287.59179688 683 l 257
 1360.02148438 882 l 257
 372.021484375 882 l 257
1403.42578125 1548 m 257
 1135.54394531 812 l 257
 1334.54394531 812 l 257
 1602.42578125 1548 l 257
 1403.42578125 1548 l 257
2560.42578125 1548 m 257
 773.42578125 1548 l 257
 700.631835938 1348 l 257
 2487.63183594 1348 l 257
 2560.42578125 1548 l 257
2271.32714844 1523 m 257
 1717 0 l 257
 1916 0 l 257
 2470.32714844 1523 l 257
 2271.32714844 1523 l 257
EndSplineSet
EndChar

StartChar: uni0917_uni0930_uni094D.vatu
Encoding: 65546 -1 389
GlifName: uni0917_uni0930_uni094D_.vatu
Width: 2048
VWidth: 0
GlyphClass: 2
Flags: W
LayerCount: 2
Fore
SplineSet
52 0 m 257
 476 0 l 257
 1856.25390625 215 l 257
 1929.41113281 416 l 257
 52 0 l 257
361.466796875 853 m 257
 560.466796875 853 l 257
 629.985351562 1044 l 257
 430.985351562 1044 l 257
 361.466796875 853 l 257
372.021484375 882 m 257
 299.591796875 683 l 257
 1287.59179688 683 l 257
 1360.02148438 882 l 257
 372.021484375 882 l 257
1403.42578125 1548 m 257
 1135.54394531 812 l 257
 1334.54394531 812 l 257
 1602.42578125 1548 l 257
 1403.42578125 1548 l 257
2560.42578125 1548 m 257
 773.42578125 1548 l 257
 700.631835938 1348 l 257
 2487.63183594 1348 l 257
 2560.42578125 1548 l 257
2271.32714844 1523 m 257
 1717 0 l 257
 1916 0 l 257
 2470.32714844 1523 l 257
 2271.32714844 1523 l 257
EndSplineSet
Ligature2: "vatuVattuVariantsinDevanagarilookup0 subtable" uni0917 uni0930_uni094D.blwf
EndChar

StartChar: uni0917_uni094D.half
Encoding: 65547 -1 390
GlifName: uni0917_uni094D_.half
Width: 2048
VWidth: 0
GlyphClass: 2
Flags: W
LayerCount: 2
Fore
SplineSet
361.466796875 853 m 257
 560.466796875 853 l 257
 629.985351562 1044 l 257
 430.985351562 1044 l 257
 361.466796875 853 l 257
372.021484375 882 m 257
 299.591796875 683 l 257
 1287.59179688 683 l 257
 1360.02148438 882 l 257
 372.021484375 882 l 257
1403.42578125 1548 m 257
 1135.54394531 812 l 257
 1334.54394531 812 l 257
 1602.42578125 1548 l 257
 1403.42578125 1548 l 257
2660.42578125 1548 m 257
 773.42578125 1548 l 257
 700.631835938 1348 l 257
 2587.63183594 1348 l 257
 2660.42578125 1548 l 257
EndSplineSet
Ligature2: "halfHalfFormsinDevanagarilookup0 subtable" uni0917 uni094D
EndChar

StartChar: uni0917_uni094D.haln
Encoding: 65548 -1 391
GlifName: uni0917_uni094D_.haln
Width: 2048
VWidth: 0
GlyphClass: 2
Flags: HW
LayerCount: 2
Fore
SplineSet
671.93359375 853 m 257
 870.93359375 853 l 257
 1009.96972656 1044 l 257
 810.969726562 1044 l 257
 671.93359375 853 l 257
693.04296875 882 m 257
 548.18359375 683 l 257
 1536.18359375 683 l 257
 1681.04296875 882 l 257
 693.04296875 882 l 257
1966.8515625 1548 m 257
 1431.08789062 812 l 257
 1630.08789062 812 l 257
 2165.8515625 1548 l 257
 1966.8515625 1548 l 257
3123.8515625 1548 m 257
 1336.8515625 1548 l 257
 1191.26367188 1348 l 257
 2978.26367188 1348 l 257
 3123.8515625 1548 l 257
2825.65332031 1523 m 257
 1717 0 l 257
 1916 0 l 257
 3024.65332031 1523 l 257
 2825.65332031 1523 l 257
1478.984375 -22 m 257
 1336.30859375 -218 l 257
 1693.30859375 -218 l 257
 1835.984375 -22 l 257
 1478.984375 -22 l 257
1577.78710938 -183 m 257
 1752.97070312 -588 l 257
 2015.625 -425 l 257
 1838.71289062 -21 l 257
 1577.78710938 -183 l 257
EndSplineSet
Ligature2: "halnHalantFormsinDevanagarilookup0 subtable" uni0917 uni094D
EndChar

StartChar: uni0918
Encoding: 2328 2328 392
GlifName: uni0918
Width: 2048
VWidth: 0
GlyphClass: 2
Flags: W
LayerCount: 2
Fore
SplineSet
565.609375 1554 m 257
 492.815429688 1354 l 257
 2540.81542969 1354 l 257
 2613.609375 1554 l 257
 565.609375 1554 l 257
2279.96289062 1522 m 257
 1730.73144531 13 l 257
 1930.73144531 13 l 257
 2479.96289062 1522 l 257
 2279.96289062 1522 l 257
723.415039062 1515 m 257
 493.385742188 883 l 257
 693.385742188 883 l 257
 923.415039062 1515 l 257
 723.415039062 1515 l 257
599.760742188 917 m 257
 526.966796875 717 l 257
 1282.96679688 717 l 257
 1355.76074219 917 l 257
 599.760742188 917 l 257
348.702148438 469 m 257
 275.908203125 269 l 257
 1999.90820312 269 l 257
 2072.70214844 469 l 257
 348.702148438 469 l 257
269.908203125 269 m 257
 469.908203125 269 l 257
 650.073242188 764 l 257
 450.073242188 764 l 257
 269.908203125 269 l 257
EndSplineSet
EndChar

StartChar: uni0918_uni0930_uni094D.vatu
Encoding: 65549 -1 393
GlifName: uni0918_uni0930_uni094D_.vatu
Width: 2048
VWidth: 0
GlyphClass: 2
Flags: W
LayerCount: 2
Fore
SplineSet
52 0 m 257
 476 0 l 257
 1856.25390625 215 l 257
 1929.41113281 416 l 257
 52 0 l 257
565.609375 1554 m 257
 492.815429688 1354 l 257
 2540.81542969 1354 l 257
 2613.609375 1554 l 257
 565.609375 1554 l 257
2279.96289062 1522 m 257
 1730.73144531 13 l 257
 1930.73144531 13 l 257
 2479.96289062 1522 l 257
 2279.96289062 1522 l 257
723.415039062 1515 m 257
 566.1796875 1083 l 257
 766.1796875 1083 l 257
 923.415039062 1515 l 257
 723.415039062 1515 l 257
672.5546875 1117 m 257
 599.760742188 917 l 257
 1355.76074219 917 l 257
 1428.5546875 1117 l 257
 672.5546875 1117 l 257
421.49609375 669 m 257
 348.702148438 469 l 257
 2072.70214844 469 l 257
 2145.49609375 669 l 257
 421.49609375 669 l 257
342.702148438 469 m 257
 542.702148438 469 l 257
 722.8671875 964 l 257
 522.8671875 964 l 257
 342.702148438 469 l 257
EndSplineSet
Ligature2: "vatuVattuVariantsinDevanagarilookup0 subtable" uni0918 uni0930_uni094D.blwf
EndChar

StartChar: uni0918_uni094D.half
Encoding: 65550 -1 394
GlifName: uni0918_uni094D_.half
Width: 2048
VWidth: 0
GlyphClass: 2
Flags: W
LayerCount: 2
Fore
SplineSet
565.609375 1554 m 257
 492.815429688 1354 l 257
 2540.81542969 1354 l 257
 2613.609375 1554 l 257
 565.609375 1554 l 257
723.415039062 1515 m 257
 493.385742188 883 l 257
 693.385742188 883 l 257
 923.415039062 1515 l 257
 723.415039062 1515 l 257
599.760742188 917 m 257
 526.966796875 717 l 257
 1282.96679688 717 l 257
 1355.76074219 917 l 257
 599.760742188 917 l 257
348.702148438 469 m 257
 275.908203125 269 l 257
 2199.90820312 269 l 257
 2272.70214844 469 l 257
 348.702148438 469 l 257
269.908203125 269 m 257
 469.908203125 269 l 257
 650.073242188 764 l 257
 450.073242188 764 l 257
 269.908203125 269 l 257
EndSplineSet
Ligature2: "halfHalfFormsinDevanagarilookup0 subtable" uni0918 uni094D
EndChar

StartChar: uni0918_uni094D.haln
Encoding: 65551 -1 395
GlifName: uni0918_uni094D_.haln
Width: 2048
VWidth: 0
GlyphClass: 2
Flags: HW
LayerCount: 2
Fore
SplineSet
1131.21875 1554 m 257
 985.630859375 1354 l 257
 3033.63085938 1354 l 257
 3179.21875 1554 l 257
 1131.21875 1554 l 257
2833.92480469 1522 m 257
 1735.46289062 13 l 257
 1935.46289062 13 l 257
 3033.92480469 1522 l 257
 2833.92480469 1522 l 257
1274.82910156 1515 m 257
 814.771484375 883 l 257
 1014.77148438 883 l 257
 1474.82910156 1515 l 257
 1274.82910156 1515 l 257
933.521484375 917 m 257
 787.93359375 717 l 257
 1543.93359375 717 l 257
 1689.52148438 917 l 257
 933.521484375 917 l 257
519.404296875 469 m 257
 373.81640625 269 l 257
 2097.81640625 269 l 257
 2243.40429688 469 l 257
 519.404296875 469 l 257
367.81640625 269 m 257
 567.81640625 269 l 257
 928.146484375 764 l 257
 728.146484375 764 l 257
 367.81640625 269 l 257
1478.984375 -22 m 257
 1336.30859375 -218 l 257
 1693.30859375 -218 l 257
 1835.984375 -22 l 257
 1478.984375 -22 l 257
1577.78710938 -183 m 257
 1752.97070312 -588 l 257
 2015.625 -425 l 257
 1838.71289062 -21 l 257
 1577.78710938 -183 l 257
EndSplineSet
Ligature2: "halnHalantFormsinDevanagarilookup0 subtable" uni0918 uni094D
EndChar

StartChar: uni0919
Encoding: 2329 2329 396
GlifName: uni0919
Width: 2048
VWidth: 0
GlyphClass: 2
Flags: W
LayerCount: 2
Fore
SplineSet
565.609375 1554 m 257
 492.815429688 1354 l 257
 2542.81542969 1354 l 257
 2615.609375 1554 l 257
 565.609375 1554 l 257
1584.60644531 1543 m 257
 1395.34179688 1023 l 257
 1595.34179688 1023 l 257
 1784.60644531 1543 l 257
 1584.60644531 1543 l 257
1660.22753906 1226 m 257
 674.227539062 1226 l 257
 600.341796875 1023 l 257
 1586.34179688 1023 l 257
 1660.22753906 1226 l 257
621.1796875 1083 m 257
 455.9375 629 l 257
 660.9375 629 l 257
 826.1796875 1083 l 257
 621.1796875 1083 l 257
525.456054688 820 m 257
 452.661132812 620 l 257
 1525.66113281 620 l 257
 1598.45605469 820 l 257
 525.456054688 820 l 257
1347.5 680 m 257
 1110.5546875 29 l 257
 1310.5546875 29 l 257
 1547.5 680 l 257
 1347.5 680 l 257
187.158203125 201 m 257
 114 0 l 257
 1301 0 l 257
 1374.15820312 201 l 257
 187.158203125 201 l 257
267.958984375 423 m 257
 116.912109375 8 l 257
 317.912109375 8 l 257
 468.958984375 423 l 257
 267.958984375 423 l 257
1704.4375 1037 m 257
 1650.93359375 890 l 257
 1807.93359375 890 l 257
 1861.4375 1037 l 257
 1704.4375 1037 l 257
EndSplineSet
EndChar

StartChar: uni0919_uni0930_uni094D.vatu
Encoding: 65552 -1 397
GlifName: uni0919_uni0930_uni094D_.vatu
Width: 2048
VWidth: 0
GlyphClass: 2
Flags: W
LayerCount: 2
Fore
SplineSet
961.756835938 90 m 257
 1047.44824219 -290 l 257
 1329.44824219 -290 l 257
 1145.26855469 259 l 257
 961.756835938 90 l 257
1145.26855469 259 m 257
 535.172851562 -299 l 257
 756.172851562 -299 l 257
 1200.21289062 94 l 257
 1145.26855469 259 l 257
565.609375 1554 m 257
 492.815429688 1354 l 257
 2542.81542969 1354 l 257
 2615.609375 1554 l 257
 565.609375 1554 l 257
1584.60644531 1543 m 257
 1432.83007812 1126 l 257
 1632.83007812 1126 l 257
 1784.60644531 1543 l 257
 1584.60644531 1543 l 257
1696.625 1326 m 257
 710.625 1326 l 257
 637.830078125 1126 l 257
 1623.83007812 1126 l 257
 1696.625 1326 l 257
657.577148438 1183 m 257
 528.731445312 829 l 257
 733.731445312 829 l 257
 862.577148438 1183 l 257
 657.577148438 1183 l 257
599.341796875 1023 m 257
 525.456054688 820 l 257
 1598.45605469 820 l 257
 1672.34179688 1023 l 257
 599.341796875 1023 l 257
1420.29394531 880 m 257
 1219.74609375 329 l 257
 1419.74609375 329 l 257
 1620.29394531 880 l 257
 1420.29394531 880 l 257
296.348632812 501 m 257
 223.19140625 300 l 257
 1410.19140625 300 l 257
 1483.34863281 501 l 257
 296.348632812 501 l 257
377.150390625 723 m 257
 226.102539062 308 l 257
 427.102539062 308 l 257
 578.150390625 723 l 257
 377.150390625 723 l 257
1779.20898438 1171 m 257
 1725.34179688 1023 l 257
 1882.34179688 1023 l 257
 1936.20898438 1171 l 257
 1779.20898438 1171 l 257
EndSplineSet
Ligature2: "vatuVattuVariantsinDevanagarilookup0 subtable" uni0919 uni0930_uni094D.blwf
EndChar

StartChar: uni0919_uni094D.half
Encoding: 65553 -1 398
GlifName: uni0919_uni094D_.half
Width: 2048
VWidth: 0
GlyphClass: 2
Flags: W
LayerCount: 2
Fore
SplineSet
565.609375 1554 m 257
 492.815429688 1354 l 257
 2542.81542969 1354 l 257
 2615.609375 1554 l 257
 565.609375 1554 l 257
1584.60644531 1543 m 257
 1395.34179688 1023 l 257
 1595.34179688 1023 l 257
 1784.60644531 1543 l 257
 1584.60644531 1543 l 257
1660.22753906 1226 m 257
 674.227539062 1226 l 257
 600.341796875 1023 l 257
 1586.34179688 1023 l 257
 1660.22753906 1226 l 257
621.1796875 1083 m 257
 492.333984375 729 l 257
 697.333984375 729 l 257
 826.1796875 1083 l 257
 621.1796875 1083 l 257
561.852539062 920 m 257
 489.05859375 720 l 257
 1562.05859375 720 l 257
 1634.85253906 920 l 257
 561.852539062 920 l 257
1383.89648438 780 m 257
 1146.95214844 129 l 257
 1346.95214844 129 l 257
 1583.89648438 780 l 257
 1383.89648438 780 l 257
223.5546875 301 m 257
 150.397460938 100 l 257
 1337.39746094 100 l 257
 1410.5546875 301 l 257
 223.5546875 301 l 257
304.356445312 523 m 257
 153.30859375 108 l 257
 354.30859375 108 l 257
 505.356445312 523 l 257
 304.356445312 523 l 257
1704.4375 1037 m 257
 1650.93359375 890 l 257
 1807.93359375 890 l 257
 1861.4375 1037 l 257
 1704.4375 1037 l 257
1123.38964844 78 m 257
 1052.05175781 -118 l 257
 1409.05175781 -118 l 257
 1480.38964844 78 l 257
 1123.38964844 78 l 257
1280.79003906 -83 m 257
 1603.3828125 -488 l 257
 1806.70996094 -325 l 257
 1482.75390625 79 l 257
 1280.79003906 -83 l 257
EndSplineSet
Ligature2: "halfHalfFormsinDevanagarilookup0 subtable" uni0919 uni094D
EndChar

StartChar: uni0919_uni094D.haln
Encoding: 65554 -1 399
GlifName: uni0919_uni094D_.haln
Width: 2048
VWidth: 0
GlyphClass: 2
Flags: HW
LayerCount: 2
Fore
SplineSet
1131.21875 1554 m 257
 985.630859375 1354 l 257
 3035.63085938 1354 l 257
 3181.21875 1554 l 257
 1131.21875 1554 l 257
2146.21191406 1543 m 257
 1767.68359375 1023 l 257
 1967.68359375 1023 l 257
 2346.21191406 1543 l 257
 2146.21191406 1543 l 257
2106.45507812 1226 m 257
 1120.45507812 1226 l 257
 972.68359375 1023 l 257
 1958.68359375 1023 l 257
 2106.45507812 1226 l 257
1015.359375 1083 m 257
 684.875 629 l 257
 889.875 629 l 257
 1220.359375 1083 l 257
 1015.359375 1083 l 257
823.911132812 820 m 257
 678.322265625 620 l 257
 1751.32226562 620 l 257
 1896.91113281 820 l 257
 823.911132812 820 l 257
1595 680 m 257
 1121.109375 29 l 257
 1321.109375 29 l 257
 1795 680 l 257
 1595 680 l 257
260.31640625 201 m 257
 114 0 l 257
 1301 0 l 257
 1447.31640625 201 l 257
 260.31640625 201 l 257
421.91796875 423 m 257
 119.82421875 8 l 257
 320.82421875 8 l 257
 622.91796875 423 l 257
 421.91796875 423 l 257
2081.87402344 1037 m 257
 1974.8671875 890 l 257
 2131.8671875 890 l 257
 2238.87402344 1037 l 257
 2081.87402344 1037 l 257
1478.984375 -22 m 257
 1336.30859375 -218 l 257
 1693.30859375 -218 l 257
 1835.984375 -22 l 257
 1478.984375 -22 l 257
1577.78710938 -183 m 257
 1752.97070312 -588 l 257
 2015.625 -425 l 257
 1838.71289062 -21 l 257
 1577.78710938 -183 l 257
EndSplineSet
Ligature2: "halnHalantFormsinDevanagarilookup0 subtable" uni0919 uni094D
EndChar

StartChar: uni091A
Encoding: 2330 2330 400
GlifName: uni091A_
Width: 2048
VWidth: 0
GlyphClass: 2
Flags: W
LayerCount: 2
Fore
SplineSet
566.337890625 1556 m 257
 493.543945312 1356 l 257
 2541.54394531 1356 l 257
 2614.33789062 1556 l 257
 566.337890625 1556 l 257
2227.24609375 1553 m 257
 1662 0 l 257
 1862 0 l 257
 2427.24609375 1553 l 257
 2227.24609375 1553 l 257
1930.91210938 280 m 257
 2003.70605469 480 l 257
 982.706054688 480 l 257
 909.912109375 280 l 257
 1930.91210938 280 l 257
1112.64355469 837 m 257
 961.231445312 421 l 257
 1161.23144531 421 l 257
 1312.64355469 837 l 257
 1112.64355469 837 l 257
432.694335938 991 m 257
 359.900390625 791 l 257
 1367.90039062 791 l 257
 1440.69433594 991 l 257
 432.694335938 991 l 257
EndSplineSet
EndChar

StartChar: uni091A_uni0930_uni094D.vatu
Encoding: 65555 -1 401
GlifName: uni091A__uni0930_uni094D_.vatu
Width: 2048
VWidth: 0
GlyphClass: 2
Flags: W
LayerCount: 2
Fore
SplineSet
52 0 m 257
 476 0 l 257
 1856.25390625 215 l 257
 1929.41113281 416 l 257
 52 0 l 257
566.337890625 1556 m 257
 493.543945312 1356 l 257
 2541.54394531 1356 l 257
 2614.33789062 1556 l 257
 566.337890625 1556 l 257
2227.24609375 1553 m 257
 1662 0 l 257
 1862 0 l 257
 2427.24609375 1553 l 257
 2227.24609375 1553 l 257
2003.70605469 480 m 257
 2076.5 680 l 257
 1055.5 680 l 257
 982.706054688 480 l 257
 2003.70605469 480 l 257
1185.4375 1037 m 257
 1034.02539062 621 l 257
 1234.02539062 621 l 257
 1385.4375 1037 l 257
 1185.4375 1037 l 257
505.48828125 1191 m 257
 432.694335938 991 l 257
 1440.69433594 991 l 257
 1513.48828125 1191 l 257
 505.48828125 1191 l 257
EndSplineSet
Ligature2: "vatuVattuVariantsinDevanagarilookup0 subtable" uni091A uni0930_uni094D.blwf
EndChar

StartChar: uni091A_uni094D.half
Encoding: 65556 -1 402
GlifName: uni091A__uni094D_.half
Width: 2048
VWidth: 0
GlyphClass: 2
Flags: W
LayerCount: 2
Fore
SplineSet
566.337890625 1556 m 257
 493.543945312 1356 l 257
 2541.54394531 1356 l 257
 2614.33789062 1556 l 257
 566.337890625 1556 l 257
2230.91210938 280 m 257
 2303.70605469 480 l 257
 1282.70605469 480 l 257
 1209.91210938 280 l 257
 2230.91210938 280 l 257
1412.64355469 837 m 257
 1261.23144531 421 l 257
 1461.23144531 421 l 257
 1612.64355469 837 l 257
 1412.64355469 837 l 257
732.694335938 991 m 257
 659.900390625 791 l 257
 1667.90039062 791 l 257
 1740.69433594 991 l 257
 732.694335938 991 l 257
EndSplineSet
Ligature2: "halfHalfFormsinDevanagarilookup0 subtable" uni091A uni094D
EndChar

StartChar: uni091A_uni094D.haln
Encoding: 65557 -1 403
GlifName: uni091A__uni094D_.haln
Width: 2048
VWidth: 0
GlyphClass: 2
Flags: HW
LayerCount: 2
Fore
SplineSet
1132.67480469 1556 m 257
 987.086914062 1356 l 257
 3035.08691406 1356 l 257
 3180.67480469 1556 l 257
 1132.67480469 1556 l 257
2792.49121094 1553 m 257
 1662 0 l 257
 1862 0 l 257
 2992.49121094 1553 l 257
 2792.49121094 1553 l 257
2032.82324219 280 m 257
 2178.41210938 480 l 257
 1157.41210938 480 l 257
 1011.82324219 280 l 257
 2032.82324219 280 l 257
1417.28613281 837 m 257
 1114.46289062 421 l 257
 1314.46289062 421 l 257
 1617.28613281 837 l 257
 1417.28613281 837 l 257
793.388671875 991 m 257
 647.80078125 791 l 257
 1655.80078125 791 l 257
 1801.38867188 991 l 257
 793.388671875 991 l 257
1478.984375 -22 m 257
 1336.30859375 -218 l 257
 1693.30859375 -218 l 257
 1835.984375 -22 l 257
 1478.984375 -22 l 257
1577.78710938 -183 m 257
 1752.97070312 -588 l 257
 2015.625 -425 l 257
 1838.71289062 -21 l 257
 1577.78710938 -183 l 257
EndSplineSet
Ligature2: "halnHalantFormsinDevanagarilookup0 subtable" uni091A uni094D
EndChar

StartChar: uni091B
Encoding: 2331 2331 404
GlifName: uni091B_
Width: 2048
VWidth: 0
GlyphClass: 2
Flags: W
LayerCount: 2
Fore
SplineSet
565.973632812 1555 m 257
 493.1796875 1355 l 257
 2544.1796875 1355 l 257
 2616.97363281 1555 l 257
 565.973632812 1555 l 257
1647.28613281 1130 m 257
 506.286132812 1130 l 257
 433.856445312 931 l 257
 1574.85644531 931 l 257
 1647.28613281 1130 l 257
503.286132812 1130 m 257
 304.55859375 584 l 257
 504.55859375 584 l 257
 703.286132812 1130 l 257
 503.286132812 1130 l 257
402.577148438 639 m 257
 329.783203125 439 l 257
 979.783203125 439 l 257
 1052.57714844 639 l 257
 402.577148438 639 l 257
266.4375 493 m 257
 87 0 l 257
 287 0 l 257
 466.4375 493 l 257
 266.4375 493 l 257
159.4296875 199 m 257
 87 0 l 257
 1522 0 l 257
 1594.4296875 199 l 257
 159.4296875 199 l 257
1323.18359375 6 m 257
 1524.18359375 6 l 257
 2073.41503906 1515 l 257
 1872.41503906 1515 l 257
 1323.18359375 6 l 257
1828.51757812 1007 m 257
 1756.08789062 808 l 257
 2326.08789062 808 l 257
 2398.51757812 1007 l 257
 1828.51757812 1007 l 257
2146.92578125 868 m 257
 2002.4296875 471 l 257
 2203.4296875 471 l 257
 2347.92578125 868 l 257
 2146.92578125 868 l 257
EndSplineSet
EndChar

StartChar: uni091B_uni0930_uni094D.vatu
Encoding: 65558 -1 405
GlifName: uni091B__uni0930_uni094D_.vatu
Width: 2048
VWidth: 0
GlyphClass: 2
Flags: W
LayerCount: 2
Fore
SplineSet
536 0 m 257
 960 0 l 257
 1550.47753906 70 l 257
 1623.63574219 271 l 257
 536 0 l 257
565.973632812 1555 m 257
 493.1796875 1355 l 257
 2544.1796875 1355 l 257
 2616.97363281 1555 l 257
 565.973632812 1555 l 257
1693.875 1258 m 257
 552.875 1258 l 257
 485.17578125 1072 l 257
 1626.17578125 1072 l 257
 1693.875 1258 l 257
552.05859375 1264 m 257
 388.635742188 815 l 257
 588.635742188 815 l 257
 752.05859375 1264 l 257
 552.05859375 1264 l 257
486.654296875 870 m 257
 413.860351562 670 l 257
 1063.86035156 670 l 257
 1136.65429688 870 l 257
 486.654296875 870 l 257
350.514648438 724 m 257
 171.077148438 231 l 257
 371.077148438 231 l 257
 550.514648438 724 l 257
 350.514648438 724 l 257
243.506835938 430 m 257
 171.077148438 231 l 257
 1606.07714844 231 l 257
 1678.50683594 430 l 257
 243.506835938 430 l 257
1323.18359375 6 m 257
 1524.18359375 6 l 257
 2073.41503906 1515 l 257
 1872.41503906 1515 l 257
 1323.18359375 6 l 257
1863.82324219 1104 m 257
 1791.39257812 905 l 257
 2361.39257812 905 l 257
 2433.82324219 1104 l 257
 1863.82324219 1104 l 257
2182.23144531 965 m 257
 2037.73535156 568 l 257
 2238.73535156 568 l 257
 2383.23144531 965 l 257
 2182.23144531 965 l 257
EndSplineSet
Ligature2: "vatuVattuVariantsinDevanagarilookup0 subtable" uni091B uni0930_uni094D.blwf
EndChar

StartChar: uni091B_uni094D.half
Encoding: 65559 -1 406
GlifName: uni091B__uni094D_.half
Width: 2048
VWidth: 0
GlyphClass: 2
Flags: W
LayerCount: 2
Fore
SplineSet
565.973632812 1555 m 257
 493.1796875 1355 l 257
 2544.1796875 1355 l 257
 2616.97363281 1555 l 257
 565.973632812 1555 l 257
2247.28613281 1130 m 257
 1106.28613281 1130 l 257
 1033.85644531 931 l 257
 2174.85644531 931 l 257
 2247.28613281 1130 l 257
1103.28613281 1130 m 257
 904.55859375 584 l 257
 1104.55859375 584 l 257
 1303.28613281 1130 l 257
 1103.28613281 1130 l 257
1002.57714844 639 m 257
 929.783203125 439 l 257
 1579.78320312 439 l 257
 1652.57714844 639 l 257
 1002.57714844 639 l 257
866.4375 493 m 257
 687 0 l 257
 887 0 l 257
 1066.4375 493 l 257
 866.4375 493 l 257
759.4296875 199 m 257
 687 0 l 257
 2122 0 l 257
 2194.4296875 199 l 257
 759.4296875 199 l 257
EndSplineSet
Ligature2: "halfHalfFormsinDevanagarilookup0 subtable" uni091B uni094D
EndChar

StartChar: uni091B_uni094D.haln
Encoding: 65560 -1 407
GlifName: uni091B__uni094D_.haln
Width: 2048
VWidth: 0
GlyphClass: 2
Flags: HW
LayerCount: 2
Fore
SplineSet
1131.94726562 1555 m 257
 986.359375 1355 l 257
 3037.359375 1355 l 257
 3182.94726562 1555 l 257
 1131.94726562 1555 l 257
2058.57226562 1130 m 257
 917.572265625 1130 l 257
 772.712890625 931 l 257
 1913.71289062 931 l 257
 2058.57226562 1130 l 257
914.572265625 1130 m 257
 517.1171875 584 l 257
 717.1171875 584 l 257
 1114.57226562 1130 l 257
 914.572265625 1130 l 257
635.154296875 639 m 257
 489.56640625 439 l 257
 1139.56640625 439 l 257
 1285.15429688 639 l 257
 635.154296875 639 l 257
445.875 493 m 257
 87 0 l 257
 287 0 l 257
 645.875 493 l 257
 445.875 493 l 257
231.859375 199 m 257
 87 0 l 257
 1522 0 l 257
 1666.859375 199 l 257
 231.859375 199 l 257
1325.3671875 6 m 257
 1526.3671875 6 l 257
 2624.82910156 1515 l 257
 2423.82910156 1515 l 257
 1325.3671875 6 l 257
2195.03515625 1007 m 257
 2050.17578125 808 l 257
 2620.17578125 808 l 257
 2765.03515625 1007 l 257
 2195.03515625 1007 l 257
2462.8515625 868 m 257
 2173.859375 471 l 257
 2374.859375 471 l 257
 2663.8515625 868 l 257
 2462.8515625 868 l 257
1273.984375 -22 m 257
 1131.30859375 -218 l 257
 1488.30859375 -218 l 257
 1630.984375 -22 l 257
 1273.984375 -22 l 257
1372.78710938 -183 m 257
 1547.97070312 -588 l 257
 1810.625 -425 l 257
 1633.71289062 -21 l 257
 1372.78710938 -183 l 257
EndSplineSet
Ligature2: "halnHalantFormsinDevanagarilookup0 subtable" uni091B uni094D
EndChar

StartChar: uni091C
Encoding: 2332 2332 408
GlifName: uni091C_
Width: 2048
VWidth: 0
GlyphClass: 2
Flags: W
LayerCount: 2
Fore
SplineSet
546.42578125 1548 m 257
 474.359375 1350 l 257
 2556.359375 1350 l 257
 2628.42578125 1548 l 257
 546.42578125 1548 l 257
2282.42578125 1548 m 257
 1714.6328125 -12 l 257
 1913.6328125 -12 l 257
 2481.42578125 1548 l 257
 2282.42578125 1548 l 257
1239.01464844 860 m 257
 1167.3125 663 l 257
 2093.3125 663 l 257
 2165.01464844 860 l 257
 1239.01464844 860 l 257
1193.01464844 860 m 257
 1030.31933594 413 l 257
 1230.31933594 413 l 257
 1393.01464844 860 l 257
 1193.01464844 860 l 257
264.37109375 567 m 257
 191.577148438 367 l 257
 1213.57714844 367 l 257
 1286.37109375 567 l 257
 264.37109375 567 l 257
369.194335938 855 m 257
 243.260742188 509 l 257
 443.260742188 509 l 257
 569.194335938 855 l 257
 369.194335938 855 l 257
EndSplineSet
EndChar

StartChar: uni091C_uni0930_uni094D.vatu
Encoding: 65561 -1 409
GlifName: uni091C__uni0930_uni094D_.vatu
Width: 2048
VWidth: 0
GlyphClass: 2
Flags: W
LayerCount: 2
Fore
SplineSet
52 0 m 257
 476 0 l 257
 1856.25390625 215 l 257
 1929.41113281 416 l 257
 52 0 l 257
546.42578125 1548 m 257
 474.359375 1350 l 257
 2556.359375 1350 l 257
 2628.42578125 1548 l 257
 546.42578125 1548 l 257
2282.42578125 1548 m 257
 1714.6328125 -12 l 257
 1913.6328125 -12 l 257
 2481.42578125 1548 l 257
 2282.42578125 1548 l 257
1239.01464844 860 m 257
 1167.3125 663 l 257
 2093.3125 663 l 257
 2165.01464844 860 l 257
 1239.01464844 860 l 257
1193.01464844 860 m 257
 1030.31933594 413 l 257
 1230.31933594 413 l 257
 1393.01464844 860 l 257
 1193.01464844 860 l 257
264.37109375 567 m 257
 191.577148438 367 l 257
 1213.57714844 367 l 257
 1286.37109375 567 l 257
 264.37109375 567 l 257
369.194335938 855 m 257
 243.260742188 509 l 257
 443.260742188 509 l 257
 569.194335938 855 l 257
 369.194335938 855 l 257
EndSplineSet
Ligature2: "vatuVattuVariantsinDevanagarilookup0 subtable" uni091C uni0930_uni094D.blwf
EndChar

StartChar: uni091C_uni094D.half
Encoding: 65562 -1 410
GlifName: uni091C__uni094D_.half
Width: 2048
VWidth: 0
GlyphClass: 2
Flags: W
LayerCount: 2
Fore
SplineSet
546.42578125 1548 m 257
 474.359375 1350 l 257
 2556.359375 1350 l 257
 2628.42578125 1548 l 257
 546.42578125 1548 l 257
1539.01464844 860 m 257
 1467.3125 663 l 257
 2393.3125 663 l 257
 2465.01464844 860 l 257
 1539.01464844 860 l 257
1493.01464844 860 m 257
 1330.31933594 413 l 257
 1530.31933594 413 l 257
 1693.01464844 860 l 257
 1493.01464844 860 l 257
564.37109375 567 m 257
 491.577148438 367 l 257
 1513.57714844 367 l 257
 1586.37109375 567 l 257
 564.37109375 567 l 257
669.194335938 855 m 257
 543.260742188 509 l 257
 743.260742188 509 l 257
 869.194335938 855 l 257
 669.194335938 855 l 257
EndSplineSet
Ligature2: "halfHalfFormsinDevanagarilookup0 subtable" uni091C uni094D
EndChar

StartChar: uni091C_uni094D.haln
Encoding: 65563 -1 411
GlifName: uni091C__uni094D_.haln
Width: 2048
VWidth: 0
GlyphClass: 2
Flags: HW
LayerCount: 2
Fore
SplineSet
1109.8515625 1548 m 257
 965.71875 1350 l 257
 3047.71875 1350 l 257
 3191.8515625 1548 l 257
 1109.8515625 1548 l 257
2845.8515625 1548 m 257
 1710.265625 -12 l 257
 1909.265625 -12 l 257
 3044.8515625 1548 l 257
 2845.8515625 1548 l 257
1552.02929688 860 m 257
 1408.625 663 l 257
 2334.625 663 l 257
 2478.02929688 860 l 257
 1552.02929688 860 l 257
1506.02929688 860 m 257
 1180.63867188 413 l 257
 1380.63867188 413 l 257
 1706.02929688 860 l 257
 1506.02929688 860 l 257
470.7421875 567 m 257
 325.154296875 367 l 257
 1347.15429688 367 l 257
 1492.7421875 567 l 257
 470.7421875 567 l 257
680.388671875 855 m 257
 428.521484375 509 l 257
 628.521484375 509 l 257
 880.388671875 855 l 257
 680.388671875 855 l 257
1478.984375 -22 m 257
 1336.30859375 -218 l 257
 1693.30859375 -218 l 257
 1835.984375 -22 l 257
 1478.984375 -22 l 257
1577.78710938 -183 m 257
 1752.97070312 -588 l 257
 2015.625 -425 l 257
 1838.71289062 -21 l 257
 1577.78710938 -183 l 257
EndSplineSet
Ligature2: "halnHalantFormsinDevanagarilookup0 subtable" uni091C uni094D
EndChar

StartChar: uni091C_uni094D_uni091E.akhn
Encoding: 65564 -1 412
GlifName: uni091C__uni094D__uni091E_.akhn
Width: 2048
VWidth: 0
GlyphClass: 2
Flags: W
LayerCount: 2
Fore
SplineSet
529.42578125 1548 m 257
 457.359375 1350 l 257
 2539.359375 1350 l 257
 2611.42578125 1548 l 257
 529.42578125 1548 l 257
2265.42578125 1548 m 257
 1697.6328125 -12 l 257
 1896.6328125 -12 l 257
 2464.42578125 1548 l 257
 2265.42578125 1548 l 257
1222.01464844 860 m 257
 1150.3125 663 l 257
 2076.3125 663 l 257
 2148.01464844 860 l 257
 1222.01464844 860 l 257
1176.01464844 860 m 257
 1013.31933594 413 l 257
 1213.31933594 413 l 257
 1376.01464844 860 l 257
 1176.01464844 860 l 257
247.37109375 567 m 257
 174.577148438 367 l 257
 1196.57714844 367 l 257
 1269.37109375 567 l 257
 247.37109375 567 l 257
174.94140625 368 m 257
 340.297851562 75 l 257
 598.297851562 75 l 257
 417.94140625 368 l 257
 174.94140625 368 l 257
EndSplineSet
Ligature2: "akhnAkhandinDevanagarilookup0 subtable" uni091C uni094D uni091E
EndChar

StartChar: uni091C_uni094D_uni091E.half
Encoding: 65565 -1 413
GlifName: uni091C__uni094D__uni091E_.half
Width: 2048
VWidth: 0
GlyphClass: 2
Flags: W
LayerCount: 2
Fore
SplineSet
529.42578125 1548 m 257
 457.359375 1350 l 257
 2539.359375 1350 l 257
 2611.42578125 1548 l 257
 529.42578125 1548 l 257
1422.01464844 860 m 257
 1350.3125 663 l 257
 2276.3125 663 l 257
 2348.01464844 860 l 257
 1422.01464844 860 l 257
1376.01464844 860 m 257
 1213.31933594 413 l 257
 1413.31933594 413 l 257
 1576.01464844 860 l 257
 1376.01464844 860 l 257
447.37109375 567 m 257
 374.577148438 367 l 257
 1396.57714844 367 l 257
 1469.37109375 567 l 257
 447.37109375 567 l 257
374.94140625 368 m 257
 540.297851562 75 l 257
 798.297851562 75 l 257
 617.94140625 368 l 257
 374.94140625 368 l 257
EndSplineSet
Ligature2: "halfHalfFormsinDevanagarilookup0 subtable" uni091C_uni094D_uni091E.akhn uni094D
EndChar

StartChar: uni091C_uni094D_uni091E_uni094D
Encoding: 65566 -1 414
GlifName: uni091C__uni094D__uni091E__uni094D_
Width: 2048
VWidth: 0
GlyphClass: 2
Flags: HW
LayerCount: 2
Fore
SplineSet
1092.8515625 1548 m 257
 948.71875 1350 l 257
 3030.71875 1350 l 257
 3174.8515625 1548 l 257
 1092.8515625 1548 l 257
2828.8515625 1548 m 257
 1693.265625 -12 l 257
 1892.265625 -12 l 257
 3027.8515625 1548 l 257
 2828.8515625 1548 l 257
1535.02929688 860 m 257
 1391.625 663 l 257
 2317.625 663 l 257
 2461.02929688 860 l 257
 1535.02929688 860 l 257
1489.02929688 860 m 257
 1163.63867188 413 l 257
 1363.63867188 413 l 257
 1689.02929688 860 l 257
 1489.02929688 860 l 257
453.7421875 567 m 257
 308.154296875 367 l 257
 1330.15429688 367 l 257
 1475.7421875 567 l 257
 453.7421875 567 l 257
308.8828125 368 m 257
 367.595703125 75 l 257
 625.595703125 75 l 257
 551.8828125 368 l 257
 308.8828125 368 l 257
1454.984375 -22 m 257
 1312.30859375 -218 l 257
 1669.30859375 -218 l 257
 1811.984375 -22 l 257
 1454.984375 -22 l 257
1553.78710938 -183 m 257
 1728.97070312 -588 l 257
 1991.625 -425 l 257
 1814.71289062 -21 l 257
 1553.78710938 -183 l 257
EndSplineSet
Ligature2: "halnHalantFormsinDevanagarilookup0 subtable" uni091C_uni094D_uni091E.akhn uni094D
EndChar

StartChar: uni091D
Encoding: 2333 2333 415
GlifName: uni091D_
Width: 2048
VWidth: 0
GlyphClass: 2
Flags: W
LayerCount: 2
Fore
SplineSet
555.42578125 1548 m 257
 482.99609375 1349 l 257
 2546.99609375 1349 l 257
 2619.42578125 1548 l 257
 555.42578125 1548 l 257
2271.421875 1537 m 257
 1710.1796875 -5 l 257
 1912.1796875 -5 l 257
 2473.421875 1537 l 257
 2271.421875 1537 l 257
1527.421875 1537 m 257
 1340.34179688 1023 l 257
 1540.34179688 1023 l 257
 1727.421875 1537 l 257
 1527.421875 1537 l 257
579.135742188 1223 m 257
 506.341796875 1023 l 257
 1540.34179688 1023 l 257
 1613.13574219 1223 l 257
 579.135742188 1223 l 257
528.907226562 1085 m 257
 370.944335938 651 l 257
 570.944335938 651 l 257
 728.907226562 1085 l 257
 528.907226562 1085 l 257
438.643554688 837 m 257
 366.212890625 638 l 257
 2140.21289062 638 l 257
 2212.64355469 837 l 257
 438.643554688 837 l 257
1191.50390625 691 m 257
 942.547851562 7 l 257
 1142.54785156 7 l 257
 1391.50390625 691 l 257
 1191.50390625 691 l 257
207.885742188 203 m 257
 134 0 l 257
 1140 0 l 257
 1213.88574219 203 l 257
 207.885742188 203 l 257
156.9296875 63 m 257
 80.1328125 -148 l 257
 280.1328125 -148 l 257
 356.9296875 63 l 257
 156.9296875 63 l 257
EndSplineSet
EndChar

StartChar: uni091D_uni0930_uni094D.vatu
Encoding: 65567 -1 416
GlifName: uni091D__uni0930_uni094D_.vatu
Width: 2048
VWidth: 0
GlyphClass: 2
Flags: W
LayerCount: 2
Fore
SplineSet
902 0 m 257
 1416 0 l 257
 1856.25390625 215 l 257
 1929.41113281 416 l 257
 902 0 l 257
555.42578125 1548 m 257
 482.99609375 1349 l 257
 2546.99609375 1349 l 257
 2619.42578125 1548 l 257
 555.42578125 1548 l 257
2271.421875 1537 m 257
 1710.1796875 -5 l 257
 1912.1796875 -5 l 257
 2473.421875 1537 l 257
 2271.421875 1537 l 257
1527.421875 1537 m 257
 1340.34179688 1023 l 257
 1540.34179688 1023 l 257
 1727.421875 1537 l 257
 1527.421875 1537 l 257
579.135742188 1223 m 257
 506.341796875 1023 l 257
 1540.34179688 1023 l 257
 1613.13574219 1223 l 257
 579.135742188 1223 l 257
528.907226562 1085 m 257
 370.944335938 651 l 257
 570.944335938 651 l 257
 728.907226562 1085 l 257
 528.907226562 1085 l 257
438.643554688 837 m 257
 366.212890625 638 l 257
 2140.21289062 638 l 257
 2212.64355469 837 l 257
 438.643554688 837 l 257
901.50390625 691 m 257
 652.547851562 7 l 257
 852.547851562 7 l 257
 1101.50390625 691 l 257
 901.50390625 691 l 257
207.885742188 203 m 257
 134 0 l 257
 850 0 l 257
 923.885742188 203 l 257
 207.885742188 203 l 257
156.9296875 63 m 257
 80.1328125 -148 l 257
 280.1328125 -148 l 257
 356.9296875 63 l 257
 156.9296875 63 l 257
EndSplineSet
Ligature2: "vatuVattuVariantsinDevanagarilookup0 subtable" uni091D uni0930_uni094D.blwf
EndChar

StartChar: uni091D_uni094D.half
Encoding: 65568 -1 417
GlifName: uni091D__uni094D_.half
Width: 2048
VWidth: 0
GlyphClass: 2
Flags: W
LayerCount: 2
Fore
SplineSet
555.42578125 1548 m 257
 482.99609375 1349 l 257
 2546.99609375 1349 l 257
 2619.42578125 1548 l 257
 555.42578125 1548 l 257
1827.421875 1537 m 257
 1640.34179688 1023 l 257
 1840.34179688 1023 l 257
 2027.421875 1537 l 257
 1827.421875 1537 l 257
879.135742188 1223 m 257
 806.341796875 1023 l 257
 1840.34179688 1023 l 257
 1913.13574219 1223 l 257
 879.135742188 1223 l 257
828.907226562 1085 m 257
 670.944335938 651 l 257
 870.944335938 651 l 257
 1028.90722656 1085 l 257
 828.907226562 1085 l 257
738.643554688 837 m 257
 666.212890625 638 l 257
 2440.21289062 638 l 257
 2512.64355469 837 l 257
 738.643554688 837 l 257
1491.50390625 691 m 257
 1242.54785156 7 l 257
 1442.54785156 7 l 257
 1691.50390625 691 l 257
 1491.50390625 691 l 257
507.885742188 203 m 257
 434 0 l 257
 1440 0 l 257
 1513.88574219 203 l 257
 507.885742188 203 l 257
456.9296875 63 m 257
 380.1328125 -148 l 257
 580.1328125 -148 l 257
 656.9296875 63 l 257
 456.9296875 63 l 257
EndSplineSet
Ligature2: "halfHalfFormsinDevanagarilookup0 subtable" uni091D uni094D
EndChar

StartChar: uni091D_uni094D.haln
Encoding: 65569 -1 418
GlifName: uni091D__uni094D_.haln
Width: 2048
VWidth: 0
GlyphClass: 2
Flags: HW
LayerCount: 2
Fore
SplineSet
1118.8515625 1548 m 257
 973.991210938 1349 l 257
 3037.99121094 1349 l 257
 3182.8515625 1548 l 257
 1118.8515625 1548 l 257
2830.84375 1537 m 257
 1708.359375 -5 l 257
 1910.359375 -5 l 257
 3032.84375 1537 l 257
 2830.84375 1537 l 257
2086.84375 1537 m 257
 1712.68359375 1023 l 257
 1912.68359375 1023 l 257
 2286.84375 1537 l 257
 2086.84375 1537 l 257
1024.27148438 1223 m 257
 878.68359375 1023 l 257
 1912.68359375 1023 l 257
 2058.27148438 1223 l 257
 1024.27148438 1223 l 257
923.814453125 1085 m 257
 607.888671875 651 l 257
 807.888671875 651 l 257
 1123.81445312 1085 l 257
 923.814453125 1085 l 257
743.286132812 837 m 257
 598.42578125 638 l 257
 2372.42578125 638 l 257
 2517.28613281 837 l 257
 743.286132812 837 l 257
1443.00683594 691 m 257
 945.095703125 7 l 257
 1145.09570312 7 l 257
 1643.00683594 691 l 257
 1443.00683594 691 l 257
281.771484375 203 m 257
 134 0 l 257
 1140 0 l 257
 1287.77148438 203 l 257
 281.771484375 203 l 257
179.859375 63 m 257
 26.265625 -148 l 257
 226.265625 -148 l 257
 379.859375 63 l 257
 179.859375 63 l 257
1478.984375 -22 m 257
 1336.30859375 -218 l 257
 1693.30859375 -218 l 257
 1835.984375 -22 l 257
 1478.984375 -22 l 257
1577.78710938 -183 m 257
 1752.97070312 -588 l 257
 2015.625 -425 l 257
 1838.71289062 -21 l 257
 1577.78710938 -183 l 257
EndSplineSet
Ligature2: "halnHalantFormsinDevanagarilookup0 subtable" uni091D uni094D
EndChar

StartChar: uni091E
Encoding: 2334 2334 419
GlifName: uni091E_
Width: 2048
VWidth: 0
GlyphClass: 2
Flags: W
LayerCount: 2
Fore
SplineSet
563.42578125 1548 m 257
 490.631835938 1348 l 257
 2540.63183594 1348 l 257
 2613.42578125 1548 l 257
 563.42578125 1548 l 257
2315.421875 1537 m 257
 1753.08789062 -8 l 257
 1953.08789062 -8 l 257
 2515.421875 1537 l 257
 2315.421875 1537 l 257
1248.24609375 737 m 257
 1175.45214844 537 l 257
 2049.45214844 537 l 257
 2122.24609375 737 l 257
 1248.24609375 737 l 257
435.411132812 960 m 257
 362.6171875 760 l 257
 1232.6171875 760 l 257
 1305.41113281 960 l 257
 435.411132812 960 l 257
1275.41113281 960 m 257
 1041.01464844 316 l 257
 1241.01464844 316 l 257
 1475.41113281 960 l 257
 1275.41113281 960 l 257
231.426757812 460 m 257
 158.631835938 260 l 257
 1220.63183594 260 l 257
 1293.42675781 460 l 257
 231.426757812 460 l 257
EndSplineSet
EndChar

StartChar: uni091E_uni0930_uni094D.vatu
Encoding: 65570 -1 420
GlifName: uni091E__uni0930_uni094D_.vatu
Width: 2048
VWidth: 0
GlyphClass: 2
Flags: W
LayerCount: 2
Fore
SplineSet
52 0 m 257
 476 0 l 257
 1856.25390625 215 l 257
 1929.41113281 416 l 257
 52 0 l 257
563.42578125 1548 m 257
 490.631835938 1348 l 257
 2540.63183594 1348 l 257
 2613.42578125 1548 l 257
 563.42578125 1548 l 257
2315.421875 1537 m 257
 1753.08789062 -8 l 257
 1953.08789062 -8 l 257
 2515.421875 1537 l 257
 2315.421875 1537 l 257
1248.24609375 737 m 257
 1175.45214844 537 l 257
 2049.45214844 537 l 257
 2122.24609375 737 l 257
 1248.24609375 737 l 257
435.411132812 960 m 257
 362.6171875 760 l 257
 1232.6171875 760 l 257
 1305.41113281 960 l 257
 435.411132812 960 l 257
1275.41113281 960 m 257
 1041.01464844 316 l 257
 1241.01464844 316 l 257
 1475.41113281 960 l 257
 1275.41113281 960 l 257
239.43359375 482 m 257
 166.639648438 282 l 257
 1228.63964844 282 l 257
 1301.43359375 482 l 257
 239.43359375 482 l 257
EndSplineSet
Ligature2: "vatuVattuVariantsinDevanagarilookup0 subtable" uni091E uni0930_uni094D.blwf
EndChar

StartChar: uni091E_uni094D.half
Encoding: 65571 -1 421
GlifName: uni091E__uni094D_.half
Width: 2048
VWidth: 0
GlyphClass: 2
Flags: W
LayerCount: 2
Fore
SplineSet
563.42578125 1548 m 257
 490.631835938 1348 l 257
 2540.63183594 1348 l 257
 2613.42578125 1548 l 257
 563.42578125 1548 l 257
1508.24609375 737 m 257
 1435.45214844 537 l 257
 2309.45214844 537 l 257
 2382.24609375 737 l 257
 1508.24609375 737 l 257
695.411132812 960 m 257
 622.6171875 760 l 257
 1492.6171875 760 l 257
 1565.41113281 960 l 257
 695.411132812 960 l 257
1535.41113281 960 m 257
 1301.01464844 316 l 257
 1501.01464844 316 l 257
 1735.41113281 960 l 257
 1535.41113281 960 l 257
491.426757812 460 m 257
 418.631835938 260 l 257
 1480.63183594 260 l 257
 1553.42675781 460 l 257
 491.426757812 460 l 257
EndSplineSet
Ligature2: "halfHalfFormsinDevanagarilookup0 subtable" uni091E uni094D
EndChar

StartChar: uni091E_uni094D.haln
Encoding: 65572 -1 422
GlifName: uni091E__uni094D_.haln
Width: 2048
VWidth: 0
GlyphClass: 2
Flags: HW
LayerCount: 2
Fore
SplineSet
1126.8515625 1548 m 257
 981.263671875 1348 l 257
 3031.26367188 1348 l 257
 3176.8515625 1548 l 257
 1126.8515625 1548 l 257
2874.84375 1537 m 257
 1750.17578125 -8 l 257
 1950.17578125 -8 l 257
 3074.84375 1537 l 257
 2874.84375 1537 l 257
1516.4921875 737 m 257
 1370.90429688 537 l 257
 2244.90429688 537 l 257
 2390.4921875 737 l 257
 1516.4921875 737 l 257
784.822265625 960 m 257
 639.234375 760 l 257
 1509.234375 760 l 257
 1654.82226562 960 l 257
 784.822265625 960 l 257
1624.82226562 960 m 257
 1156.02929688 316 l 257
 1356.02929688 316 l 257
 1824.82226562 960 l 257
 1624.82226562 960 l 257
398.852539062 460 m 257
 253.263671875 260 l 257
 1315.26367188 260 l 257
 1460.85253906 460 l 257
 398.852539062 460 l 257
1478.984375 -22 m 257
 1336.30859375 -218 l 257
 1693.30859375 -218 l 257
 1835.984375 -22 l 257
 1478.984375 -22 l 257
1577.78710938 -183 m 257
 1752.97070312 -588 l 257
 2015.625 -425 l 257
 1838.71289062 -21 l 257
 1577.78710938 -183 l 257
EndSplineSet
Ligature2: "halnHalantFormsinDevanagarilookup0 subtable" uni091E uni094D
EndChar

StartChar: uni091F
Encoding: 2335 2335 423
GlifName: uni091F_
Width: 2048
VWidth: 0
GlyphClass: 2
Flags: W
LayerCount: 2
Fore
SplineSet
563.42578125 1548 m 257
 490.631835938 1348 l 257
 2542.63183594 1348 l 257
 2615.42578125 1548 l 257
 563.42578125 1548 l 257
2153.14648438 1528 m 257
 1956.60253906 988 l 257
 2156.60253906 988 l 257
 2353.14648438 1528 l 257
 2153.14648438 1528 l 257
2169.34179688 1023 m 257
 478.341796875 1023 l 257
 405.18359375 822 l 257
 2096.18359375 822 l 257
 2169.34179688 1023 l 257
457.341796875 1023 m 257
 86.8203125 5 l 257
 286.8203125 5 l 257
 657.341796875 1023 l 257
 457.341796875 1023 l 257
158.158203125 201 m 257
 85 0 l 257
 1840 0 l 257
 1913.15820312 201 l 257
 158.158203125 201 l 257
EndSplineSet
EndChar

StartChar: uni091F_uni0930_uni094D.vatu
Encoding: 65573 -1 424
GlifName: uni091F__uni0930_uni094D_.vatu
Width: 2048
VWidth: 0
GlyphClass: 2
Flags: W
LayerCount: 2
Fore
SplineSet
961.756835938 90 m 257
 1047.44824219 -290 l 257
 1329.44824219 -290 l 257
 1145.26855469 259 l 257
 961.756835938 90 l 257
1145.26855469 259 m 257
 535.172851562 -299 l 257
 756.172851562 -299 l 257
 1200.21289062 94 l 257
 1145.26855469 259 l 257
563.42578125 1548 m 257
 490.631835938 1348 l 257
 2542.63183594 1348 l 257
 2615.42578125 1548 l 257
 563.42578125 1548 l 257
2153.14648438 1528 m 257
 1956.60253906 988 l 257
 2156.60253906 988 l 257
 2353.14648438 1528 l 257
 2153.14648438 1528 l 257
2169.34179688 1023 m 257
 478.341796875 1023 l 257
 405.18359375 822 l 257
 2096.18359375 822 l 257
 2169.34179688 1023 l 257
457.341796875 1023 m 257
 196.010742188 305 l 257
 396.010742188 305 l 257
 657.341796875 1023 l 257
 457.341796875 1023 l 257
267.348632812 501 m 257
 194.19140625 300 l 257
 1949.19140625 300 l 257
 2022.34863281 501 l 257
 267.348632812 501 l 257
EndSplineSet
Ligature2: "vatuVattuVariantsinDevanagarilookup0 subtable" uni091F uni0930_uni094D.blwf
EndChar

StartChar: uni091F_uni094D.haln
Encoding: 65574 -1 425
GlifName: uni091F__uni094D_.haln
Width: 2048
VWidth: 0
GlyphClass: 2
Flags: HW
LayerCount: 2
Fore
SplineSet
1126.8515625 1548 m 257
 981.263671875 1348 l 257
 3033.26367188 1348 l 257
 3178.8515625 1548 l 257
 1126.8515625 1548 l 257
2709.29296875 1528 m 257
 2316.20507812 988 l 257
 2516.20507812 988 l 257
 2909.29296875 1528 l 257
 2709.29296875 1528 l 257
2541.68359375 1023 m 257
 850.68359375 1023 l 257
 704.3671875 822 l 257
 2395.3671875 822 l 257
 2541.68359375 1023 l 257
829.68359375 1023 m 257
 88.640625 5 l 257
 288.640625 5 l 257
 1029.68359375 1023 l 257
 829.68359375 1023 l 257
231.31640625 201 m 257
 85 0 l 257
 1840 0 l 257
 1986.31640625 201 l 257
 231.31640625 201 l 257
1478.984375 -22 m 257
 1336.30859375 -218 l 257
 1693.30859375 -218 l 257
 1835.984375 -22 l 257
 1478.984375 -22 l 257
1577.78710938 -183 m 257
 1752.97070312 -588 l 257
 2015.625 -425 l 257
 1838.71289062 -21 l 257
 1577.78710938 -183 l 257
EndSplineSet
Ligature2: "halnHalantFormsinDevanagarilookup0 subtable" uni091F uni094D
EndChar

StartChar: uni0920
Encoding: 2336 2336 426
GlifName: uni0920
Width: 2048
VWidth: 0
GlyphClass: 2
Flags: W
LayerCount: 2
Fore
SplineSet
563.42578125 1548 m 257
 491.359375 1350 l 257
 2539.359375 1350 l 257
 2611.42578125 1548 l 257
 563.42578125 1548 l 257
1452.13183594 1484 m 257
 1284.34179688 1023 l 257
 1492.34179688 1023 l 257
 1660.13183594 1484 l 257
 1452.13183594 1484 l 257
461.708984375 1035 m 257
 388.55078125 834 l 257
 2288.55078125 834 l 257
 2361.70898438 1035 l 257
 461.708984375 1035 l 257
448.708984375 1035 m 257
 76.7314453125 13 l 257
 276.731445312 13 l 257
 648.708984375 1035 l 257
 448.708984375 1035 l 257
2161.70898438 1035 m 257
 1785 0 l 257
 1985 0 l 257
 2361.70898438 1035 l 257
 2161.70898438 1035 l 257
145.06640625 198 m 257
 73 0 l 257
 1965 0 l 257
 2037.06640625 198 l 257
 145.06640625 198 l 257
EndSplineSet
EndChar

StartChar: uni0920_uni0930_uni094D.vatu
Encoding: 65575 -1 427
GlifName: uni0920_uni0930_uni094D_.vatu
Width: 2048
VWidth: 0
GlyphClass: 2
Flags: W
LayerCount: 2
Fore
SplineSet
961.756835938 90 m 257
 1047.44824219 -290 l 257
 1329.44824219 -290 l 257
 1145.26855469 259 l 257
 961.756835938 90 l 257
1145.26855469 259 m 257
 535.172851562 -299 l 257
 756.172851562 -299 l 257
 1200.21289062 94 l 257
 1145.26855469 259 l 257
563.42578125 1548 m 257
 491.359375 1350 l 257
 2539.359375 1350 l 257
 2611.42578125 1548 l 257
 563.42578125 1548 l 257
1452.13183594 1484 m 257
 1284.34179688 1023 l 257
 1492.34179688 1023 l 257
 1660.13183594 1484 l 257
 1452.13183594 1484 l 257
461.708984375 1035 m 257
 388.55078125 834 l 257
 2288.55078125 834 l 257
 2361.70898438 1035 l 257
 461.708984375 1035 l 257
448.708984375 1035 m 257
 185.922851562 313 l 257
 385.922851562 313 l 257
 648.708984375 1035 l 257
 448.708984375 1035 l 257
2161.70898438 1035 m 257
 1893.46289062 298 l 257
 2093.46289062 298 l 257
 2361.70898438 1035 l 257
 2161.70898438 1035 l 257
254.256835938 498 m 257
 181.099609375 297 l 257
 2073.09960938 297 l 257
 2146.25683594 498 l 257
 254.256835938 498 l 257
EndSplineSet
Ligature2: "vatuVattuVariantsinDevanagarilookup0 subtable" uni0920 uni0930_uni094D.blwf
EndChar

StartChar: uni0920_uni094D.haln
Encoding: 65576 -1 428
GlifName: uni0920_uni094D_.haln
Width: 2048
VWidth: 0
GlyphClass: 2
Flags: HW
LayerCount: 2
Fore
SplineSet
1126.8515625 1548 m 257
 982.71875 1350 l 257
 3030.71875 1350 l 257
 3174.8515625 1548 l 257
 1126.8515625 1548 l 257
1992.26367188 1484 m 257
 1656.68359375 1023 l 257
 1864.68359375 1023 l 257
 2200.26367188 1484 l 257
 1992.26367188 1484 l 257
838.41796875 1035 m 257
 692.1015625 834 l 257
 2592.1015625 834 l 257
 2738.41796875 1035 l 257
 838.41796875 1035 l 257
825.41796875 1035 m 257
 81.462890625 13 l 257
 281.462890625 13 l 257
 1025.41796875 1035 l 257
 825.41796875 1035 l 257
2538.41796875 1035 m 257
 1785 0 l 257
 1985 0 l 257
 2738.41796875 1035 l 257
 2538.41796875 1035 l 257
217.1328125 198 m 257
 73 0 l 257
 1965 0 l 257
 2109.1328125 198 l 257
 217.1328125 198 l 257
1478.984375 -22 m 257
 1336.30859375 -218 l 257
 1693.30859375 -218 l 257
 1835.984375 -22 l 257
 1478.984375 -22 l 257
1577.78710938 -183 m 257
 1752.97070312 -588 l 257
 2015.625 -425 l 257
 1838.71289062 -21 l 257
 1577.78710938 -183 l 257
EndSplineSet
Ligature2: "halnHalantFormsinDevanagarilookup0 subtable" uni0920 uni094D
EndChar

StartChar: uni0921
Encoding: 2337 2337 429
GlifName: uni0921
Width: 2048
VWidth: 0
GlyphClass: 2
Flags: W
LayerCount: 2
Fore
SplineSet
563.42578125 1548 m 257
 490.631835938 1348 l 257
 2542.63183594 1348 l 257
 2615.42578125 1548 l 257
 563.42578125 1548 l 257
765.8046875 1049 m 257
 616.212890625 638 l 257
 815.212890625 638 l 257
 964.8046875 1049 l 257
 765.8046875 1049 l 257
655.521484375 746 m 257
 579.81640625 538 l 257
 1776.81640625 538 l 257
 1852.52148438 746 l 257
 655.521484375 746 l 257
1637.87109375 703 m 257
 1384.8203125 5 l 257
 1583.8203125 5 l 257
 1836.87109375 703 l 257
 1637.87109375 703 l 257
134.793945312 200 m 257
 62 0 l 257
 1582 0 l 257
 1652.79394531 200 l 257
 134.793945312 200 l 257
182.474609375 331 m 257
 63.8203125 5 l 257
 263.8203125 5 l 257
 382.474609375 331 l 257
 182.474609375 331 l 257
796.7421875 1134 m 257
 721.036132812 926 l 257
 1782.03613281 926 l 257
 1857.7421875 1134 l 257
 796.7421875 1134 l 257
1752.28222656 1391 m 257
 1602.69042969 980 l 257
 1801.69042969 980 l 257
 1951.28222656 1391 l 257
 1752.28222656 1391 l 257
EndSplineSet
EndChar

StartChar: uni0921_uni0930_uni094D.vatu
Encoding: 65577 -1 430
GlifName: uni0921_uni0930_uni094D_.vatu
Width: 2048
VWidth: 0
GlyphClass: 2
Flags: W
LayerCount: 2
Fore
SplineSet
951.9296875 63 m 257
 1072.19824219 -222 l 257
 1354.19824219 -222 l 257
 1120.15429688 190 l 257
 951.9296875 63 l 257
1120.15429688 190 m 257
 561.014648438 -228 l 257
 782.014648438 -228 l 257
 1190.38574219 67 l 257
 1120.15429688 190 l 257
563.42578125 1548 m 257
 490.631835938 1348 l 257
 2542.63183594 1348 l 257
 2615.42578125 1548 l 257
 563.42578125 1548 l 257
786.55078125 1106 m 257
 649.333984375 729 l 257
 848.333984375 729 l 257
 985.55078125 1106 l 257
 786.55078125 1106 l 257
688.643554688 837 m 257
 612.9375 629 l 257
 1809.9375 629 l 257
 1885.64355469 837 l 257
 688.643554688 837 l 257
1670.9921875 794 m 257
 1442.69140625 164 l 257
 1641.69140625 164 l 257
 1869.9921875 794 l 257
 1670.9921875 794 l 257
192.665039062 359 m 257
 119.87109375 159 l 257
 1639.87109375 159 l 257
 1710.66503906 359 l 257
 192.665039062 359 l 257
240.345703125 490 m 257
 121.69140625 164 l 257
 321.69140625 164 l 257
 440.345703125 490 l 257
 240.345703125 490 l 257
817.48828125 1191 m 257
 741.783203125 983 l 257
 1802.78320312 983 l 257
 1878.48828125 1191 l 257
 817.48828125 1191 l 257
1752.28222656 1391 m 257
 1623.4375 1037 l 257
 1822.4375 1037 l 257
 1951.28222656 1391 l 257
 1752.28222656 1391 l 257
EndSplineSet
Ligature2: "vatuVattuVariantsinDevanagarilookup0 subtable" uni0921 uni0930_uni094D.blwf
EndChar

StartChar: uni0921_uni094D.haln
Encoding: 65578 -1 431
GlifName: uni0921_uni094D_.haln
Width: 2048
VWidth: 0
GlyphClass: 2
Flags: HW
LayerCount: 2
Fore
SplineSet
1126.8515625 1548 m 257
 981.263671875 1348 l 257
 3033.26367188 1348 l 257
 3178.8515625 1548 l 257
 1126.8515625 1548 l 257
1147.609375 1049 m 257
 848.42578125 638 l 257
 1047.42578125 638 l 257
 1346.609375 1049 l 257
 1147.609375 1049 l 257
927.04296875 746 m 257
 775.631835938 538 l 257
 1972.63183594 538 l 257
 2124.04296875 746 l 257
 927.04296875 746 l 257
1893.7421875 703 m 257
 1386.640625 5 l 257
 1585.640625 5 l 257
 2092.7421875 703 l 257
 1893.7421875 703 l 257
207.587890625 200 m 257
 62 0 l 257
 1582 0 l 257
 1725.58789062 200 l 257
 207.587890625 200 l 257
302.948242188 331 m 257
 65.640625 5 l 257
 265.640625 5 l 257
 502.948242188 331 l 257
 302.948242188 331 l 257
1209.484375 1134 m 257
 1058.07226562 926 l 257
 2119.07226562 926 l 257
 2270.484375 1134 l 257
 1209.484375 1134 l 257
2258.56445312 1391 m 257
 1959.38085938 980 l 257
 2158.38085938 980 l 257
 2457.56445312 1391 l 257
 2258.56445312 1391 l 257
1478.984375 -22 m 257
 1336.30859375 -218 l 257
 1693.30859375 -218 l 257
 1835.984375 -22 l 257
 1478.984375 -22 l 257
1577.78710938 -183 m 257
 1752.97070312 -588 l 257
 2015.625 -425 l 257
 1838.71289062 -21 l 257
 1577.78710938 -183 l 257
EndSplineSet
Ligature2: "halnHalantFormsinDevanagarilookup0 subtable" uni0921 uni094D
EndChar

StartChar: uni0922
Encoding: 2338 2338 432
GlifName: uni0922
Width: 2048
VWidth: 0
GlyphClass: 2
Flags: W
LayerCount: 2
Fore
SplineSet
568.42578125 1548 m 257
 495.631835938 1348 l 257
 2533.63183594 1348 l 257
 2606.42578125 1548 l 257
 568.42578125 1548 l 257
2144.14648438 1528 m 257
 1947.60253906 988 l 257
 2147.60253906 988 l 257
 2344.14648438 1528 l 257
 2144.14648438 1528 l 257
2160.34179688 1023 m 257
 487.341796875 1023 l 257
 414.18359375 822 l 257
 2087.18359375 822 l 257
 2160.34179688 1023 l 257
466.341796875 1023 m 257
 95.8203125 5 l 257
 295.8203125 5 l 257
 666.341796875 1023 l 257
 466.341796875 1023 l 257
167.158203125 201 m 257
 94 0 l 257
 1831 0 l 257
 1904.15820312 201 l 257
 167.158203125 201 l 257
1830 544 m 257
 1632 0 l 257
 1833 0 l 257
 2031 544 l 257
 1830 544 l 257
1778.09179688 547 m 257
 1705.29785156 347 l 257
 1957.29785156 347 l 257
 2030.09179688 547 l 257
 1778.09179688 547 l 257
EndSplineSet
EndChar

StartChar: uni0922_uni0930_uni094D.vatu
Encoding: 65579 -1 433
GlifName: uni0922_uni0930_uni094D_.vatu
Width: 2048
VWidth: 0
GlyphClass: 2
Flags: W
LayerCount: 2
Fore
SplineSet
966.756835938 90 m 257
 1052.44824219 -290 l 257
 1334.44824219 -290 l 257
 1150.26855469 259 l 257
 966.756835938 90 l 257
1150.26855469 259 m 257
 540.172851562 -299 l 257
 761.172851562 -299 l 257
 1205.21289062 94 l 257
 1150.26855469 259 l 257
573.42578125 1548 m 257
 500.631835938 1348 l 257
 2538.63183594 1348 l 257
 2611.42578125 1548 l 257
 573.42578125 1548 l 257
2149.14648438 1528 m 257
 1989 1088 l 257
 2189 1088 l 257
 2349.14648438 1528 l 257
 2149.14648438 1528 l 257
2201.73828125 1123 m 257
 528.73828125 1123 l 257
 455.580078125 922 l 257
 2128.58007812 922 l 257
 2201.73828125 1123 l 257
508.102539062 1124 m 257
 210.010742188 305 l 257
 410.010742188 305 l 257
 708.102539062 1124 l 257
 508.102539062 1124 l 257
281.348632812 501 m 257
 208.19140625 300 l 257
 1945.19140625 300 l 257
 2018.34863281 501 l 257
 281.348632812 501 l 257
1944.19042969 844 m 257
 1745.46289062 298 l 257
 1946.46289062 298 l 257
 2145.19042969 844 l 257
 1944.19042969 844 l 257
1892.28320312 847 m 257
 1819.48828125 647 l 257
 2071.48828125 647 l 257
 2144.28320312 847 l 257
 1892.28320312 847 l 257
EndSplineSet
Ligature2: "vatuVattuVariantsinDevanagarilookup0 subtable" uni0922 uni0930_uni094D.blwf
EndChar

